<svg xmlns="http://www.w3.org/2000/svg" viewBox="0 0 636.77 327.11"><defs><style>.cls-1{fill:#f08861;}.cls-2{fill:#333;}.cls-3,.cls-4{fill:#fff;}.cls-3{stroke:#333;stroke-miterlimit:10;stroke-width:11px;}.cls-5{font-size:24px;font-family:HiraginoSans-W6-83pv-RKSJ-H, Hiragino Sans;}</style></defs><g id="レイヤー_2" data-name="レイヤー 2"><g id="レイヤー_1-2" data-name="レイヤー 1"><polygon class="cls-1" points="433.28 204.41 11.87 204.41 24.48 127.95 57.87 102.97 176.13 85.64 262.78 9.69 433.28 8.88 433.28 204.41"/><path class="cls-2" d="M6.68,216.35l-.49,0A6.66,6.66,0,0,1,0,209.2c.23-3.13,5.84-76.75,32.39-99.94C52.59,91.63,125.46,84,167.1,81a38.48,38.48,0,0,0,21.77-8.67C194.21,63.87,232.32,6,272.14,2.2,310.2-1.46,439.67-.52,474.62,4.76,510.43,10.16,576,45.87,589.71,67.4c10.68,16.82,7.63,49,4.08,69.81l4.52,7.37c.92,1.71,8.91,17.08,7.46,29.76-.35,3-1.48,12.91-28.92,39.45h-10.2l-17-.11a6.67,6.67,0,0,1,0-13.34h0l17,.11h.07a11,11,0,0,0,7.89-3.37c12.6-13.09,17.48-21.24,17.82-24.25.81-7.06-3.77-17.72-5.81-21.65A31.35,31.35,0,0,1,581.6,129c3.67-25.17,2.5-45.52-3.15-54.41C567,56.49,503.69,22.63,472.62,17.94c-31.87-4.81-158.47-6.37-199.2-2.46C238,18.88,200,79.6,199.63,80.22l-1.32,1.55a51.75,51.75,0,0,1-30.26,12.49c-67,4.83-114.45,14.19-126.87,25-18.64,16.28-26.43,71.11-27.86,90.86A6.67,6.67,0,0,1,6.68,216.35Z"/><path class="cls-2" d="M377.31,210.7H188.17a6.67,6.67,0,0,1,0-13.34H377.31a6.67,6.67,0,1,1,0,13.34Z"/><circle class="cls-3" cx="100.61" cy="202.89" r="49.47"/><circle class="cls-3" cx="464" cy="202.89" r="49.47"/><path class="cls-2" d="M570.65,62.29a6.66,6.66,0,0,1-6.44-5c-3.84-14.47,14.35-36.6,26.42-43.9-21.85,2-80.12,9.9-103.33,8.34a6.67,6.67,0,0,1,.88-13.31C514.23,10.18,577,2.41,590.66.88a12,12,0,0,1,11.42,5.36c2.51,3.84,3.09,10.64.35,12.68s-26.9,29.09-25.34,35a6.65,6.65,0,0,1-4.73,8.15A6.34,6.34,0,0,1,570.65,62.29Z"/><path class="cls-4" d="M247.06,108.4c0-.44.06-1.09.07-1.94s0-1.81,0-2.88,0-2.16,0-3.3,0-2.22,0-3.25-.05-1.93-.08-2.7-.07-1.32-.11-1.66c.42,0,1,.08,1.67.11l2.08.08,1.64,0c-.06.56-.1,1.06-.11,1.5s0,1,0,1.53V98c0,.7,0,1.55,0,2.54s0,2,0,3.05,0,2,0,2.84,0,1.49.08,1.91c-.72,0-1.58,0-2.57,0S247.78,108.36,247.06,108.4ZM252.54,120a12.56,12.56,0,0,0-1-1.36c-.41-.52-.86-1-1.32-1.58s-.92-1-1.34-1.4a24.23,24.23,0,0,0,3.89-1.58,9.09,9.09,0,0,0,2.62-2,8.7,8.7,0,0,0,1.58-2.92,19.2,19.2,0,0,0,.76-4.2q.21-2.47.21-5.92c0-1.64,0-3-.06-4.18s-.1-2-.16-2.52h.57l.64,0,2.46.11c.87,0,1.54,0,2,0-.05.32-.08.82-.11,1.5s-.06,1.46-.08,2.33,0,1.76,0,2.68q0,3.63-.24,6.41a25.26,25.26,0,0,1-.87,4.92,12.71,12.71,0,0,1-4.9,6.92A29.59,29.59,0,0,1,252.54,120Z"/><path class="cls-4" d="M280.12,108.37c0-.38,0-.88,0-1.5s0-1.23,0-1.85,0-1.12,0-1.5c.29,0,.94,0,1.94.08s2.23.05,3.67.06l4.71,0h9.89c1.5,0,2.79,0,3.85-.07s1.79-.07,2.17-.11c0,.34,0,.83-.05,1.45s0,1.25,0,1.87,0,1.11,0,1.47l-2.27-.08c-1,0-2.22-.06-3.6-.08s-2.87,0-4.44,0h-4.76c-1.59,0-3.12,0-4.58,0l-3.87.08C281.64,108.26,280.76,108.31,280.12,108.37Z"/><path class="cls-4" d="M321.61,118.74a24.55,24.55,0,0,0-1.71-1.91,18.21,18.21,0,0,0-2-1.79,31.67,31.67,0,0,0,5.25-3.05,40.64,40.64,0,0,0,4.71-3.9,35,35,0,0,0,3.8-4.33,22.9,22.9,0,0,0,2.55-4.36l-2,0-3,.06c-1.1,0-2.22,0-3.35.1s-2.16.09-3.11.14-1.69.11-2.22.18c0-.43,0-1-.08-1.58s-.06-1.27-.08-1.92,0-1.21-.06-1.68c.64.05,1.47.08,2.49.1l3.37,0q1.83,0,3.75,0c1.27,0,2.49,0,3.66-.07s2.22-.07,3.13-.12,1.62-.11,2.11-.18l.67.67c.28.28.56.54.84.8s.51.46.66.61a6.54,6.54,0,0,0-.86,1.46c-.26.58-.5,1.11-.74,1.6a31.59,31.59,0,0,1-1.75,3.49,38.84,38.84,0,0,1-2.17,3.34c.68.45,1.46,1,2.34,1.67s1.79,1.38,2.7,2.11,1.77,1.45,2.57,2.15a25.61,25.61,0,0,1,1.93,1.86,15.88,15.88,0,0,0-1.29,1.08c-.54.49-1.07,1-1.57,1.45s-.86.86-1.1,1.14c-.42-.49-1-1.09-1.7-1.79s-1.49-1.43-2.33-2.17-1.66-1.45-2.46-2.12-1.5-1.23-2.09-1.68a44.39,44.39,0,0,1-5.08,4.69A42.35,42.35,0,0,1,321.61,118.74Z"/><path class="cls-4" d="M360.86,120.21v-9.16q-.9,1.15-1.8,2.16a24.59,24.59,0,0,1-1.77,1.77,12.37,12.37,0,0,0-1.46-1.57,9.85,9.85,0,0,0-1.67-1.24,19.63,19.63,0,0,0,2.2-2.06,31.35,31.35,0,0,0,2.14-2.55,25.49,25.49,0,0,0,1.76-2.67h-4.63v-4h5.23V91.27h4.24v9.63h4.41v4h-4.18c.42.47.94,1,1.55,1.57s1.21,1.11,1.82,1.63,1.12.91,1.54,1.21a3.32,3.32,0,0,0-.25.27c-.09.09-.18.2-.29.3,1-.13,2.23-.3,3.62-.51s2.8-.45,4.2-.7V98.57c-.4.39-.84.81-1.29,1.26a10.21,10.21,0,0,0-1,1.17c-.36-.43-.79-.89-1.29-1.39s-1-1-1.57-1.48a12.86,12.86,0,0,0-1.58-1.25L373.66,94a17.43,17.43,0,0,1,1.94,1.56c.71.64,1.35,1.26,1.92,1.85V91.2h4.4v16.63c.66-.13,1.25-.26,1.78-.38l1.29-.32.25,4.24-1.45.34c-.56.14-1.19.27-1.87.4v8.1h-4.4V113l-4.4.8q-2.14.38-3.51.57l-.77-3.51c-.24.3-.46.6-.67.89s-.38.57-.51.8a25.09,25.09,0,0,1-2.56-2.46v10.12ZM357,100.46a15.77,15.77,0,0,0-.46-1.84c-.22-.73-.47-1.47-.74-2.2a11,11,0,0,0-.78-1.77l3.58-1.34a11.51,11.51,0,0,1,.76,1.72q.42,1.13.78,2.28c.25.78.42,1.4.53,1.87a14.84,14.84,0,0,0-2,.54A9.78,9.78,0,0,0,357,100.46Zm11.71.06a18.26,18.26,0,0,0-1.7-.83,7.78,7.78,0,0,0-1.78-.57c.22-.43.47-1,.75-1.69s.56-1.44.8-2.19a17.87,17.87,0,0,0,.53-1.93l3.67,1c-.09.38-.22.86-.4,1.44s-.38,1.17-.61,1.79-.44,1.18-.67,1.7A12.22,12.22,0,0,1,368.74,100.52Zm5.68,7.47c-.55-.62-1.25-1.31-2.09-2.09a16.09,16.09,0,0,0-2.44-1.9l2.72-3c.49.32,1,.71,1.61,1.18s1.15.95,1.7,1.43a19,19,0,0,1,1.41,1.35,13.37,13.37,0,0,0-1.5,1.43C375.25,107,374.79,107.52,374.42,108Z"/><path class="cls-1" d="M476.59,120.88a11.55,11.55,0,0,0-.59-1.4,14.31,14.31,0,0,0-.81-1.49,9,9,0,0,0-.86-1.16,29.1,29.1,0,0,0,5.31-1.71,41.08,41.08,0,0,0,5.22-2.63,24.91,24.91,0,0,1-1.15-3.45l-5.3.51-.38-3.86,4.88-.48-.06-.52a3.1,3.1,0,0,0-.1-.53l-3,.32-.38-3.58,3-.28-.09-1.06-3.1.26-.29-3.51H473.5c0,.4-.06.83-.11,1.28s-.14.91-.24,1.4h5.42a34.14,34.14,0,0,1-1.13,7.88,27.67,27.67,0,0,1-3.18,7.47,22.64,22.64,0,0,1-5.61,6.19,12.2,12.2,0,0,0-1.49-1.48,15.9,15.9,0,0,0-1.86-1.42,17.16,17.16,0,0,0,3.62-3.29,23.58,23.58,0,0,0,2.82-4.25,16.64,16.64,0,0,0-2.33-1.24c-.15.26-.31.51-.49.77s-.37.5-.56.73a12.62,12.62,0,0,0-1.63-1.31,20.12,20.12,0,0,0-1.85-1.11,13.76,13.76,0,0,0,2.06-3.28,22.4,22.4,0,0,0,1.45-4.18,23.89,23.89,0,0,0,.67-4.16h-2.87v-4h13v3.54l3-.22c0-.72,0-1.46-.05-2.22s0-1.52,0-2.31h4.5c0,1.44,0,2.83,0,4.15l2.84-.23a14.25,14.25,0,0,0-1.12-1.24,11,11,0,0,0-1.18-1l3.16-2.24c.51.41,1.1.93,1.76,1.57s1.19,1.19,1.59,1.65a11.12,11.12,0,0,0-1.53,1.09l2.62-.22.29,3.89-8.3.67a4.35,4.35,0,0,0,0,.51c0,.17,0,.34,0,.51l6.83-.67.35,3.58-6.83.63c0,.17,0,.35.07.53l.06.53,7.69-.77.42,3.86-4.06.42,2.62,2.26a19.07,19.07,0,0,1-1.44,1.6,19.71,19.71,0,0,1-1.72,1.53,9.17,9.17,0,0,0,.69.7c.22.22.46.43.71.64a13.45,13.45,0,0,0,.45-1.31,8.3,8.3,0,0,0,.26-1.21,13.25,13.25,0,0,0,1.86.88,15.32,15.32,0,0,0,2.06.68,17.22,17.22,0,0,1-.72,2.83,14.51,14.51,0,0,1-1,2.28,2.49,2.49,0,0,1-2,1.49,3.54,3.54,0,0,1-2.36-.66,16.26,16.26,0,0,1-2-1.64,15.86,15.86,0,0,1-1.72-2,44.34,44.34,0,0,1-5.08,2.64A36.77,36.77,0,0,1,476.59,120.88Zm-3.22-15a17.06,17.06,0,0,0,.54-3h-1.78c-.11.36-.23.71-.37,1.07l-.43,1.06,1,.4Zm15.13,4q.86-.74,1.59-1.5l-2,.23c.07.21.13.42.21.64S488.41,109.69,488.5,109.9Z"/><path class="cls-1" d="M507.52,120.28V104.83c-.28.4-.57.79-.86,1.15a6.7,6.7,0,0,0-1-1.07c-.43-.39-.86-.77-1.31-1.12a11.67,11.67,0,0,0-1.15-.81,21.07,21.07,0,0,0,1.8-2.65c.59-1,1.14-2,1.66-3.14s1-2.18,1.39-3.24a27.61,27.61,0,0,0,1-2.94l4.37,1c0,.11,0,.22-.08.34s-.07.24-.11.36h20.46v4.41h-6.32v3.76h5.49v18.48H513.33V100.9h5.49V97.14H513V93.4c-.15.51-.33,1-.53,1.58s-.42,1.09-.65,1.65v23.65Zm10-5.46h1.35V105.5h-1.35Zm4.95-13.92h1.34V97.14h-1.34Zm0,13.92h1.34V105.5h-1.34Zm5,0h1.37V105.5h-1.37Z"/><text class="cls-5" transform="translate(131.14 306.03)">月々のリース料金</text><text class="cls-5" transform="translate(451.89 290.38)">リース満了後の<tspan x="0" y="26">車の予測価値</tspan></text><rect x="8.21" y="272.01" width="3.04" height="48.08"/><rect x="432.44" y="272.01" width="3.09" height="48.08"/><rect x="633.76" y="273.14" width="3.01" height="48.08"/></g></g></svg>