<svg xmlns="http://www.w3.org/2000/svg" viewBox="0 0 448.54 192.39"><defs><style>.cls-1{fill:#f08861;}.cls-2{fill:#333;}.cls-2,.cls-3{stroke:#333;stroke-miterlimit:10;}.cls-3,.cls-4{fill:#fff;}.cls-3{stroke-width:11px;}</style></defs><g id="レイヤー_2" data-name="レイヤー 2"><g id="レイヤー_1-2" data-name="レイヤー 1"><polygon class="cls-1" points="274.96 151.05 9.27 151.05 18.59 95 43.24 76.55 130.58 63.75 194.58 7.66 274.96 7.06 274.96 151.05"/><path class="cls-2" d="M5.43,160.29H5.07A4.94,4.94,0,0,1,.51,155C.68,152.7,4.83,98.32,24.44,81.2c14.9-13,68.72-18.69,99.48-20.91A28.43,28.43,0,0,0,140,53.89C143.94,47.67,172.09,5,201.5,2.13,229.61-.58,325.23.12,351,4c26.46,4,74.92,30.37,85,46.27,7.89,12.42,5.64,36.17,3,51.56l3.34,5.44c.68,1.27,6.58,12.62,5.51,22-.25,2.23-1.09,9.53-21.36,29.13H419l-12.54-.08a4.93,4.93,0,0,1,0-9.85h0l12.54.08h.06a8.14,8.14,0,0,0,5.82-2.49c9.31-9.67,12.91-15.69,13.17-17.91.59-5.22-2.79-13.09-4.29-16a23.16,23.16,0,0,1-3.78-16.41c2.71-18.59,1.85-33.62-2.33-40.19-8.46-13.34-55.21-38.34-78.16-41.81C326,10.2,232.53,9,202.44,11.93,176.25,14.45,148.23,59.29,148,59.75l-1,1.14a38.2,38.2,0,0,1-22.35,9.23c-49.5,3.57-84.53,10.48-93.7,18.5-13.77,12-19.52,52.51-20.58,67.1A4.93,4.93,0,0,1,5.43,160.29Z"/><path class="cls-2" d="M279.18,156.12H139.48a4.93,4.93,0,1,1,0-9.85h139.7a4.93,4.93,0,0,1,0,9.85Z"/><circle class="cls-3" cx="74.81" cy="150.35" r="36.54"/><circle class="cls-3" cx="343.21" cy="150.35" r="36.54"/><path class="cls-2" d="M422,46.51a4.94,4.94,0,0,1-4.76-3.67c-2.83-10.68,10.6-27,19.52-32.42-16.14,1.51-59.18,7.31-76.32,6.16a4.93,4.93,0,0,1,.66-9.83C380.3,8,426.65,2.28,436.75,1.15a8.86,8.86,0,0,1,8.43,4c1.86,2.84,2.29,7.85.27,9.36S425.58,36,426.73,40.32a4.92,4.92,0,0,1-3.49,6A5.61,5.61,0,0,1,422,46.51Z"/><path class="cls-4" d="M153,83.29c0-.33.05-.8.06-1.43s0-1.34,0-2.12,0-1.6,0-2.44,0-1.65,0-2.41,0-1.42-.06-2,0-1-.09-1.23c.32,0,.73.06,1.24.09l1.53.06,1.22,0a9.34,9.34,0,0,0-.08,1.11c0,.33,0,.7,0,1.13v1.55c0,.52,0,1.15,0,1.88s0,1.48,0,2.25,0,1.47,0,2.1,0,1.1.06,1.41l-1.9,0C154.21,83.25,153.58,83.26,153,83.29Zm4.06,8.56c-.18-.28-.42-.62-.72-1s-.64-.77-1-1.17-.68-.74-1-1a17.88,17.88,0,0,0,2.87-1.17A6.5,6.5,0,0,0,159.22,86a6.39,6.39,0,0,0,1.17-2.16,14.15,14.15,0,0,0,.56-3.1c.1-1.21.15-2.67.15-4.37,0-1.21,0-2.24,0-3.09s-.07-1.47-.12-1.86h.42l.47,0,1.82.08c.64,0,1.14,0,1.48,0,0,.24,0,.61-.08,1.11s0,1.08-.06,1.72,0,1.31,0,2q0,2.68-.18,4.74a17.89,17.89,0,0,1-.65,3.63,9.72,9.72,0,0,1-1.34,2.83,10,10,0,0,1-2.27,2.28A21.73,21.73,0,0,1,157.1,91.85Z"/><path class="cls-4" d="M177.46,83.27c0-.28,0-.65,0-1.11s0-.91,0-1.36,0-.83,0-1.11l1.44.06c.74,0,1.64,0,2.71,0l3.47,0h7.31l2.84,0c.79,0,1.32,0,1.6-.08,0,.25,0,.61,0,1.07s0,.92,0,1.38,0,.82,0,1.08l-1.67-.06-2.67,0q-1.53,0-3.27,0h-3.52c-1.17,0-2.3,0-3.38,0l-2.86,0C178.59,83.19,177.93,83.22,177.46,83.27Z"/><path class="cls-4" d="M208.11,90.93a16.79,16.79,0,0,0-1.27-1.41,12.72,12.72,0,0,0-1.49-1.32A25.35,25.35,0,0,0,209.23,86a30.38,30.38,0,0,0,3.47-2.89,26.43,26.43,0,0,0,2.81-3.19,16.75,16.75,0,0,0,1.88-3.22l-1.47,0-2.2,0c-.82,0-1.65,0-2.48.07l-2.3.11c-.7,0-1.24.08-1.64.13q0-.48-.06-1.17c0-.47,0-.94-.05-1.42s0-.89-.05-1.23c.47,0,1.08.05,1.84.07l2.48,0h2.77l2.71,0c.87,0,1.64-.06,2.31-.1s1.2-.08,1.56-.13l.5.5.62.59c.21.18.37.33.48.44a5.3,5.3,0,0,0-.63,1.09c-.19.42-.37.81-.55,1.18a23.87,23.87,0,0,1-1.29,2.58c-.49.84-1,1.66-1.6,2.46.5.33,1.08.74,1.73,1.24s1.31,1,2,1.55,1.31,1.08,1.9,1.59a19.45,19.45,0,0,1,1.42,1.37c-.23.17-.55.44-.95.8s-.79.72-1.16,1.08a11.39,11.39,0,0,0-.81.83Q222,89.8,221.2,89c-.53-.52-1.1-1-1.72-1.6s-1.23-1.07-1.82-1.57-1.1-.9-1.54-1.23a33.35,33.35,0,0,1-3.75,3.46A31.63,31.63,0,0,1,208.11,90.93Z"/><path class="cls-4" d="M237.1,92V85.25c-.44.57-.89,1.1-1.33,1.59a18,18,0,0,1-1.31,1.31A8.75,8.75,0,0,0,233.39,87a7,7,0,0,0-1.24-.92,16,16,0,0,0,1.62-1.52,22.57,22.57,0,0,0,1.58-1.89,16.27,16.27,0,0,0,1.3-2h-3.42V77.76h3.87V70.64h3.13v7.12h3.26V80.7H240.4c.31.35.69.73,1.14,1.16s.9.82,1.34,1.2.83.68,1.15.9a1.21,1.21,0,0,0-.19.2l-.21.22c.75-.09,1.64-.22,2.67-.38s2.07-.33,3.1-.52V76c-.3.28-.62.59-1,.93a6.59,6.59,0,0,0-.77.86c-.27-.32-.58-.66-1-1s-.76-.73-1.16-1.09a9.68,9.68,0,0,0-1.16-.92l2.14-2.17A13.6,13.6,0,0,1,248,73.77c.52.47,1,.93,1.41,1.37V70.59h3.26V82.87c.48-.09.92-.19,1.3-.28l1-.24.19,3.14-1.08.24c-.41.11-.87.2-1.37.3v6H249.4V86.69l-3.25.59c-1.05.19-1.92.33-2.59.42L243,85.11c-.17.22-.34.44-.49.66a5.13,5.13,0,0,0-.38.59,18.56,18.56,0,0,1-1.89-1.82V92Zm-2.83-14.59a11.63,11.63,0,0,0-.34-1.36c-.17-.54-.35-1.08-.54-1.63a8.76,8.76,0,0,0-.58-1.3l2.64-1a8.16,8.16,0,0,1,.56,1.27c.21.55.4,1.11.58,1.68s.31,1,.39,1.38a11.65,11.65,0,0,0-1.45.4A7.16,7.16,0,0,0,234.27,77.43Zm8.65,0a12.6,12.6,0,0,0-1.26-.61,5.88,5.88,0,0,0-1.31-.42c.16-.32.34-.73.55-1.25s.41-1.06.59-1.62a13.94,13.94,0,0,0,.39-1.42l2.71.77c-.06.29-.16.64-.29,1.06s-.28.87-.45,1.32-.33.88-.49,1.27A9.61,9.61,0,0,1,242.92,77.47Zm4.2,5.52c-.41-.46-.93-1-1.55-1.55a12.27,12.27,0,0,0-1.8-1.4l2-2.24c.36.24.76.53,1.19.87s.85.7,1.26,1.07.76.69,1,1a11.25,11.25,0,0,0-1.11,1.06A14.72,14.72,0,0,0,247.12,83Z"/><path class="cls-1" d="M331.05,92.51c-.11-.31-.26-.66-.44-1a11.56,11.56,0,0,0-.6-1.09,5,5,0,0,0-.64-.86,22.27,22.27,0,0,0,3.93-1.26,30.83,30.83,0,0,0,3.85-2,18.9,18.9,0,0,1-.85-2.54l-3.91.37-.28-2.85,3.6-.35c0-.13,0-.26,0-.39s0-.26-.07-.39l-2.22.24-.28-2.64,2.21-.22-.07-.77L333,77l-.22-2.59h-4c0,.3,0,.61-.08.94s-.1.68-.18,1h4a25.56,25.56,0,0,1-.84,5.82,20.66,20.66,0,0,1-2.34,5.52,16.92,16.92,0,0,1-4.15,4.57,8.7,8.7,0,0,0-1.1-1.09,11.48,11.48,0,0,0-1.38-1,12.48,12.48,0,0,0,2.68-2.43,17.27,17.27,0,0,0,2.08-3.14,13.24,13.24,0,0,0-1.72-.92q-.17.28-.36.57c-.14.19-.27.37-.41.54a10.64,10.64,0,0,0-1.21-1,14.52,14.52,0,0,0-1.36-.83,10.28,10.28,0,0,0,1.52-2.41A17.86,17.86,0,0,0,325,77.44a17.35,17.35,0,0,0,.49-3.08h-2.12V71.44h9.57v2.61l2.19-.16c0-.53,0-1.08,0-1.64s0-1.13,0-1.71h3.32c0,1.07,0,2.09,0,3.07l2.1-.17a11.68,11.68,0,0,0-.83-.92,7.4,7.4,0,0,0-.87-.77l2.34-1.66c.37.3.81.69,1.29,1.16s.88.88,1.18,1.23a7.84,7.84,0,0,0-1.13.8l1.93-.17.21,2.88-6.12.49c0,.13,0,.25,0,.38s0,.25,0,.38l5-.5.26,2.64-5,.47c0,.13,0,.26.05.39s0,.27,0,.39l5.68-.56.31,2.85-3,.3,1.93,1.68c-.32.39-.67.78-1.06,1.18a15.47,15.47,0,0,1-1.27,1.13c.17.19.34.36.5.52l.53.47a8.52,8.52,0,0,0,.33-1,5.11,5.11,0,0,0,.19-.89,10.27,10.27,0,0,0,1.38.64,11.78,11.78,0,0,0,1.52.51,13.31,13.31,0,0,1-.53,2.09,11.21,11.21,0,0,1-.74,1.68,1.84,1.84,0,0,1-1.46,1.1,2.62,2.62,0,0,1-1.75-.49A11.16,11.16,0,0,1,340,90.66a12,12,0,0,1-1.27-1.47A33.2,33.2,0,0,1,335,91.13,26.46,26.46,0,0,1,331.05,92.51Zm-2.38-11.05a14.45,14.45,0,0,0,.4-2.2h-1.32c-.08.27-.17.53-.27.79s-.21.53-.32.79l.74.3Zm11.17,2.94A15.72,15.72,0,0,0,341,83.29l-1.51.17.15.47Z"/><path class="cls-1" d="M353.89,92.06V80.66c-.21.29-.42.58-.64.84a4.73,4.73,0,0,0-.71-.79c-.31-.29-.63-.56-1-.82a8.84,8.84,0,0,0-.85-.6,16.69,16.69,0,0,0,1.33-2c.43-.74.84-1.51,1.23-2.32s.72-1.61,1-2.39a20.86,20.86,0,0,0,.71-2.17l3.23.75-.06.25a2.76,2.76,0,0,1-.08.27h15.11V75h-4.67v2.79h4.05V91.4H358.18V77.76h4.05V75H358V72.22c-.1.37-.23.76-.38,1.16s-.31.81-.49,1.22V92.06Zm7.35-4h1V81.15h-1Zm3.66-10.27h1V75h-1Zm0,10.27h1V81.15h-1Zm3.65,0h1V81.15h-1Z"/></g></g></svg>