<?xml version="1.0" encoding="utf-8"?>
<!-- Generator: Adobe Illustrator 26.0.1, SVG Export Plug-In . SVG Version: 6.00 Build 0)  -->
<svg version="1.1" id="レイヤー_1" xmlns="http://www.w3.org/2000/svg" xmlns:xlink="http://www.w3.org/1999/xlink" x="0px"
	 y="0px" viewBox="0 0 448.5 192.4" style="enable-background:new 0 0 448.5 192.4;" xml:space="preserve">
<style type="text/css">
	.st0{fill:#F08861;}
	.st1{fill:#333333;stroke:#333333;stroke-miterlimit:10;}
	.st2{fill:#FFFFFF;stroke:#333333;stroke-width:11;stroke-miterlimit:10;}
	.st3{fill:#FFFFFF;}
</style>
<g id="レイヤー_2_00000072996382584056168910000004898466782660308873_">
	<g id="レイヤー_1-2">
		<polygon class="st0" points="320.5,151.5 9.3,151.5 18.6,95 43.2,76.6 130.6,63.8 194.6,7.7 320.5,7.1 		"/>
		<path class="st1" d="M5.4,160.3H5.1c-2.7-0.2-4.8-2.6-4.6-5.3c0.2-2.3,4.3-56.7,23.9-73.8c14.9-13,68.7-18.7,99.5-20.9
			c5.9-0.4,11.5-2.6,16.1-6.4c3.9-6.2,32.1-48.9,61.5-51.8C229.6-0.6,325.2,0.1,351,4c26.5,4,74.9,30.4,85,46.3
			c7.9,12.4,5.6,36.2,3,51.6l3.3,5.4c0.7,1.3,6.6,12.6,5.5,22c-0.2,2.2-1.1,9.5-21.4,29.1H419l-12.5-0.1c-2.7-0.1-4.8-2.4-4.7-5.1
			c0.1-2.5,2.2-4.6,4.7-4.7l0,0l12.5,0.1h0.1c2.2,0,4.3-0.9,5.8-2.5c9.3-9.7,12.9-15.7,13.2-17.9c0.6-5.2-2.8-13.1-4.3-16
			c-3.3-4.8-4.6-10.7-3.8-16.4c2.7-18.6,1.9-33.6-2.3-40.2c-8.5-13.3-55.2-38.3-78.2-41.8c-23.5-3.5-117-4.7-147.1-1.8
			c-26.2,2.5-54.2,47.4-54.4,47.8l-1,1.1c-6.3,5.4-14.1,8.7-22.3,9.2C75.2,73.7,40.1,80.6,31,88.6c-13.8,12-19.5,52.5-20.6,67.1
			C10.2,158.3,8,160.3,5.4,160.3z"/>
		<path class="st1" d="M279.2,156.1H139.5c-2.7,0.1-5-2-5.1-4.7s2-5,4.7-5.1c0.1,0,0.3,0,0.4,0h139.7c2.7,0.1,4.8,2.4,4.7,5.1
			C283.8,154,281.7,156,279.2,156.1z"/>
		<circle class="st2" cx="74.8" cy="150.4" r="36.5"/>
		<circle class="st2" cx="343.2" cy="150.4" r="36.5"/>
		<path class="st1" d="M422,46.5c-2.2,0-4.2-1.5-4.8-3.7c-2.8-10.7,10.6-27,19.5-32.4c-16.1,1.5-59.2,7.3-76.3,6.2
			c-2.7-0.3-4.7-2.7-4.4-5.4c0.3-2.6,2.5-4.5,5-4.4c19.2,1.3,65.6-4.5,75.7-5.6c3.3-0.4,6.6,1.2,8.4,4c1.9,2.8,2.3,7.8,0.3,9.4
			S425.6,36,426.7,40.3c0.7,2.6-0.9,5.3-3.5,6C422.8,46.4,422.4,46.5,422,46.5z"/>
		<path class="st3" d="M183,80.6c0-0.3,0-0.8,0.1-1.4c0-0.6,0-1.3,0-2.1s0-1.6,0-2.4s0-1.7,0-2.4s0-1.4-0.1-2s-0.1-1-0.1-1.2
			c0.3,0,0.7,0.1,1.2,0.1l1.5,0.1h1.2c-0.1,0.4-0.1,0.8-0.1,1.1c0,0.3,0,0.7,0,1.1v1.6c0,0.5,0,1.2,0,1.9s0,1.5,0,2.2s0,1.5,0,2.1
			c0,0.5,0,0.9,0.1,1.4H185C184.1,80.5,183.5,80.5,183,80.6z M187,89.1c-0.2-0.3-0.4-0.6-0.7-1s-0.6-0.8-1-1.2s-0.7-0.7-1-1
			c1-0.3,1.9-0.7,2.9-1.2c0.7-0.4,1.4-0.9,1.9-1.5c0.5-0.6,0.9-1.4,1.2-2.2c0.3-1,0.5-2,0.6-3.1c0.1-1.2,0.1-2.7,0.1-4.4
			c0-1.2,0-2.2,0-3.1s-0.1-1.5-0.1-1.9h0.4h0.5l1.8,0.1c0.6,0,1.1,0,1.5,0c0,0.2-0.1,0.6-0.1,1.1s0,1.1-0.1,1.7s0,1.3,0,2
			c0,1.8-0.1,3.4-0.2,4.7c-0.1,1.2-0.3,2.4-0.6,3.6c-0.3,1-0.7,2-1.3,2.8c-0.6,0.9-1.4,1.7-2.3,2.3C189.4,87.9,188.2,88.6,187,89.1z
			"/>
		<path class="st3" d="M207.4,80.5c0-0.3,0-0.7,0-1.1s0-0.9,0-1.4s0-0.8,0-1.1l1.4,0.1h2.7h3.5h7.3c1.1,0,2,0,2.8,0s1.3-0.1,1.6-0.1
			c0,0.2,0,0.6,0,1.1s0,0.9,0,1.4s0,0.8,0,1.1l-1.7-0.1c-0.8,0-1.6,0-2.7-0.1c-1,0-2.1,0-3.3,0h-3.5c-1.2,0-2.3,0-3.4,0
			s-2,0-2.9,0.1S207.9,80.5,207.4,80.5z"/>
		<path class="st3" d="M238,88.2c-0.4-0.5-0.8-1-1.3-1.4c-0.5-0.5-1-0.9-1.5-1.3c1.4-0.6,2.7-1.4,3.9-2.2c1.2-0.9,2.4-1.8,3.5-2.9
			c1-1,2-2.1,2.8-3.2c0.7-1,1.4-2.1,1.9-3.2h-1.5h-2.2c-0.8,0-1.6,0-2.5,0.1l-2.3,0.1c-0.7,0-1.2,0.1-1.6,0.1c0-0.3,0-0.7-0.1-1.2
			c0-0.5,0-0.9,0-1.4s0-0.9-0.1-1.2c0.5,0,1.1,0,1.8,0.1s1.6,0,2.5,0s1.8,0,2.8,0s1.9,0,2.7,0s1.6-0.1,2.3-0.1s1.2-0.1,1.6-0.1
			l0.5,0.5l0.6,0.6c0.2,0.2,0.4,0.3,0.5,0.4c-0.3,0.3-0.5,0.7-0.6,1.1c-0.2,0.4-0.4,0.8-0.6,1.2c-0.4,0.9-0.8,1.7-1.3,2.6
			c-0.5,0.8-1,1.7-1.6,2.5c0.5,0.3,1.1,0.7,1.7,1.2s1.3,1,2,1.6s1.3,1.1,1.9,1.6c0.5,0.4,1,0.9,1.4,1.4c-0.2,0.2-0.6,0.4-0.9,0.8
			s-0.8,0.7-1.2,1.1c-0.3,0.3-0.6,0.5-0.8,0.8c-0.3-0.4-0.7-0.8-1.3-1.3c-0.5-0.5-1.1-1.1-1.7-1.6s-1.2-1.1-1.8-1.6
			s-1.1-0.9-1.5-1.2c-1.2,1.2-2.4,2.4-3.8,3.5C241,86.4,239.5,87.4,238,88.2z"/>
		<path class="st3" d="M267,89.3v-6.8c-0.4,0.6-0.9,1.1-1.3,1.6c-0.4,0.5-0.8,0.9-1.3,1.3c-0.3-0.4-0.7-0.8-1.1-1.2
			c-0.4-0.4-0.8-0.7-1.2-0.9c0.6-0.5,1.1-1,1.6-1.5c0.6-0.6,1.1-1.2,1.6-1.9c0.5-0.6,0.9-1.3,1.3-2h-3.4V75h3.9v-7.1h3.1V75h3.2v3
			h-3.1c0.3,0.3,0.7,0.7,1.1,1.2s0.9,0.8,1.3,1.2s0.8,0.7,1.1,0.9c-0.1,0.1-0.1,0.1-0.2,0.2l-0.2,0.2c0.8-0.1,1.6-0.2,2.7-0.4
			s2.1-0.3,3.1-0.5v-7.5c-0.3,0.3-0.6,0.6-1,0.9c-0.3,0.3-0.5,0.6-0.8,0.9c-0.3-0.3-0.6-0.7-1-1s-0.8-0.7-1.2-1.1
			c-0.4-0.3-0.8-0.6-1.2-0.9l2.1-2.2c0.5,0.3,1,0.7,1.5,1.1c0.5,0.5,1,0.9,1.4,1.4v-4.5h3.2v12.3c0.5-0.1,0.9-0.2,1.3-0.3l1-0.2
			l0.2,3.1L284,83c-0.4,0.1-0.9,0.2-1.4,0.3v6h-3.2V84l-3.2,0.6c-1,0.2-1.9,0.3-2.6,0.4l-0.6-2.6l-0.5,0.7c-0.1,0.2-0.3,0.4-0.4,0.6
			c-0.7-0.6-1.3-1.2-1.9-1.8v7.5L267,89.3z M264.2,74.7c-0.1-0.4-0.2-0.8-0.3-1.4s-0.4-1.1-0.5-1.6c-0.2-0.4-0.3-0.9-0.6-1.3l2.6-1
			c0.2,0.4,0.4,0.8,0.6,1.3c0.2,0.6,0.4,1.1,0.6,1.7s0.3,1,0.4,1.4c-0.5,0.1-1,0.2-1.5,0.4C265,74.3,264.6,74.5,264.2,74.7z
			 M272.9,74.7c-0.4-0.2-0.8-0.4-1.3-0.6c-0.4-0.2-0.9-0.3-1.3-0.4c0.2-0.3,0.3-0.7,0.5-1.2s0.4-1.1,0.6-1.6
			c0.2-0.5,0.3-0.9,0.4-1.4l2.7,0.8c-0.1,0.3-0.2,0.6-0.3,1.1s-0.3,0.9-0.5,1.3s-0.3,0.9-0.5,1.3S273,74.5,272.9,74.7L272.9,74.7z
			 M277,80.3c-0.4-0.5-0.9-1-1.5-1.6c-0.6-0.5-1.2-1-1.8-1.4l2-2.2c0.4,0.2,0.8,0.5,1.2,0.9s0.9,0.7,1.3,1.1s0.8,0.7,1,1
			c-0.4,0.3-0.8,0.7-1.1,1.1C277.7,79.5,277.3,79.9,277,80.3z"/>
	</g>
</g>
</svg>
