<svg xmlns="http://www.w3.org/2000/svg" viewBox="0 0 100.55 78.93"><defs><style>.cls-1,.cls-4{fill:#fff;}.cls-1,.cls-3,.cls-5,.cls-6{stroke:#333;}.cls-1,.cls-3,.cls-5,.cls-6,.cls-7,.cls-8{stroke-miterlimit:10;}.cls-1,.cls-5,.cls-6,.cls-7,.cls-8{stroke-width:3px;}.cls-2,.cls-7{fill:#f08861;}.cls-3{fill:#333;}.cls-5,.cls-8{fill:none;}.cls-5,.cls-6,.cls-7,.cls-8{stroke-linecap:round;}.cls-6{fill:red;}.cls-7,.cls-8{stroke:#f08861;}</style></defs><g id="レイヤー_2" data-name="レイヤー 2"><g id="レイヤー_1-2" data-name="レイヤー 1"><polygon class="cls-1" points="89.98 51.52 38.87 51.52 43.6 43.75 50.38 40.86 80.52 41.35 90.4 44.95 89.98 51.52"/><polygon class="cls-2" points="96.19 70.01 9.93 70.29 14.31 56.03 36.9 52.79 84.05 51.52 90.83 46.01 97.46 50.53 98.59 65.49 96.19 70.01"/><path class="cls-3" d="M10.18,72h-.07A1,1,0,0,1,9.18,71c0-.47.88-11.51,4.86-15,3-2.64,14-3.79,20.2-4.24a5.82,5.82,0,0,0,3.26-1.3C38.3,49.16,44,40.49,50,39.92c5.71-.55,25.12-.41,30.36.38s15.21,6.17,17.26,9.39c1.45,2.28,1.22,6.44.76,9.52a2.74,2.74,0,0,0,.47,2l.06.1A9,9,0,0,1,100,65.73c0,.41-.19,1.65-3.22,4.8a3.67,3.67,0,0,1-2.62,1.12h0l-2.54,0a1,1,0,1,1,0-2h0l2.55,0h0a1.66,1.66,0,0,0,1.18-.51C97.25,67.18,98,66,98,65.5a7,7,0,0,0-.87-3.24,4.73,4.73,0,0,1-.77-3.33c.56-3.78.38-6.83-.47-8.16C94.2,48.06,84.71,43,80.05,42.28s-23.76-1-29.87-.37c-5.32.51-11,9.61-11.06,9.71l-.2.23a7.76,7.76,0,0,1-4.54,1.87c-10.05.73-17.16,2.13-19,3.76-2.79,2.44-4,10.66-4.17,13.62A1,1,0,0,1,10.18,72Z"/><path class="cls-3" d="M80.77,53.21c-44.17,0-43.88-.08-44.06-.13A1,1,0,0,1,36,51.87a1,1,0,0,1,1.08-.75c1.2.06,24,.09,43.7.09,2.75,0,5.2-2.42,5.22-2.44a1,1,0,0,1,1.41,1.41C87.28,50.31,84.34,53.21,80.77,53.21Z"/><path class="cls-3" d="M65.76,71.18H37.4a1,1,0,0,1,0-2H65.76a1,1,0,0,1,0,2Z"/><circle class="cls-4" cx="24.27" cy="70.01" r="7.42"/><path class="cls-3" d="M24.27,78.43A8.42,8.42,0,1,1,32.69,70,8.43,8.43,0,0,1,24.27,78.43Zm0-14.84A6.42,6.42,0,1,0,30.69,70,6.43,6.43,0,0,0,24.27,63.59Z"/><circle class="cls-4" cx="78.76" cy="70.01" r="7.42"/><path class="cls-3" d="M78.76,78.43A8.42,8.42,0,1,1,87.18,70,8.43,8.43,0,0,1,78.76,78.43Zm0-14.84A6.42,6.42,0,1,0,85.18,70,6.43,6.43,0,0,0,78.76,63.59Z"/><path class="cls-3" d="M94.75,48.93a1,1,0,0,1-1-.75c-.58-2.17,2.15-5.49,4-6.58-3.28.31-12,1.48-15.5,1.25a1,1,0,1,1,.14-2c3.9.25,13.31-.91,15.36-1.14a1.81,1.81,0,0,1,1.72.8c.37.58.46,1.6,0,1.9s-4,4.37-3.8,5.25A1,1,0,0,1,95,48.89.78.78,0,0,1,94.75,48.93Z"/><path class="cls-5" d="M1.91,30.43s5.3-.09,5.58-.4c1.77-1.9,8.3-9,9.34-10.56,1.21-1.84.57-5.17,2.76-5.17s3.22,3.16,2.87,5.4S19,24.87,19.7,25.91c.63.87,8.41,1.65,10.89,1.88a2.09,2.09,0,0,1,1.49.81,2.63,2.63,0,0,1,.61,2.14,3.85,3.85,0,0,1-1.36,2.12,2.79,2.79,0,0,0-.72.85l-4.89,7.86a2,2,0,0,1-.85.83l-2.24,1.08a1.8,1.8,0,0,1-1.12.14L10.15,41.45a13,13,0,0,0-2.86-.23l-5.79.1"/><line class="cls-6" x1="28.97" y1="32.71" x2="30.93" y2="33.1"/><line class="cls-6" x1="26.52" y1="36.6" x2="28.14" y2="36.98"/><line class="cls-7" x1="13.33" y1="11.11" x2="8.52" y2="6.29"/><line class="cls-8" x1="20.09" y1="8.31" x2="20.09" y2="1.5"/><line class="cls-8" x1="20.09" y1="8.31" x2="20.09" y2="1.5"/><line class="cls-7" x1="26.85" y1="11.11" x2="31.67" y2="6.29"/></g></g></svg>