<svg xmlns="http://www.w3.org/2000/svg" viewBox="0 0 65.68 82.15"><defs><style>.cls-1,.cls-3{fill:#333;}.cls-1,.cls-3,.cls-4{stroke:#333;}.cls-1,.cls-4{stroke-miterlimit:10;}.cls-2{fill:#f08861;}.cls-3{stroke-linecap:round;stroke-linejoin:round;}.cls-4{fill:none;stroke-width:3px;}</style></defs><g id="レイヤー_2" data-name="レイヤー 2"><g id="レイヤー_1-2" data-name="レイヤー 1"><path class="cls-1" d="M61.18,81.65H4.5a4,4,0,0,1-4-4v-53a1,1,0,0,1,2,0v53a2,2,0,0,0,2,2H61.18a2,2,0,0,0,2-2v-20a1,1,0,0,1,2,0v20A4,4,0,0,1,61.18,81.65Z"/><path class="cls-1" d="M64.18,59.39a1,1,0,0,1-1-1V4.5a2,2,0,0,0-2-2H24.94a1,1,0,0,1,0-2H61.18a4,4,0,0,1,4,4V58.39A1,1,0,0,1,64.18,59.39Z"/><path class="cls-2" d="M24.75,1.5V21.65a3,3,0,0,1-3.1,3H1.5Z"/><path class="cls-3" d="M21.65,25.65H1.5A1,1,0,0,1,.58,25a1,1,0,0,1,.21-1.09L24,.79a1,1,0,0,1,1.71.71V21.65A4,4,0,0,1,21.65,25.65Zm-17.73-2H21.65a2,2,0,0,0,2.1-2V3.91Z"/><path class="cls-1" d="M53.55,32.63H29.23a1,1,0,1,1,0-2H53.55a1,1,0,0,1,0,2Z"/><path class="cls-1" d="M40.1,37.74H29.23a1,1,0,1,1,0-2H40.1a1,1,0,0,1,0,2Z"/><rect class="cls-4" x="12.43" y="31.29" width="9.46" height="8.05" rx="1.51"/><rect class="cls-2" x="12.43" y="31.29" width="9.46" height="8.05" rx="1.51"/><path class="cls-1" d="M53.55,49.57H29.23a1,1,0,1,1,0-2H53.55a1,1,0,0,1,0,2Z"/><path class="cls-1" d="M44.15,54.68H29.23a1,1,0,1,1,0-2H44.15a1,1,0,0,1,0,2Z"/><rect class="cls-4" x="12.43" y="48.23" width="9.46" height="8.05" rx="1.51"/><rect class="cls-2" x="12.43" y="48.23" width="9.46" height="8.05" rx="1.51"/><path class="cls-1" d="M53.55,66.86H29.23a1,1,0,0,1,0-2H53.55a1,1,0,0,1,0,2Z"/><path class="cls-1" d="M41.22,72h-12a1,1,0,0,1,0-2h12a1,1,0,0,1,0,2Z"/><rect class="cls-4" x="12.43" y="65.52" width="9.46" height="8.05" rx="1.51"/><rect class="cls-2" x="12.43" y="65.52" width="9.46" height="8.05" rx="1.51"/></g></g></svg>