<svg xmlns="http://www.w3.org/2000/svg" viewBox="0 0 91.87 39.84"><defs><style>.cls-1{fill:#333;stroke:#333;stroke-miterlimit:10;}.cls-2{fill:#f08861;}</style></defs><g id="レイヤー_2" data-name="レイヤー 2"><g id="レイヤー_1-2" data-name="レイヤー 1"><path class="cls-1" d="M1.5,32.94H1.43A1,1,0,0,1,.5,31.87c0-.47.88-11.51,4.86-15,3-2.64,14-3.79,20.2-4.24a5.82,5.82,0,0,0,3.26-1.3c.8-1.26,6.52-9.94,12.49-10.51C47,.28,66.43.42,71.67,1.21s15.21,6.17,17.26,9.4c1.45,2.28,1.22,6.43.76,9.52a2.72,2.72,0,0,0,.47,1.95l.06.1a9,9,0,0,1,1.12,4.46c0,.41-.19,1.65-3.22,4.8a3.66,3.66,0,0,1-2.62,1.12h0l-2.54,0a1,1,0,0,1-1-1,1,1,0,0,1,1-1h0l2.55,0h0a1.62,1.62,0,0,0,1.18-.51c1.89-2,2.62-3.18,2.67-3.63a7.09,7.09,0,0,0-.87-3.25,4.73,4.73,0,0,1-.76-3.33c.55-3.78.37-6.83-.48-8.16C85.52,9,76,3.89,71.37,3.19s-23.76-1-29.87-.37c-5.32.51-11,9.62-11.06,9.71l-.2.23a7.7,7.7,0,0,1-4.54,1.87c-10,.73-17.16,2.13-19,3.76C3.88,20.83,2.71,29.05,2.5,32A1,1,0,0,1,1.5,32.94Z"/><path class="cls-1" d="M72.09,14.12C27.92,14.12,28.21,14,28,14a1,1,0,0,1,.36-2c1.2.07,24,.09,43.7.09,2.75,0,5.2-2.41,5.22-2.44a1,1,0,0,1,1.41,1.42C78.6,11.22,75.66,14.12,72.09,14.12Z"/><path class="cls-1" d="M57.08,32.1H28.72a1,1,0,0,1,0-2H57.08a1,1,0,0,1,0,2Z"/><circle class="cls-2" cx="15.59" cy="30.92" r="7.42"/><path class="cls-1" d="M15.59,39.34A8.42,8.42,0,1,1,24,30.92,8.43,8.43,0,0,1,15.59,39.34Zm0-14.83A6.42,6.42,0,1,0,22,30.92,6.43,6.43,0,0,0,15.59,24.51Z"/><circle class="cls-2" cx="70.08" cy="30.92" r="7.42"/><path class="cls-1" d="M70.08,39.34a8.42,8.42,0,1,1,8.42-8.42A8.43,8.43,0,0,1,70.08,39.34Zm0-14.83a6.42,6.42,0,1,0,6.42,6.41A6.43,6.43,0,0,0,70.08,24.51Z"/><path class="cls-1" d="M86.07,9.84a1,1,0,0,1-1-.74c-.58-2.17,2.15-5.49,4-6.59-3.28.31-12,1.49-15.5,1.25a1,1,0,1,1,.14-2C77.61,2,87,.86,89.07.63a1.82,1.82,0,0,1,1.72.81c.37.57.46,1.59,0,1.9s-4,4.36-3.8,5.24a1,1,0,0,1-.71,1.23A1.15,1.15,0,0,1,86.07,9.84Z"/></g></g></svg>