<svg xmlns="http://www.w3.org/2000/svg" viewBox="0 0 65.69 71.29"><defs><style>.cls-1,.cls-4{fill:#333;}.cls-1,.cls-2{stroke:#333;stroke-miterlimit:10;}.cls-2{fill:none;stroke-width:3px;}.cls-3{fill:#f08861;}</style></defs><g id="レイヤー_2" data-name="レイヤー 2"><g id="レイヤー_1-2" data-name="レイヤー 1"><path class="cls-1" d="M32.84,70.79C25.26,70.79.5,69.44.5,52,.5,45,2.57,43,5.71,39.79a30.57,30.57,0,0,0,7.8-11.43c3.09-8,8.15-10.87,19.33-10.87s16.25,2.84,19.34,10.87A30.5,30.5,0,0,0,60,39.78C63.12,42.94,65.19,45,65.19,52,65.19,69.44,40.43,70.79,32.84,70.79Zm0-51.3c-10.42,0-14.67,2.33-17.47,9.59a32.15,32.15,0,0,1-8.23,12.1c-3,3-4.64,4.68-4.64,10.8,0,15.6,23.23,16.81,30.34,16.81S63.19,67.58,63.19,52c0-6.13-1.65-7.78-4.63-10.78a32.38,32.38,0,0,1-8.25-12.12C47.52,21.82,43.27,19.49,32.84,19.49Z"/><path class="cls-1" d="M6.35,41.19a1,1,0,0,1-1-1c0-1-.11-4.09-.1-5.25a24,24,0,0,1,1.06-7.52L6.44,27C7.3,24.4,8.75,20,11.38,17.49A23.17,23.17,0,0,1,22,11.91a46.46,46.46,0,0,1,10.73-1.1,46.59,46.59,0,0,1,10.74,1.1,23.19,23.19,0,0,1,10.65,5.58c2.64,2.49,4.08,6.91,5,9.55l.13.41A24,24,0,0,1,60.3,35c0,.7-.09,2-.16,3.09,0,.71-.1,1.35-.11,1.73a1,1,0,0,1-2-.07c0-.4.06-1.06.11-1.79.08-1.09.16-2.32.16-3a22.07,22.07,0,0,0-1-6.9l-.13-.41c-.81-2.47-2.16-6.59-4.42-8.72A21.3,21.3,0,0,0,43,13.85a46.22,46.22,0,0,0-10.26-1H32.7a43.12,43.12,0,0,0-10.18,1A21.29,21.29,0,0,0,12.75,19c-2.26,2.13-3.6,6.25-4.41,8.72l-.13.41a22.07,22.07,0,0,0-1,6.9c0,1.12.07,4.24.1,5.17a1,1,0,0,1-1,1Z"/><path class="cls-2" d="M31.16,58.13V52.94H25.49V49.72h5.67V48.49l-.45-.8H25.49V44.43h3.29l-5.26-8.86h4.94L33.29,44l4.84-8.47H43L37.8,44.43h3.26v3.26H35.87l-.48.8v1.23h5.67v3.22H35.39v5.19Z"/><path class="cls-3" d="M31.16,58.13V52.94H25.49V49.72h5.67V48.49l-.45-.8H25.49V44.43h3.29l-5.26-8.86h4.94L33.29,44l4.84-8.47H43L37.8,44.43h3.26v3.26H35.87l-.48.8v1.23h5.67v3.22H35.39v5.19Z"/><circle class="cls-3" cx="27.63" cy="6.21" r="4.96"/><path class="cls-4" d="M27.63,12.42a6.21,6.21,0,1,1,6.21-6.21A6.22,6.22,0,0,1,27.63,12.42Zm0-9.92a3.72,3.72,0,1,0,3.72,3.71A3.72,3.72,0,0,0,27.63,2.5Z"/><circle class="cls-3" cx="37.96" cy="6.21" r="4.96"/><path class="cls-4" d="M38,12.42a6.21,6.21,0,1,1,6.22-6.21A6.22,6.22,0,0,1,38,12.42ZM38,2.5a3.72,3.72,0,1,0,3.72,3.71A3.71,3.71,0,0,0,38,2.5Z"/></g></g></svg>