<svg xmlns="http://www.w3.org/2000/svg" viewBox="0 0 117.43 63.98"><defs><style>.cls-1{fill:#333;}.cls-1,.cls-4,.cls-6{stroke:#333;}.cls-1,.cls-6,.cls-7{stroke-miterlimit:10;}.cls-2,.cls-6,.cls-7{fill:#f08861;}.cls-3{fill:#fff;}.cls-4{fill:none;stroke-linecap:round;stroke-linejoin:round;stroke-width:2px;}.cls-5{fill:#53b9dd;}.cls-7{stroke:#f08861;}</style></defs><g id="レイヤー_2" data-name="レイヤー 2"><g id="レイヤー_1-2" data-name="レイヤー 1"><path class="cls-1" d="M27.07,57.08H27A1,1,0,0,1,26.07,56c0-.47.87-11.51,4.86-15,3-2.64,14-3.79,20.19-4.24a5.82,5.82,0,0,0,3.27-1.3c.8-1.26,6.51-9.94,12.49-10.51,5.7-.55,25.12-.41,30.36.38s15.21,6.17,17.26,9.4c1.6,2.52,1.14,7.34.61,10.47l.68,1.1a9.13,9.13,0,0,1,1.12,4.47c-.06.45-.23,1.93-4.34,5.91H111l-2.55,0a1,1,0,0,1,0-2h0l2.54,0h0a1.63,1.63,0,0,0,1.19-.51c1.89-2,2.62-3.18,2.67-3.63a7.21,7.21,0,0,0-.87-3.25,4.68,4.68,0,0,1-.77-3.33c.55-3.78.38-6.83-.47-8.16-1.72-2.71-11.21-7.79-15.87-8.49S73.18,26.38,67.07,27c-5.32.51-11,9.62-11.07,9.71l-.2.23a7.77,7.77,0,0,1-4.53,1.88c-10.05.72-17.17,2.12-19,3.75-2.79,2.44-4,10.66-4.18,13.63A1,1,0,0,1,27.07,57.08Z"/><path class="cls-1" d="M97.65,38.26c-44.17,0-43.88-.08-44.05-.12a1,1,0,0,1,.36-2c1.2.07,24,.09,43.69.09,2.76,0,5.2-2.41,5.23-2.44a1,1,0,0,1,1.41,0,1,1,0,0,1,0,1.42C104.17,35.36,101.23,38.26,97.65,38.26Z"/><path class="cls-1" d="M82.65,56.24H54.28a1,1,0,0,1,0-2H82.65a1,1,0,0,1,0,2Z"/><circle class="cls-2" cx="41.15" cy="55.07" r="7.42"/><path class="cls-1" d="M47.31,61.22c-9,6.9-19.21-3.34-12.31-12.31C44,42,54.2,52.25,47.31,61.22ZM45.85,50.37C39,45.12,31.2,52.92,36.46,59.76,43.3,65,51.1,57.21,45.85,50.37Z"/><circle class="cls-2" cx="95.65" cy="55.07" r="7.42"/><path class="cls-1" d="M101.8,61.22c-9,6.89-19.2-3.34-12.31-12.31h0C98.46,42,108.7,52.25,101.8,61.22Zm-1.46-10.85C93.5,45.11,85.7,52.92,91,59.76,97.8,65,105.6,57.21,100.34,50.37Z"/><path class="cls-1" d="M111.64,34a1,1,0,0,1-1-.74c-.57-2.17,2.16-5.49,4-6.59-3.28.31-12,1.49-15.5,1.25a1,1,0,0,1,.13-2c3.91.26,13.32-.91,15.37-1.14a1.79,1.79,0,0,1,1.71.81c.38.57.47,1.59.06,1.9s-4,4.36-3.8,5.24A1,1,0,0,1,111.9,34Z"/><path class="cls-1" d="M8.21,30.82a.57.57,0,0,1-.06-1.14l41.76-4.83a1,1,0,0,0,.67-.37,1,1,0,0,0,.21-.74L48.62,5a.57.57,0,0,1,.5-.63.57.57,0,0,1,.63.5l2.17,18.72a2.19,2.19,0,0,1-.45,1.58A2.09,2.09,0,0,1,50,26L8.28,30.81Z"/><path class="cls-1" d="M11.63,33.37a.57.57,0,0,1-.07-1.13l41.76-4.83a1,1,0,0,0,.88-1.11L52,7.57a.56.56,0,0,1,.5-.63.58.58,0,0,1,.63.5l2.16,18.73a2.08,2.08,0,0,1-.45,1.57,2.12,2.12,0,0,1-1.43.8L11.69,33.37Z"/><rect class="cls-3" x="2" y="3.41" width="45.18" height="21.99" rx="3" transform="translate(-1.49 2.92) rotate(-6.6)"/><path class="cls-1" d="M4.91,28.3a2.27,2.27,0,0,1-2.26-2L.52,7.83a2.27,2.27,0,0,1,2-2.52L44,.52A2.25,2.25,0,0,1,45.68,1a2.29,2.29,0,0,1,.84,1.52L48.66,21a2.24,2.24,0,0,1-.48,1.67,2.26,2.26,0,0,1-1.52.85h0L5.17,28.29ZM44.27,1.64h-.14L2.64,6.44a1.16,1.16,0,0,0-.76.43,1.12,1.12,0,0,0-.24.83L3.78,26.16a1.14,1.14,0,0,0,1.26,1l41.49-4.8a1.1,1.1,0,0,0,.76-.42,1.16,1.16,0,0,0,.24-.84L45.39,2.64A1.1,1.1,0,0,0,45,1.88,1.12,1.12,0,0,0,44.27,1.64Zm2.32,21.29h0Z"/><path class="cls-1" d="M8.5,25.33a.56.56,0,0,1-.56-.5A2.15,2.15,0,0,0,5.6,23a.57.57,0,0,1-.62-.5L3.66,11a.56.56,0,0,1,.49-.63A2.13,2.13,0,0,0,6,8a.56.56,0,0,1,.5-.62L40.55,3.48a.56.56,0,0,1,.63.49,2.15,2.15,0,0,0,2.35,1.85h0a.59.59,0,0,1,.62.5l1.32,11.43a.58.58,0,0,1-.5.63,2.15,2.15,0,0,0-1.87,2.37.56.56,0,0,1-.12.43.59.59,0,0,1-.37.22L8.57,25.33ZM6.05,21.82A3.29,3.29,0,0,1,9,24.14L42,20.32a3.29,3.29,0,0,1,2.32-3L43.12,7a3.28,3.28,0,0,1-2.95-2.29l-33,3.82a3.25,3.25,0,0,1-2.29,2.89Z"/><path class="cls-4" d="M24.26,19,24,16.9l-2.32.27-.15-1.32,2.32-.27-.06-.5-.22-.31L21.44,15l-.15-1.33,1.35-.16-2.57-3.37,2-.24,2.38,3.24L26,9.46l2-.23-1.71,3.88L27.66,13l.15,1.33-2.12.25-.16.35.06.5,2.32-.27.15,1.32-2.32.27L26,18.82Z"/><path class="cls-5" d="M24.26,19,24,16.9l-2.32.27-.15-1.32,2.32-.27-.06-.5-.22-.31L21.44,15l-.15-1.33,1.35-.16-2.57-3.37,2-.24,2.38,3.24L26,9.46l2-.23-1.71,3.88L27.66,13l.15,1.33-2.12.25-.16.35.06.5,2.32-.27.15,1.32-2.32.27L26,18.82Z"/><path class="cls-6" d="M24.26,19,24,16.9l-2.32.27-.15-1.32,2.32-.27-.06-.5-.22-.31L21.44,15l-.15-1.33,1.35-.16-2.57-3.37,2-.24,2.38,3.24L26,9.46l2-.23-1.71,3.88L27.66,13l.15,1.33-2.12.25-.16.35.06.5,2.32-.27.15,1.32-2.32.27L26,18.82Z"/><path class="cls-7" d="M32.89,14a.57.57,0,0,1-.06-1.13l6-.69a.55.55,0,0,1,.63.5.57.57,0,0,1-.5.63L33,14Z"/><path class="cls-7" d="M10.69,16.58a.57.57,0,0,1-.57-.5.57.57,0,0,1,.5-.63l6-.69a.56.56,0,1,1,.13,1.12l-6,.69Z"/></g></g></svg>