<svg xmlns="http://www.w3.org/2000/svg" viewBox="0 0 113.7 59.9"><defs><style>.cls-1{fill:#333;}.cls-1,.cls-3,.cls-4,.cls-5,.cls-6{stroke:#333;}.cls-1,.cls-3,.cls-4,.cls-5{stroke-miterlimit:10;}.cls-2,.cls-6{fill:#f08861;}.cls-3{fill:#f5f4e9;}.cls-3,.cls-6{stroke-linecap:round;}.cls-3,.cls-4,.cls-5{stroke-width:3px;}.cls-4{fill:none;}.cls-5{fill:#fff;}.cls-6{stroke-linejoin:round;stroke-width:2px;}</style></defs><g id="レイヤー_2" data-name="レイヤー 2"><g id="レイヤー_1-2" data-name="レイヤー 1"><path class="cls-1" d="M1.5,53H1.43A1,1,0,0,1,.5,51.93c0-.47.88-11.51,4.86-15,3-2.64,14-3.79,20.2-4.24a5.82,5.82,0,0,0,3.26-1.3c.8-1.26,6.52-9.94,12.49-10.51,5.71-.55,25.12-.41,30.36.38s15.21,6.17,17.26,9.4c1.6,2.52,1.15,7.34.61,10.47l.68,1.1a9,9,0,0,1,1.12,4.46c0,.46-.22,1.94-4.34,5.92H85.47l-2.54,0a1,1,0,0,1-1-1,1,1,0,0,1,1-1h0l2.55,0h0a1.62,1.62,0,0,0,1.18-.51c1.89-2,2.62-3.18,2.67-3.63a7.09,7.09,0,0,0-.87-3.25,4.73,4.73,0,0,1-.76-3.33c.55-3.78.37-6.83-.48-8.16C85.52,29,76,24,71.37,23.25s-23.76-1-29.87-.37c-5.32.51-11,9.62-11.06,9.71l-.2.23a7.7,7.7,0,0,1-4.54,1.87c-10,.73-17.16,2.13-19,3.76-2.8,2.44-4,10.66-4.18,13.63A1,1,0,0,1,1.5,53Z"/><path class="cls-1" d="M72.09,34.18c-44.17,0-43.88-.08-44.06-.12a1,1,0,0,1,.36-2c1.2.07,24,.09,43.7.09,2.75,0,5.2-2.41,5.22-2.44a1,1,0,1,1,1.41,1.42C78.6,31.28,75.66,34.18,72.09,34.18Z"/><path class="cls-1" d="M57.08,52.16H28.72a1,1,0,0,1,0-2H57.08a1,1,0,0,1,0,2Z"/><circle class="cls-2" cx="15.59" cy="50.98" r="7.42"/><path class="cls-1" d="M21.74,57.14c-9,6.9-19.2-3.34-12.31-12.31,9-6.89,19.21,3.34,12.31,12.31ZM20.28,46.29C13.44,41,5.64,48.84,10.9,55.68,17.73,60.94,25.54,53.13,20.28,46.29Z"/><circle class="cls-2" cx="70.08" cy="50.98" r="7.42"/><path class="cls-1" d="M76.24,57.14C67.27,64,57,53.8,63.92,44.83h0C72.9,37.93,83.13,48.17,76.24,57.14ZM74.77,46.29c-6.83-5.26-14.64,2.55-9.38,9.39C72.23,60.94,80,53.13,74.77,46.29Z"/><path class="cls-1" d="M86.07,29.9a1,1,0,0,1-1-.74c-.58-2.17,2.15-5.49,4-6.59-3.28.31-12,1.49-15.5,1.25a1,1,0,1,1,.14-2c3.9.26,13.31-.91,15.36-1.14a1.82,1.82,0,0,1,1.72.81c.37.57.46,1.59,0,1.9s-4,4.36-3.8,5.24a1,1,0,0,1-.71,1.23A1.15,1.15,0,0,1,86.07,29.9Z"/><path class="cls-3" d="M37.56,12.1l2.22,4.43a1.9,1.9,0,0,0,1.36.59H72.33a2.45,2.45,0,0,0,2.25-1.48l1.81-4.48"/><rect class="cls-4" x="51.88" y="1.5" width="19.16" height="15.47" rx="1.06"/><rect class="cls-5" x="43.19" y="7.93" width="17.08" height="9.04" rx="1.44"/><line class="cls-6" x1="87.85" y1="34.56" x2="112.7" y2="34.56"/><line class="cls-6" x1="83.61" y1="39.74" x2="108.46" y2="39.74"/><line class="cls-6" x1="80.41" y1="45.1" x2="105.26" y2="45.1"/></g></g></svg>