<svg xmlns="http://www.w3.org/2000/svg" viewBox="0 0 249.41 113.06"><defs><style>.cls-1,.cls-4{fill:#fff;}.cls-1,.cls-3,.cls-5,.cls-6,.cls-7,.cls-8{stroke:#333;}.cls-1,.cls-3,.cls-5,.cls-6,.cls-8{stroke-miterlimit:10;}.cls-1,.cls-6,.cls-7,.cls-8{stroke-width:3px;}.cls-2{fill:#f08861;}.cls-3{fill:#333;}.cls-5,.cls-6,.cls-7,.cls-8{fill:none;}.cls-5{stroke-width:4px;}.cls-6,.cls-7{stroke-linecap:round;}.cls-7{stroke-linejoin:round;}</style></defs><g id="レイヤー_2" data-name="レイヤー 2"><g id="レイヤー_1-2" data-name="レイヤー 1"><polygon class="cls-1" points="220.33 33.34 169.22 33.34 173.95 25.57 180.73 22.68 210.87 23.17 220.75 26.77 220.33 33.34"/><polygon class="cls-2" points="226.54 51.83 140.28 52.12 144.66 37.86 167.25 34.61 214.4 33.34 221.18 27.83 227.81 32.35 228.94 47.31 226.54 51.83"/><path class="cls-3" d="M140.53,53.85h-.07a1,1,0,0,1-.93-1.07c0-.47.88-11.51,4.86-15,3-2.64,14-3.79,20.2-4.24a5.82,5.82,0,0,0,3.26-1.3c.8-1.26,6.52-9.94,12.49-10.51,5.71-.55,25.12-.41,30.36.38s15.21,6.17,17.26,9.39c1.45,2.28,1.22,6.44.76,9.53a2.72,2.72,0,0,0,.47,2l.06.1a9,9,0,0,1,1.12,4.46c-.05.41-.19,1.65-3.22,4.8a3.67,3.67,0,0,1-2.62,1.12h0l-2.54,0a1,1,0,1,1,0-2h0l2.55,0h0a1.66,1.66,0,0,0,1.18-.51c1.89-2,2.62-3.18,2.67-3.63a7.09,7.09,0,0,0-.87-3.25,4.73,4.73,0,0,1-.77-3.33c.56-3.78.38-6.83-.47-8.16-1.72-2.71-11.21-7.79-15.87-8.49s-23.76-1-29.87-.37c-5.32.51-11,9.62-11.06,9.71l-.2.23a7.76,7.76,0,0,1-4.54,1.87c-10,.73-17.16,2.13-19,3.76-2.79,2.44-4,10.66-4.17,13.62A1,1,0,0,1,140.53,53.85Z"/><path class="cls-3" d="M211.12,35C167,35,167.24,35,167.06,34.9a1,1,0,0,1,.36-2c1.2.06,24,.09,43.7.09,2.75,0,5.2-2.41,5.22-2.44A1,1,0,1,1,217.75,32C217.63,32.13,214.69,35,211.12,35Z"/><path class="cls-3" d="M196.11,53H167.75a1,1,0,0,1,0-2h28.36a1,1,0,0,1,0,2Z"/><circle class="cls-4" cx="154.62" cy="51.83" r="7.42"/><path class="cls-3" d="M154.62,60.25A8.42,8.42,0,1,1,163,51.83,8.43,8.43,0,0,1,154.62,60.25Zm0-14.84A6.42,6.42,0,1,0,161,51.83,6.43,6.43,0,0,0,154.62,45.41Z"/><circle class="cls-4" cx="209.11" cy="51.83" r="7.42"/><path class="cls-3" d="M209.11,60.25a8.42,8.42,0,1,1,8.42-8.42A8.43,8.43,0,0,1,209.11,60.25Zm0-14.84a6.42,6.42,0,1,0,6.42,6.42A6.43,6.43,0,0,0,209.11,45.41Z"/><path class="cls-3" d="M225.1,30.75a1,1,0,0,1-1-.75c-.58-2.16,2.15-5.48,4-6.58-3.28.31-12,1.49-15.5,1.25a1,1,0,1,1,.14-2c3.9.25,13.31-.91,15.36-1.14a1.81,1.81,0,0,1,1.72.8c.37.58.46,1.6.05,1.9s-4,4.37-3.8,5.25a1,1,0,0,1-.71,1.22A.78.78,0,0,1,225.1,30.75Z"/><path class="cls-5" d="M159.21,98.85l6.73,6.72a3.17,3.17,0,0,1-4.49,4.49l-6.74-6.71Z"/><path class="cls-2" d="M159.21,98.85l6.73,6.72a3.17,3.17,0,0,1-4.49,4.49l-6.74-6.71Z"/><path class="cls-5" d="M152.72,98.15l3.58-3.87c1.79-1.59,5.32.1,8.23-2.55a7.29,7.29,0,0,0,2.52-7.48.56.56,0,0,0-.22-.45l-.54-.44a.44.44,0,0,0-.34-.12.46.46,0,0,0-.32.18l-3.08,4a.43.43,0,0,1-.37.18l-1.12.08a.44.44,0,0,1-.27-.09l-2.16-1.84a.4.4,0,0,1-.16-.28l-.13-1a.42.42,0,0,1,.07-.31l2.89-3.93a.44.44,0,0,0-.05-.58l-.71-.55c-.13-.12-.29-.1-.5-.06-2,.39-5.4,2.32-6.26,5a9.3,9.3,0,0,0-.5,4,4.89,4.89,0,0,1-1,3.13l-15.05,14.45a.6.6,0,0,0-.08.08,3.17,3.17,0,0,0,0,4.46,3.21,3.21,0,0,0,4.49,0l.16-.18,10.93-11.81"/><path class="cls-4" d="M152.72,98.15l3.58-3.87c1.79-1.59,5.32.1,8.23-2.55a7.29,7.29,0,0,0,2.52-7.48.56.56,0,0,0-.22-.45l-.54-.44a.44.44,0,0,0-.34-.12.46.46,0,0,0-.32.18l-3.08,4a.43.43,0,0,1-.37.18l-1.12.08a.44.44,0,0,1-.27-.09l-2.16-1.84a.4.4,0,0,1-.16-.28l-.13-1a.42.42,0,0,1,.07-.31l2.89-3.93a.44.44,0,0,0-.05-.58l-.71-.55c-.13-.12-.29-.1-.5-.06-2,.39-5.4,2.32-6.26,5a9.3,9.3,0,0,0-.5,4,4.89,4.89,0,0,1-1,3.13l-15.05,14.45a.6.6,0,0,0-.08.08,3.17,3.17,0,0,0,0,4.46,3.21,3.21,0,0,0,4.49,0l.16-.18,10.93-11.81"/><path class="cls-5" d="M139.67,86.76,144.9,92l2.26-2.17-5.28-5.29-.64-2.87-4.71-2.86-1.29,1.29-1.3,1.3,2.87,4.71Z"/><path class="cls-2" d="M139.67,86.76,144.9,92l2.26-2.17-5.28-5.29-.64-2.87-4.71-2.86-1.29,1.29-1.3,1.3,2.87,4.71Z"/><path class="cls-3" d="M1.5,53.76H1.43A1,1,0,0,1,.5,52.68c0-.46.88-11.5,4.86-15,3-2.65,14-3.8,20.2-4.25a5.68,5.68,0,0,0,3.26-1.3c.8-1.26,6.52-9.93,12.49-10.51,5.71-.55,25.12-.4,30.36.39s15.21,6.16,17.26,9.39c1.6,2.52,1.15,7.35.61,10.47l.68,1.1a9.06,9.06,0,0,1,1.12,4.47c0,.45-.22,1.93-4.34,5.91H82.93a1,1,0,0,1,0-2H85.5a1.65,1.65,0,0,0,1.18-.5c1.89-2,2.62-3.19,2.67-3.64A7.09,7.09,0,0,0,88.48,44a4.73,4.73,0,0,1-.76-3.33c.55-3.77.37-6.82-.48-8.16C85.52,29.78,76,24.71,71.37,24s-23.76-.95-29.87-.37c-5.32.52-11,9.62-11.06,9.71l-.2.24a7.76,7.76,0,0,1-4.54,1.87c-10,.72-17.16,2.13-19,3.75-2.8,2.45-4,10.67-4.18,13.63A1,1,0,0,1,1.5,53.76Z"/><path class="cls-3" d="M72.09,34.93c-44.17,0-43.88-.08-44.06-.12a1,1,0,0,1-.72-1.21,1,1,0,0,1,1.08-.75c1.2.06,24,.08,43.7.08,2.75,0,5.2-2.41,5.22-2.43a1,1,0,0,1,1.41,0,1,1,0,0,1,0,1.41C78.6,32,75.66,34.93,72.09,34.93Z"/><path class="cls-3" d="M57.08,52.91H28.72a1,1,0,0,1,0-2H57.08a1,1,0,0,1,0,2Z"/><circle class="cls-2" cx="15.59" cy="51.74" r="7.42"/><path class="cls-3" d="M21.74,57.89c-9,6.9-19.2-3.34-12.31-12.31,9-6.89,19.21,3.34,12.31,12.31ZM20.28,47.05c-6.84-5.26-14.64,2.54-9.38,9.38C17.73,61.69,25.54,53.88,20.28,47.05Z"/><circle class="cls-2" cx="70.08" cy="51.74" r="7.42"/><path class="cls-3" d="M76.24,57.9c-9,6.89-19.21-3.34-12.32-12.32h0C72.9,38.69,83.13,48.92,76.24,57.9ZM74.77,47.05c-6.83-5.26-14.64,2.54-9.38,9.38C72.23,61.69,80,53.88,74.77,47.05Z"/><path class="cls-3" d="M86.07,30.65a1,1,0,0,1-1-.74c-.58-2.17,2.15-5.49,4-6.58-3.28.3-12,1.48-15.5,1.25a1,1,0,0,1,.14-2c3.9.26,13.31-.9,15.36-1.13a1.81,1.81,0,0,1,1.72.8c.37.58.46,1.59,0,1.9s-4,4.36-3.8,5.25a1,1,0,0,1-.71,1.22A1.15,1.15,0,0,1,86.07,30.65Z"/><path class="cls-6" d="M120.35,32.76l7,7a.39.39,0,0,1,0,.53l-7.12,7.12"/><line class="cls-6" x1="104.23" y1="40.03" x2="125.12" y2="40.03"/><path class="cls-7" d="M54.94,95.67v-6c0-2.41,1.61-4.36,3.59-4.36h40c2,0,3.6,2,3.6,4.36v6"/><path class="cls-7" d="M69.79,95.77l-13,0v11.91a3.6,3.6,0,0,0,3.59,3.6H96.74a3.6,3.6,0,0,0,3.6-3.6V95.75h-13"/><path class="cls-6" d="M70.23,83.87l1.82-4.33a1.89,1.89,0,0,1,1.74-1.15h9.56a1.88,1.88,0,0,1,1.75,1.18L86.87,84"/><rect class="cls-8" x="76.54" y="91.62" width="4.01" height="8.39" rx="0.43"/><rect class="cls-2" x="76.54" y="91.62" width="4.01" height="8.39" rx="0.43"/><line class="cls-6" x1="225.33" y1="7.56" x2="227.39" y2="1.5"/><line class="cls-6" x1="235.87" y1="14.31" x2="240.68" y2="10.09"/><line class="cls-6" x1="241.63" y1="25.43" x2="247.91" y2="24.18"/><line class="cls-6" x1="241.06" y1="37.93" x2="247.12" y2="39.99"/><line class="cls-6" x1="158.06" y1="23.87" x2="152.13" y2="21.45"/><line class="cls-6" x1="165.45" y1="13.79" x2="161.54" y2="8.73"/><line class="cls-6" x1="176.9" y1="8.76" x2="176.04" y2="2.42"/><line class="cls-6" x1="189.33" y1="10.12" x2="191.75" y2="4.2"/></g></g></svg>