<svg xmlns="http://www.w3.org/2000/svg" viewBox="0 0 105.11 46.58"><defs><style>.cls-1{fill:none;stroke-linecap:round;stroke-width:3px;}.cls-1,.cls-3{stroke:#333;stroke-miterlimit:10;}.cls-2{fill:#f08861;}.cls-3{fill:#333;}</style></defs><g id="レイヤー_2" data-name="レイヤー 2"><g id="レイヤー_1-2" data-name="レイヤー 1"><path class="cls-1" d="M6.86,37.8H3.21A1.71,1.71,0,0,1,1.5,36.08l.07-12a11.59,11.59,0,0,1,1.82-6.19l8.89-14a1.73,1.73,0,0,1,1.45-.79L30.86,1.5H97.49c1.3,0,3.16,1.66,3.58,2.89a49.1,49.1,0,0,1,2.07,15.06c0,4.9-.25,9.17-.25,9.17a9.19,9.19,0,0,0,.53,3.05,1.39,1.39,0,0,1,.19.72l0,1.64a3.12,3.12,0,0,1-.63,1.48s-2.88,2.15-3.87,2.15H95.33"/><line class="cls-1" x1="34.06" y1="37.24" x2="68.13" y2="37.24"/><circle class="cls-2" cx="20.22" cy="37.66" r="7.42"/><path class="cls-3" d="M20.22,46.08a8.42,8.42,0,1,1,8.42-8.42A8.43,8.43,0,0,1,20.22,46.08Zm0-14.84a6.42,6.42,0,1,0,6.42,6.42A6.43,6.43,0,0,0,20.22,31.24Z"/><circle class="cls-2" cx="81.82" cy="37.66" r="7.42"/><path class="cls-3" d="M81.82,46.08a8.42,8.42,0,1,1,8.42-8.42A8.43,8.43,0,0,1,81.82,46.08Zm0-14.84a6.42,6.42,0,1,0,6.42,6.42A6.43,6.43,0,0,0,81.82,31.24Z"/><path class="cls-1" d="M11.66,19.2,25,17.59a2.77,2.77,0,0,0,2.54-2l.76-13.51"/><path class="cls-1" d="M96,20.42H46.53a7.89,7.89,0,0,1-5-1.75A4.62,4.62,0,0,1,40,15.94l-2.88-9"/></g></g></svg>