<svg xmlns="http://www.w3.org/2000/svg" viewBox="0 0 52.02 50.42"><defs><style>.cls-1{fill:none;stroke:#000;stroke-linecap:round;stroke-miterlimit:10;stroke-width:2px;}.cls-2{fill:#76d3ff;}</style></defs><g id="レイヤー_2" data-name="レイヤー 2"><g id="レイヤー_1-2" data-name="レイヤー 1"><path class="cls-1" d="M51,1h-2.1a2.52,2.52,0,0,0-2.45,1.92l-6,24.27a3.44,3.44,0,0,1-3.68,2.6L4.61,26.61A2.86,2.86,0,0,1,2,24.08L1,14.87a2.29,2.29,0,0,1,2-2.52L44.39,7.63"/><line class="cls-1" x1="29.03" y1="44.39" x2="13.08" y2="44.33"/><path class="cls-1" d="M38.35,32.86l4.13,2a2.07,2.07,0,0,1,1.42,2l-.66,7.73H41.78"/><circle class="cls-1" cx="6.22" cy="46.36" r="3.06"/><circle class="cls-2" cx="6.22" cy="46.36" r="3.06"/><circle class="cls-1" cx="35.72" cy="46.36" r="3.06"/><circle class="cls-2" cx="35.72" cy="46.36" r="3.06"/><line class="cls-1" x1="2.12" y1="19.18" x2="41.24" y2="19.18"/><line class="cls-1" x1="33.45" y1="11.4" x2="30.3" y2="26.6"/><line class="cls-1" x1="23.19" y1="12.72" x2="20.23" y2="25.8"/><line class="cls-1" x1="11.85" y1="13.94" x2="9.45" y2="24.53"/></g></g></svg>