<?xml version="1.0" encoding="utf-8"?>
<!-- Generator: Adobe Illustrator 26.0.1, SVG Export Plug-In . SVG Version: 6.00 Build 0)  -->
<svg version="1.1" id="レイヤー_1" xmlns="http://www.w3.org/2000/svg" xmlns:xlink="http://www.w3.org/1999/xlink" x="0px"
	 y="0px" viewBox="0 0 180 180" style="enable-background:new 0 0 180 180;" xml:space="preserve">
<style type="text/css">
	.st0{fill:#FFFFFF;}
	.st1{fill:#D66941;}
</style>
<rect x="-0.3" y="0" width="180" height="180"/>
<g>
	<path class="st0" d="M6.4,98.8c1.4-7.5,8-12.6,15.9-12.6c3.6,0,6.4,1.3,8.2,2.4l-1.3,6.8c-1.5-1.3-3.6-2.1-5.8-2.1
		c-2.4,0-5.6,1.7-6.3,5.8c-0.8,4.5,1.8,6.9,5,6.9c1.8,0,3.3-0.7,4.6-1.6l2.1,4.5c-2.1,2.2-4.9,4.2-10.3,4.2C9.4,113,5,106,6.4,98.8z
		"/>
	<path class="st0" d="M33.6,105l6.5-37.1L51,67l-6.6,37.7c-0.3,1.8,0.2,2.7,1.3,2.7c0.7,0,1-0.2,1.6-0.4v4.1
		c-1.4,0.8-3.6,1.6-7.2,1.6C35.8,112.7,32.7,110.3,33.6,105z"/>
	<path class="st0" d="M69.8,107c0-3.3,2.1-6.5,2.1-10c0-1.5-1-2.4-2.5-2.4c-1.8,0-3.5,1.3-4.3,5.8l-2.1,11.8H52.3l3.2-17.9
		c0.4-1.9-0.2-2.7-1.3-2.7c-0.7,0-1.1,0.3-1.6,0.4v-4.2c1.3-0.7,3.6-1.6,7.2-1.6c3.5,0,5.7,1.7,6.5,4.9c2.1-3.5,6.1-5.1,8.6-5.1
		c5,0,7.9,3,7.9,7.5c0,3.2-2.4,10-2.4,12.1c0,1,0.7,1.6,1.5,1.6c0.8,0,1.2-0.3,1.6-0.4v4.2c-1.3,0.7-3.8,1.6-7.4,1.6
		C72.7,112.7,69.8,111.2,69.8,107z"/>
	<path class="st0" d="M87.9,99.2c1.3-7.5,7.5-13,14.5-13c1.6,0,5,0.4,6.9,2.4l1.7-1.6h7.8l-3.2,17.7c-0.3,1.8,0.2,2.7,1.3,2.7
		c0.7,0,1.1-0.2,1.6-0.4v4.1c-1.3,0.8-3.6,1.6-7.2,1.6c-3.2,0-5.4-1.3-6.1-3.8c-1.7,2.9-5.6,3.9-8.2,3.9
		C90,112.9,86.5,106.6,87.9,99.2z M105.9,99.9l0.9-5.2c-0.7-0.9-1.9-1.4-3.3-1.4c-2.1,0-4.1,1.8-4.9,6.2c-0.8,4.4,0.4,6.3,2.7,6.3
		C103.2,105.8,105.3,103.3,105.9,99.9z"/>
	<path class="st0" d="M123.6,104.6c0-5.2,3-8,3-11.2c0-1-0.6-1.6-1.4-1.6c-0.7,0-1,0.3-1.6,0.4V88c1.4-0.9,4.1-1.6,7.2-1.6
		c4.1,0,6.4,2.4,6.4,5.7c0,4.1-3.2,6.7-3.2,11.5c0,1.5,1,2.4,2.7,2.4c2.8,0,5.5-4.8,5.5-11.7c0-2.9-1-5.7-1.8-7.4h9.7
		c1.3,1.6,2.4,4.9,2.4,8c0,7.5-6.1,18-19.1,18C128.1,113,123.6,110.3,123.6,104.6z"/>
	<path class="st0" d="M157.1,107c0-4.1,2.8-9.7,2.8-13.8c0-1-0.6-1.6-1.4-1.6c-0.8,0-1.1,0.3-1.6,0.4v-4.2c1.4-0.9,3.8-1.6,7.3-1.6
		c4.4,0,6.6,2.4,6.6,5.7c0,4.1-2.9,9.7-2.9,13.8c0,1,0.7,1.6,1.5,1.6c0.7,0,1.1-0.3,1.6-0.4v4.2c-1.3,0.9-3.8,1.6-7.2,1.6
		C159.3,112.7,157.1,110.3,157.1,107z"/>
	<path class="st1" d="M163,75.8c0.3-2.9,2.8-5.1,5.6-5.1c2.9,0,4.9,2.2,4.7,5.1c-0.3,2.8-2.9,5-5.7,5
		C164.7,80.8,162.7,78.6,163,75.8z"/>
</g>
</svg>
