<?xml version="1.0" encoding="utf-8"?>
<!-- Generator: Adobe Illustrator 26.0.1, SVG Export Plug-In . SVG Version: 6.00 Build 0)  -->
<svg version="1.1" id="レイヤー_1" xmlns="http://www.w3.org/2000/svg" xmlns:xlink="http://www.w3.org/1999/xlink" x="0px"
	 y="0px" viewBox="0 0 90 90" style="enable-background:new 0 0 90 90;" xml:space="preserve">
<style type="text/css">
	.st0{fill:#FFFFFF;}
</style>
<rect x="0" y="0" width="90" height="90"/>
<g>
	<path class="st0" d="M8.4,44c1.7-9.2,9.8-15.5,19.5-15.5c4.4,0,7.9,1.5,10.1,3l-1.6,8.4c-1.8-1.6-4.4-2.6-7.2-2.6
		c-3,0-6.9,2.1-7.8,7.1c-1,5.5,2.3,8.4,6.2,8.4c2.2,0,4.1-0.8,5.6-2l2.6,5.5c-2.5,2.7-6.1,5.2-12.7,5.2C12.1,61.5,6.7,52.8,8.4,44z"
		/>
	<path class="st0" d="M64.9,54.1c0-4.1,2.5-8,2.5-12.3c0-1.8-1.3-3-3.1-3c-2.2,0-4.3,1.5-5.3,7.2l-2.6,14.5H43.4l3.9-22
		c0.5-2.4-0.3-3.3-1.6-3.3c-0.8,0-1.4,0.4-1.9,0.5v-5.2c1.6-0.8,4.4-1.9,8.9-1.9c4.4,0,7,2.1,8,6.1c2.6-4.4,7.4-6.3,10.6-6.3
		c6.2,0,9.7,3.7,9.7,9.3c0,3.9-2.9,12.3-2.9,14.9c0,1.2,0.8,1.9,1.8,1.9c1,0,1.5-0.4,2-0.5v5.2c-1.6,0.8-4.7,1.9-9.1,1.9
		C68.4,61.1,64.9,59.3,64.9,54.1z"/>
</g>
</svg>
