<svg xmlns="http://www.w3.org/2000/svg" viewBox="0 0 70.88 70.87"><defs><!-- <style>.cls-1{fill:none;stroke:#fff;stroke-miterlimit:10;stroke-width:3px;}.cls-2{fill:#fff;}</style> --></defs><g id="レイヤー_2" data-name="レイヤー 2"><g id="レイヤー_1-2" data-name="レイヤー 1"><path class="cls-1" d="M35.44,19.07A17.72,17.72,0,0,0,17.72,36.79c0,7.37,3.84,12.37,7,14.07A5.07,5.07,0,0,1,27,53.52l2.24,6.66a2.05,2.05,0,0,0,1.9,1.34l4.28,0h.05l4.28,0a2,2,0,0,0,1.9-1.34l2.24-6.66a5,5,0,0,1,2.32-2.66c3.11-1.7,6.95-6.7,6.95-14.07A17.72,17.72,0,0,0,35.44,19.07Z"/><path class="cls-2" d="M40.78,64.73a.75.75,0,0,1,.74.85,6.14,6.14,0,0,1-12.17,0,.75.75,0,0,1,.74-.85Z"/><path class="cls-2" d="M9.22,26.52a1.5,1.5,0,0,1-1.46,2.56L1,26.73a1.5,1.5,0,1,1,1-2.84l6.76,2.36A1.37,1.37,0,0,1,9.22,26.52Z"/><path class="cls-2" d="M20.33,13.47a1.5,1.5,0,0,1-2.66,1.27l-4.19-5.8a1.5,1.5,0,0,1,2.44-1.76L20.1,13A1.33,1.33,0,0,1,20.33,13.47Z"/><path class="cls-2" d="M36.91,9.17a1.49,1.49,0,0,1-1.38,1A1.51,1.51,0,0,1,34,8.67l-.09-7.15a1.5,1.5,0,1,1,3,0L37,8.63A1.39,1.39,0,0,1,36.91,9.17Z"/><path class="cls-2" d="M53,15.15a1.51,1.51,0,0,1-1.7,0,1.49,1.49,0,0,1-.4-2.08l4-5.92a1.5,1.5,0,1,1,2.48,1.69l-4,5.91A1.57,1.57,0,0,1,53,15.15Z"/><path class="cls-2" d="M62.69,29.26a1.5,1.5,0,0,1-.53-2.91l6.69-2.53a1.5,1.5,0,1,1,1.06,2.8l-6.69,2.54A1.39,1.39,0,0,1,62.69,29.26Z"/></g></g></svg>