<svg xmlns="http://www.w3.org/2000/svg" viewBox="0 0 106.86 75.66"><defs><style>.cls-1,.cls-4{fill:#333;}.cls-1,.cls-5{stroke:#333;}.cls-1,.cls-3,.cls-5{stroke-miterlimit:10;}.cls-2,.cls-3{fill:#f08861;}.cls-3{stroke:#f08861;}.cls-5{fill:none;stroke-width:3px;}</style></defs><g id="レイヤー_2" data-name="レイヤー 2"><g id="レイヤー_1-2" data-name="レイヤー 1"><path class="cls-1" d="M31.8,30.87,13.16,35.23a1.35,1.35,0,0,1-1.62-1L9.68,26.3a.36.36,0,0,1,.1-.33.35.35,0,0,1,.34-.07l2.18.71,1.26-2.14a.33.33,0,0,1,.44-.14l2.71,1.35,1.42-2a.34.34,0,0,1,.44-.1l2,1.14,1.72-2.13a.34.34,0,0,1,.4-.1l2.43,1.08,1.5-1.89a.36.36,0,0,1,.4-.11l2.27.92,1.06-1.31a.33.33,0,0,1,.33-.12.35.35,0,0,1,.26.26l1.86,7.92A1.36,1.36,0,0,1,31.8,30.87ZM10.48,26.73l1.72,7.34a.68.68,0,0,0,.81.51l18.63-4.37a.68.68,0,0,0,.51-.81l-1.7-7.26-.78,1a.32.32,0,0,1-.39.1L27,22.29,25.5,24.2a.34.34,0,0,1-.4.1l-2.44-1.08-1.73,2.15a.34.34,0,0,1-.43.08l-2-1.13-1.4,2a.34.34,0,0,1-.43.11L14,25.08l-1.24,2.11a.33.33,0,0,1-.39.15Z"/><path class="cls-2" d="M14,8.67l1.55,6.63a1,1,0,0,1-.78,1.22L8.1,18.08Z"/><path class="cls-1" d="M14.81,16.85,8.18,18.4a.32.32,0,0,1-.35-.13.32.32,0,0,1,0-.37l5.86-9.4a.33.33,0,0,1,.61.1l1.55,6.62A1.34,1.34,0,0,1,14.81,16.85Zm-6,.71,5.83-1.37a.69.69,0,0,0,.54-.81L13.82,9.54Z"/><path class="cls-1" d="M25.91,17,12.54,20.17a.34.34,0,0,1-.15-.66l13.37-3.13a.33.33,0,0,1,.4.25A.35.35,0,0,1,25.91,17Z"/><path class="cls-3" d="M15,32.1A.33.33,0,0,1,14.6,32a3.34,3.34,0,0,1,.13-2.79c.26-.59.52-.92.8-1,.51-.1.74.57,1.08,1.58.08.22.17.5.26.72a13.14,13.14,0,0,0,.47-1.82.32.32,0,0,1,.24-.26.36.36,0,0,1,.35.11L19.16,30c1-2,1.13-2,1.4-2a.41.41,0,0,1,.27.26,3.6,3.6,0,0,0,2.43,1.1c.34,0,.63-.3,1-.64a2.75,2.75,0,0,1,1.21-.85l.06,0a6.29,6.29,0,0,1,2.59.26.34.34,0,0,1,.23.42.35.35,0,0,1-.42.23,5.52,5.52,0,0,0-2.29-.24,2.35,2.35,0,0,0-.9.67,2.16,2.16,0,0,1-1.44.85,4.37,4.37,0,0,1-2.77-1.14c-.24.42-.63,1.16-1,1.85a.31.31,0,0,1-.26.18.35.35,0,0,1-.3-.12l-1.11-1.33c-.38,1.7-.7,1.84-.81,1.89a.41.41,0,0,1-.39,0c-.26-.15-.41-.57-.69-1.37a10,10,0,0,0-.38-1c-.32.48-.84,2-.42,2.62a.33.33,0,0,1-.1.46A.22.22,0,0,1,15,32.1Zm5.88-3.76Z"/><path class="cls-1" d="M24.78,21.6a.33.33,0,0,1-.24,0l-2.62-1.44L20.23,22.2a.33.33,0,0,1-.41.09l-2.29-1.17L16.32,23a.33.33,0,0,1-.41.13l-2.42-1-1.56,2a.35.35,0,0,1-.39.1l-2.41-.88a.36.36,0,0,1-.21-.24L7.78,18.16a.33.33,0,0,1,.25-.4.35.35,0,0,1,.41.25l1.1,4.7,2,.74,1.57-2a.34.34,0,0,1,.39-.1l2.4,1,1.22-1.86a.34.34,0,0,1,.44-.11l2.31,1.19,1.69-2.09A.34.34,0,0,1,22,19.4l2.58,1.42L26,18.58a.32.32,0,0,1,.37-.15l2.19.56.91-1.11L26.83,6.7A.67.67,0,0,0,26,6.2L14.1,9A.34.34,0,0,1,14,8.33L25.86,5.54a1.36,1.36,0,0,1,1.63,1l2.65,11.34a.34.34,0,0,1-.06.29l-1.15,1.4a.33.33,0,0,1-.34.12l-2.17-.56L25,21.45A.35.35,0,0,1,24.78,21.6Z"/><path class="cls-1" d="M16.5,68.76h-.08a1,1,0,0,1-.92-1.07c0-.47.87-11.51,4.85-15,3-2.64,14-3.79,20.2-4.24a5.79,5.79,0,0,0,3.27-1.31c.8-1.26,6.51-9.93,12.48-10.5,5.71-.55,25.13-.41,30.37.38s15.21,6.16,17.26,9.39c1.6,2.53,1.14,7.35.61,10.47l.68,1.11a9.2,9.2,0,0,1,1.12,4.46c-.06.45-.23,1.94-4.34,5.92h-1.53l-2.55,0a1,1,0,0,1,0-2h0l2.54,0h0a1.67,1.67,0,0,0,1.19-.51c1.89-2,2.62-3.19,2.67-3.64a7.17,7.17,0,0,0-.87-3.24,4.7,4.7,0,0,1-.77-3.34c.55-3.77.38-6.82-.47-8.16C100.52,44.79,91,39.71,86.37,39s-23.77-1-29.87-.37c-5.32.51-11,9.61-11.07,9.71l-.2.23a7.76,7.76,0,0,1-4.53,1.87c-10.05.72-17.17,2.13-19,3.76-2.79,2.44-4,10.66-4.18,13.62A1,1,0,0,1,16.5,68.76Z"/><path class="cls-1" d="M87.08,49.94c-44.17,0-43.88-.09-44-.13a1,1,0,0,1-.73-1.21,1,1,0,0,1,1.09-.75c1.2.06,24,.09,43.69.09,2.76,0,5.2-2.42,5.23-2.44a1,1,0,0,1,1.41,1.41C93.6,47,90.66,49.94,87.08,49.94Z"/><path class="cls-1" d="M72.08,67.91H43.71a1,1,0,0,1,0-2H72.08a1,1,0,1,1,0,2Z"/><circle class="cls-2" cx="30.58" cy="66.74" r="7.42"/><path class="cls-1" d="M36.74,72.89c-9,6.9-19.21-3.33-12.31-12.31,9-6.89,19.2,3.34,12.31,12.31ZM35.27,62.05c-6.84-5.26-14.64,2.54-9.38,9.38C32.73,76.69,40.53,68.89,35.27,62.05Z"/><circle class="cls-2" cx="85.08" cy="66.74" r="7.42"/><path class="cls-1" d="M91.23,72.9c-9,6.89-19.2-3.34-12.31-12.31h0C87.89,53.69,98.13,63.92,91.23,72.9ZM89.77,62.05c-6.84-5.26-14.64,2.54-9.39,9.38C87.22,76.69,95,68.89,89.77,62.05Z"/><path class="cls-1" d="M101.07,45.66a1,1,0,0,1-1-.75c-.57-2.17,2.15-5.49,4-6.58-3.27.31-12,1.48-15.49,1.25a1,1,0,0,1,.13-2c3.91.26,13.32-.9,15.37-1.13a1.78,1.78,0,0,1,1.71.8c.38.58.47,1.6,0,1.9s-4,4.36-3.79,5.25a1,1,0,0,1-.71,1.22A.82.82,0,0,1,101.07,45.66Z"/><rect class="cls-4" x="21.22" y="0.51" width="3" height="40.27" transform="translate(-7.95 22.11) rotate(-45)"/><circle class="cls-5" cx="21.26" cy="21.26" r="19.76"/></g></g></svg>