<svg xmlns="http://www.w3.org/2000/svg" viewBox="0 0 99.52 78.22"><defs><style>.cls-1{fill:#333;}.cls-1,.cls-3,.cls-4{stroke:#333;}.cls-1,.cls-3,.cls-4,.cls-5,.cls-6{stroke-miterlimit:10;}.cls-2,.cls-5{fill:#f08861;}.cls-3,.cls-6{fill:none;}.cls-3,.cls-4,.cls-5,.cls-6{stroke-linecap:round;stroke-width:3px;}.cls-4{fill:red;}.cls-5,.cls-6{stroke:#f08861;}</style></defs><g id="レイヤー_2" data-name="レイヤー 2"><g id="レイヤー_1-2" data-name="レイヤー 1"><path class="cls-1" d="M9.16,71.32H9.08a1,1,0,0,1-.92-1.07c0-.46.87-11.51,4.86-15,3-2.65,14-3.8,20.19-4.25a5.68,5.68,0,0,0,3.27-1.3C37.28,48.45,43,39.78,49,39.2c5.7-.55,25.12-.4,30.36.39S94.54,45.75,96.59,49c1.6,2.52,1.14,7.34.61,10.47l.68,1.1A9.13,9.13,0,0,1,99,65c-.06.45-.22,1.93-4.34,5.91H90.58a1,1,0,0,1-1-1,1,1,0,0,1,1-1h2.56a1.66,1.66,0,0,0,1.19-.5c1.89-2,2.62-3.19,2.67-3.64a7.21,7.21,0,0,0-.87-3.25,4.68,4.68,0,0,1-.77-3.33c.55-3.77.38-6.82-.47-8.16C93.18,47.34,83.69,42.27,79,41.56s-23.76-1-29.87-.37c-5.32.51-11,9.62-11.07,9.71l-.2.23A7.71,7.71,0,0,1,33.36,53c-10,.72-17.17,2.13-19,3.75-2.79,2.44-4,10.67-4.18,13.63A1,1,0,0,1,9.16,71.32Z"/><path class="cls-1" d="M79.74,52.49c-44.17,0-43.88-.08-44-.12A1,1,0,0,1,35,51.16a1,1,0,0,1,1.09-.75c1.2.06,24,.08,43.69.08,2.76,0,5.2-2.41,5.23-2.43a1,1,0,0,1,1.41,1.41C86.26,49.59,83.32,52.49,79.74,52.49Z"/><path class="cls-1" d="M64.74,70.47H36.37a1,1,0,0,1,0-2H64.74a1,1,0,0,1,0,2Z"/><circle class="cls-2" cx="23.24" cy="69.3" r="7.42"/><path class="cls-1" d="M29.4,75.45c-9,6.9-19.21-3.34-12.31-12.31,9-6.89,19.2,3.34,12.31,12.31ZM27.94,64.6C21.1,59.35,13.29,67.15,18.55,74,25.39,79.25,33.19,71.44,27.94,64.6Z"/><circle class="cls-2" cx="77.74" cy="69.3" r="7.42"/><path class="cls-1" d="M83.89,75.45c-9,6.9-19.2-3.34-12.31-12.31h0C80.55,56.25,90.79,66.48,83.89,75.45ZM82.43,64.6c-6.84-5.25-14.64,2.55-9.38,9.39C79.89,79.25,87.69,71.44,82.43,64.6Z"/><path class="cls-1" d="M93.73,48.21a1,1,0,0,1-1-.74c-.57-2.17,2.16-5.49,4-6.58-3.28.3-12,1.48-15.5,1.25a1,1,0,0,1,.13-2c3.91.26,13.32-.91,15.37-1.14a1.81,1.81,0,0,1,1.71.81c.38.58.47,1.59.06,1.9s-4,4.36-3.8,5.25A1,1,0,0,1,94,48.18Z"/><path class="cls-3" d="M1.91,30.43s5.3-.09,5.58-.4c1.77-1.9,8.3-9,9.34-10.56,1.21-1.84.57-5.17,2.76-5.17s3.22,3.16,2.87,5.4S19,24.87,19.7,25.91c.63.87,8.41,1.65,10.89,1.88a2.09,2.09,0,0,1,1.49.81,2.63,2.63,0,0,1,.61,2.14,3.85,3.85,0,0,1-1.36,2.12,2.79,2.79,0,0,0-.72.85l-4.89,7.86a2,2,0,0,1-.85.83l-2.24,1.08a1.8,1.8,0,0,1-1.12.14L10.15,41.45a13,13,0,0,0-2.86-.23l-5.79.1"/><line class="cls-4" x1="28.97" y1="32.71" x2="30.93" y2="33.1"/><line class="cls-4" x1="26.52" y1="36.6" x2="28.14" y2="36.98"/><line class="cls-4" x1="24.03" y1="40.55" x2="25.53" y2="40.78"/><line class="cls-5" x1="13.33" y1="11.11" x2="8.52" y2="6.29"/><line class="cls-6" x1="20.09" y1="8.31" x2="20.09" y2="1.5"/><line class="cls-6" x1="20.09" y1="8.31" x2="20.09" y2="1.5"/><line class="cls-5" x1="26.85" y1="11.11" x2="31.67" y2="6.29"/></g></g></svg>