<svg xmlns="http://www.w3.org/2000/svg" viewBox="0 0 231.23 108.94"><defs><style>.cls-1,.cls-2,.cls-8{fill:none;}.cls-1,.cls-10,.cls-2,.cls-3,.cls-5,.cls-8{stroke:#333;}.cls-1,.cls-10,.cls-2,.cls-3,.cls-5,.cls-7{stroke-miterlimit:10;}.cls-1,.cls-2,.cls-5{stroke-width:3px;}.cls-2,.cls-8{stroke-linecap:round;}.cls-3{fill:#333;}.cls-10,.cls-4,.cls-7{fill:#f08861;}.cls-5,.cls-6{fill:#fff;}.cls-7{stroke:#f08861;}.cls-8{stroke-linejoin:round;stroke-width:2px;}.cls-9{fill:#53b9dd;}</style></defs><g id="レイヤー_2" data-name="レイヤー 2"><g id="レイヤー_1-2" data-name="レイヤー 1"><path class="cls-1" d="M124.72,42.47a1.52,1.52,0,0,1,1.2-.11,3.2,3.2,0,0,0,3-.6c.66-.51,2.37-2.86,1.37-5.19s-7.42-5.49-7.42-5.49a34.92,34.92,0,0,1-3.41-2.77c-.78-.88-3.6-5.8-4.33-6.33a3,3,0,0,0-2.95-.45c-1.57.37-.72,5.77-.39,6.19s-1.28.78-1.62,1.9c-.53,1.47,1.35,3.87,2.17,4.83a.87.87,0,0,1,.14.89,2.83,2.83,0,0,0,0,2.54c.66,1,3.07,2.18,4,2.58a1.48,1.48,0,0,1,.56.43,7.93,7.93,0,0,0,3.44,2.63C121.88,43.91,123.77,43,124.72,42.47Z"/><path class="cls-2" d="M111.92,28.05a10,10,0,0,0,3.38,3.79"/><path class="cls-2" d="M115.82,36.2c-2.56-.56-3-1.16-3-1.16"/><path class="cls-2" d="M116.45,40.46a6.27,6.27,0,0,0,3.22.06"/><path class="cls-2" d="M123.65,40.3A4.32,4.32,0,0,0,125,42.11"/><path class="cls-1" d="M156.53,46.35a1.54,1.54,0,0,0-1.12-.44,3.22,3.22,0,0,1-2.71-1.43c-.48-.67-1.46-3.41.16-5.36S161.53,36,161.53,36a34.67,34.67,0,0,0,4.06-1.69c1-.62,5.09-4.54,5.94-4.84a3,3,0,0,1,3,.41c1.4.8-1,5.73-1.38,6s1,1.11,1,2.28c.09,1.56-2.39,3.33-3.45,4a.86.86,0,0,0-.39.81,2.83,2.83,0,0,1-.73,2.43c-.93.81-3.56,1.22-4.53,1.35a1.46,1.46,0,0,0-.66.26,7.88,7.88,0,0,1-4.05,1.54C158.85,48.55,157.28,47.14,156.53,46.35Z"/><path class="cls-2" d="M172.9,36.16a10.07,10.07,0,0,1-4.32,2.68"/><path class="cls-2" d="M166.85,42.87c2.61.18,3.18-.26,3.18-.26"/><path class="cls-2" d="M165,46.77a6.25,6.25,0,0,1-3.11-.85"/><path class="cls-2" d="M158.17,44.58a4.43,4.43,0,0,1-1.83,1.35"/><path class="cls-3" d="M140.86,102h-.07a1,1,0,0,1-.93-1.07c0-.46.88-11.51,4.86-15,3-2.65,13.95-3.8,20.2-4.25a5.68,5.68,0,0,0,3.26-1.3c.8-1.26,6.52-9.93,12.49-10.51,5.71-.55,25.12-.4,30.36.39s15.21,6.16,17.26,9.39c1.6,2.52,1.15,7.34.61,10.47l.68,1.1a9,9,0,0,1,1.12,4.47c0,.45-.22,1.93-4.34,5.91h-4.07a1,1,0,0,1-1-1,1,1,0,0,1,1-1h2.57a1.65,1.65,0,0,0,1.18-.5c1.89-2,2.62-3.19,2.67-3.64a7.09,7.09,0,0,0-.87-3.25,4.73,4.73,0,0,1-.77-3.33c.56-3.77.38-6.82-.47-8.16-1.72-2.71-11.21-7.78-15.87-8.49s-23.76-1-29.87-.37c-5.32.51-11,9.62-11.06,9.71l-.2.23a7.71,7.71,0,0,1-4.54,1.88c-10.05.72-17.16,2.13-19,3.75-2.79,2.44-4,10.67-4.17,13.63A1,1,0,0,1,140.86,102Z"/><path class="cls-3" d="M211.45,83.12c-44.17,0-43.88-.08-44.06-.12a1,1,0,0,1,.36-2c1.2.07,24,.09,43.7.09,2.75,0,5.2-2.41,5.22-2.43a1,1,0,1,1,1.41,1.41C218,80.22,215,83.12,211.45,83.12Z"/><path class="cls-3" d="M196.44,101.1H168.08a1,1,0,0,1,0-2h28.36a1,1,0,0,1,0,2Z"/><circle class="cls-4" cx="154.95" cy="99.93" r="7.42"/><path class="cls-3" d="M161.1,106.08c-9,6.9-19.2-3.34-12.31-12.31,9-6.89,19.21,3.34,12.31,12.31Zm-1.46-10.85c-6.84-5.25-14.64,2.55-9.39,9.39C157.09,109.88,164.9,102.07,159.64,95.23Z"/><circle class="cls-4" cx="209.44" cy="99.93" r="7.42"/><path class="cls-3" d="M215.6,106.08c-9,6.9-19.21-3.34-12.32-12.31h0C212.25,86.87,222.49,97.11,215.6,106.08Zm-1.47-10.85c-6.84-5.25-14.64,2.55-9.38,9.39C211.59,109.88,219.39,102.07,214.13,95.23Z"/><path class="cls-3" d="M225.43,78.84a1,1,0,0,1-1-.74c-.58-2.17,2.15-5.49,4-6.58-3.28.3-12,1.48-15.5,1.25A1,1,0,0,1,212,71.7a1,1,0,0,1,1.07-.93c3.9.26,13.31-.91,15.36-1.14a1.84,1.84,0,0,1,1.72.81c.37.57.46,1.59,0,1.9s-4,4.36-3.8,5.25a1,1,0,0,1-.71,1.22A1.15,1.15,0,0,1,225.43,78.84Z"/><polygon class="cls-5" points="81.3 81.53 30.19 81.53 34.92 73.76 41.7 70.87 71.84 71.36 81.72 74.96 81.3 81.53"/><polygon class="cls-4" points="87.51 100.02 1.25 100.3 5.63 86.05 28.22 82.8 75.37 81.53 82.15 76.02 88.78 80.54 89.91 95.5 87.51 100.02"/><path class="cls-3" d="M1.5,102H1.43A1,1,0,0,1,.5,101c0-.47.88-11.51,4.86-15,3-2.64,14-3.79,20.2-4.24a5.82,5.82,0,0,0,3.26-1.3c.8-1.27,6.52-9.94,12.49-10.51,5.71-.55,25.12-.41,30.36.38s15.21,6.17,17.26,9.39c1.45,2.28,1.22,6.44.76,9.53a2.73,2.73,0,0,0,.47,2l.06.1a9,9,0,0,1,1.12,4.46c0,.41-.19,1.65-3.22,4.8a3.66,3.66,0,0,1-2.62,1.12h0l-2.54,0a1,1,0,0,1,0-2h0l2.55,0h0a1.66,1.66,0,0,0,1.18-.51c1.89-2,2.62-3.19,2.67-3.64a7.08,7.08,0,0,0-.87-3.24,4.73,4.73,0,0,1-.76-3.33c.55-3.78.37-6.83-.48-8.16C85.52,78.07,76,73,71.37,72.29s-23.76-1-29.87-.37c-5.32.51-11,9.61-11.06,9.71l-.2.23a7.76,7.76,0,0,1-4.54,1.87c-10,.73-17.16,2.13-19,3.76-2.8,2.44-4,10.66-4.18,13.62A1,1,0,0,1,1.5,102Z"/><path class="cls-3" d="M72.09,83.22c-44.17,0-43.88-.08-44.06-.13a1,1,0,0,1,.36-2c1.2.06,24,.09,43.7.09,2.75,0,5.2-2.42,5.22-2.44a1,1,0,0,1,1.41,0,1,1,0,0,1,0,1.41C78.6,80.32,75.66,83.22,72.09,83.22Z"/><path class="cls-3" d="M57.08,101.19H28.72a1,1,0,0,1,0-2H57.08a1,1,0,0,1,0,2Z"/><circle class="cls-6" cx="15.59" cy="100.02" r="7.42"/><path class="cls-3" d="M15.59,108.44A8.42,8.42,0,1,1,24,100,8.43,8.43,0,0,1,15.59,108.44Zm0-14.84A6.42,6.42,0,1,0,22,100,6.43,6.43,0,0,0,15.59,93.6Z"/><circle class="cls-6" cx="70.08" cy="100.02" r="7.42"/><path class="cls-3" d="M70.08,108.44A8.42,8.42,0,1,1,78.5,100,8.43,8.43,0,0,1,70.08,108.44Zm0-14.84A6.42,6.42,0,1,0,76.5,100,6.43,6.43,0,0,0,70.08,93.6Z"/><path class="cls-3" d="M86.07,78.94a1,1,0,0,1-1-.75c-.58-2.17,2.15-5.49,4-6.58-3.28.31-12,1.48-15.5,1.25a1,1,0,1,1,.14-2c3.9.25,13.31-.91,15.36-1.14a1.81,1.81,0,0,1,1.72.8c.37.58.46,1.6,0,1.9s-4,4.37-3.8,5.25a1,1,0,0,1-.71,1.22A.78.78,0,0,1,86.07,78.94Z"/><path class="cls-3" d="M89.94,46.49,62.85,52.58a2,2,0,0,1-2.34-1.48L57.92,39.57a.49.49,0,0,1,.15-.47.51.51,0,0,1,.49-.1l3.15,1.07L63.57,37a.48.48,0,0,1,.64-.19l3.92,2,2.08-2.87a.48.48,0,0,1,.64-.14l2.9,1.68,2.52-3.07a.49.49,0,0,1,.58-.13l3.52,1.6,2.2-2.74a.48.48,0,0,1,.57-.14l3.29,1.36L88,32.42a.49.49,0,0,1,.85.21l2.59,11.52A2,2,0,0,1,89.94,46.49ZM59.07,40.21l2.4,10.67a1,1,0,0,0,1.17.75l27.09-6.09a1,1,0,0,0,.74-1.17L88.1,33.82,87,35.22a.49.49,0,0,1-.56.14L83.1,34l-2.2,2.74a.48.48,0,0,1-.59.14l-3.52-1.59-2.55,3.09a.48.48,0,0,1-.62.12l-2.88-1.67-2.06,2.86a.51.51,0,0,1-.62.15l-3.89-2-1.82,3a.48.48,0,0,1-.58.21Z"/><path class="cls-4" d="M64.36,14.06l2.17,9.63a1.49,1.49,0,0,1-1.16,1.77l-9.63,2.16Z"/><path class="cls-3" d="M65.48,25.94,55.85,28.1a.48.48,0,0,1-.51-.19.48.48,0,0,1,0-.55L64,13.8a.49.49,0,0,1,.5-.22.48.48,0,0,1,.39.38L67,23.59A2,2,0,0,1,65.48,25.94Zm-8.69.95L65.26,25a1,1,0,0,0,.79-1.18l-1.91-8.48Z"/><path class="cls-3" d="M81.58,26.35,62.15,30.72a.49.49,0,0,1-.21-1L81.37,25.4a.49.49,0,1,1,.21,1Z"/><path class="cls-7" d="M65.5,48.06a.51.51,0,0,1-.52-.22c-.67-1.06-.3-2.84.23-4,.37-.86.76-1.34,1.17-1.41.74-.13,1.06.84,1.55,2.31.1.32.24.73.36,1a19.45,19.45,0,0,0,.7-2.63.49.49,0,0,1,.86-.22l1.77,2.16c1.53-3,1.67-2.93,2-2.85a.51.51,0,0,1,.39.37,5.25,5.25,0,0,0,3.51,1.63c.5,0,.93-.43,1.42-.92a4,4,0,0,1,1.76-1.21l.09,0a9.2,9.2,0,0,1,3.76.41.49.49,0,1,1-.29.93A8.17,8.17,0,0,0,81,43a3.44,3.44,0,0,0-1.32,1,3.07,3.07,0,0,1-2.1,1.21,6.32,6.32,0,0,1-4-1.68c-.35.6-.93,1.68-1.43,2.66a.46.46,0,0,1-.38.26.46.46,0,0,1-.43-.17l-1.6-1.95c-.58,2.46-1,2.66-1.2,2.73A.58.58,0,0,1,68,47c-.37-.22-.59-.84-1-2a14,14,0,0,0-.55-1.48c-.47.7-1.24,2.84-.64,3.79a.48.48,0,0,1-.15.67A.46.46,0,0,1,65.5,48.06Zm8.58-5.38h0Z"/><path class="cls-3" d="M79.88,33a.48.48,0,0,1-.35-.05l-3.78-2.13-2.47,3a.48.48,0,0,1-.6.12l-3.31-1.73L67.6,34.8A.49.49,0,0,1,67,35l-3.5-1.47-2.3,2.85a.47.47,0,0,1-.55.15l-3.49-1.32a.47.47,0,0,1-.3-.35l-1.6-7.09a.49.49,0,1,1,1-.22l1.54,6.84,2.9,1.1L63,32.61a.5.5,0,0,1,.57-.15L67,33.92l1.79-2.67a.5.5,0,0,1,.63-.16l3.35,1.75,2.47-3a.49.49,0,0,1,.62-.11l3.74,2.1,2-3.24a.48.48,0,0,1,.54-.21l3.18.84,1.32-1.6L83.05,11.37a1,1,0,0,0-1.17-.74L64.56,14.52a.5.5,0,0,1-.59-.37.49.49,0,0,1,.37-.58l17.33-3.9A2,2,0,0,1,84,11.16l3.7,16.48a.46.46,0,0,1-.1.42l-1.68,2a.5.5,0,0,1-.5.16l-3.14-.84-2.11,3.34A.49.49,0,0,1,79.88,33Zm7.36-5.21Z"/><rect class="cls-6" x="121.89" y="32.59" width="37.54" height="18.27" rx="3" transform="translate(5.96 -16.43) rotate(6.83)"/><path class="cls-3" d="M122.08,49.16a1.89,1.89,0,0,1-1.44-2.06l1.83-15.33a1.89,1.89,0,0,1,2.11-1.65L159,34.24a1.88,1.88,0,0,1,1.26.71,1.85,1.85,0,0,1,.39,1.4l-1.83,15.32a1.86,1.86,0,0,1-.71,1.26,1.84,1.84,0,0,1-1.39.39h0L122.29,49.2Zm37-14-.11,0-34.46-4.12a.94.94,0,0,0-1,.82l-1.83,15.33a.94.94,0,0,0,.82,1l34.46,4.13a.94.94,0,0,0,.7-.2,1,1,0,0,0,.35-.63l1.84-15.33a.9.9,0,0,0-.2-.69A.92.92,0,0,0,159,35.2ZM156.8,52.86h0Z"/><path class="cls-3" d="M125.55,47.45a.47.47,0,0,1-.35-.51,1.78,1.78,0,0,0-1.53-2,.48.48,0,0,1-.41-.53l1.14-9.51a.48.48,0,0,1,.52-.42A1.76,1.76,0,0,0,126.86,33a.48.48,0,0,1,.53-.4L155.67,36a.47.47,0,0,1,.41.52,1.79,1.79,0,0,0,1.55,1.95h0a.48.48,0,0,1,.4.53l-1.13,9.48a.48.48,0,0,1-.53.42,1.76,1.76,0,0,0-2,1.55.54.54,0,0,1-.18.33.5.5,0,0,1-.35.1l-28.3-3.39Zm-1.3-3.31a2.75,2.75,0,0,1,1.9,2.44l27.44,3.28a2.75,2.75,0,0,1,2.45-2l1-8.62a2.76,2.76,0,0,1-1.94-2.43L127.7,33.58a2.69,2.69,0,0,1-2.41,1.89Z"/><path class="cls-8" d="M139.51,45.39l.21-1.76-1.93-.23.13-1.1,1.93.24.05-.42-.12-.29L138,41.62l.14-1.11,1.11.13-1.42-3.22,1.67.2,1.3,3.07,2-2.68,1.66.2L142.32,41l1.1.13-.13,1.11L141.53,42l-.2.25-.05.42,1.93.23L143.08,44l-1.93-.23-.21,1.77Z"/><path class="cls-9" d="M139.51,45.39l.21-1.76-1.93-.23.13-1.1,1.93.24.05-.42-.12-.29L138,41.62l.14-1.11,1.11.13-1.42-3.22,1.67.2,1.3,3.07,2-2.68,1.66.2L142.32,41l1.1.13-.13,1.11L141.53,42l-.2.25-.05.42,1.93.23L143.08,44l-1.93-.23-.21,1.77Z"/><path class="cls-10" d="M139.51,45.39l.21-1.76-1.93-.23.13-1.1,1.93.24.05-.42-.12-.29L138,41.62l.14-1.11,1.11.13-1.42-3.22,1.67.2,1.3,3.07,2-2.68,1.66.2L142.32,41l1.1.13-.13,1.11L141.53,42l-.2.25-.05.42,1.93.23L143.08,44l-1.93-.23-.21,1.77Z"/><path class="cls-7" d="M147.45,43a.48.48,0,0,1-.36-.52.47.47,0,0,1,.52-.41l5,.59a.47.47,0,0,1,.41.53.46.46,0,0,1-.52.41l-5-.59Z"/><path class="cls-7" d="M129,40.8a.48.48,0,0,1-.36-.52.46.46,0,0,1,.52-.41l5,.59a.47.47,0,0,1,.41.53.46.46,0,0,1-.52.41l-5-.59Z"/><path class="cls-1" d="M140.67,20.32a1.21,1.21,0,0,1,.89-.3,2.49,2.49,0,0,0,2.17-1,3.83,3.83,0,0,0,.09-4.18C142.63,13.26,137.2,12,137.2,12a26,26,0,0,1-3.09-1.48c-.75-.53-3.78-3.74-4.43-4a2.36,2.36,0,0,0-2.32.2c-1.12.56.5,4.5.82,4.76s-.82.83-.88,1.73c-.13,1.21,1.73,2.69,2.53,3.27a.69.69,0,0,1,.27.64,2.2,2.2,0,0,0,.47,1.93c.69.67,2.72,1.09,3.47,1.23a1.15,1.15,0,0,1,.5.23,6.26,6.26,0,0,0,3.09,1.37A5.07,5.07,0,0,0,140.67,20.32Z"/><path class="cls-2" d="M128.34,11.73A7.81,7.81,0,0,0,131.6,14"/><path class="cls-2" d="M132.78,17.19c-2,0-2.47-.33-2.47-.33"/><path class="cls-2" d="M134,20.3a4.85,4.85,0,0,0,2.45-.53"/><path class="cls-2" d="M139.47,18.88A3.47,3.47,0,0,0,140.83,20"/><path class="cls-1" d="M165.49,17.47a1.2,1.2,0,0,0-.93-.13,2.51,2.51,0,0,1-2.31-.58,3.82,3.82,0,0,1-.85-4.1c.87-1.77,6-4,6-4a26.49,26.49,0,0,0,2.77-2c.64-.65,3-4.36,3.62-4.75a2.39,2.39,0,0,1,2.32-.23c1.21.36.33,4.53.06,4.84s1,.66,1.18,1.54c.35,1.16-1.2,3-1.88,3.67a.68.68,0,0,0-.15.69,2.22,2.22,0,0,1-.11,2c-.56.78-2.48,1.57-3.19,1.84a1.12,1.12,0,0,0-.45.32,6.13,6.13,0,0,1-2.79,1.91C167.65,18.72,166.21,17.93,165.49,17.47Z"/><path class="cls-2" d="M176,6.77a7.73,7.73,0,0,1-2.78,2.81"/><path class="cls-2" d="M172.68,13c2-.33,2.36-.77,2.36-.77"/><path class="cls-2" d="M172,16.24a4.79,4.79,0,0,1-2.51-.08"/><path class="cls-2" d="M166.41,15.83a3.52,3.52,0,0,1-1.14,1.36"/><rect class="cls-6" x="137.99" y="9.73" width="29.26" height="14.24" rx="3" transform="translate(-0.92 17.87) rotate(-6.68)"/><path class="cls-3" d="M139.89,25.88a1.49,1.49,0,0,1-1.47-1.3l-1.4-12a1.5,1.5,0,0,1,.31-1.08,1.42,1.42,0,0,1,1-.55l26.87-3.15a1.43,1.43,0,0,1,1.09.31,1.46,1.46,0,0,1,.55,1l1.4,12a1.48,1.48,0,0,1-1.29,1.63h0l-26.87,3.15ZM165.36,8.57h-.09L138.4,11.72a.71.71,0,0,0-.49.27.78.78,0,0,0-.16.55l1.4,12a.75.75,0,0,0,.82.65L166.84,22a.69.69,0,0,0,.49-.28.7.7,0,0,0,.16-.54l-1.4-12a.72.72,0,0,0-.28-.49A.69.69,0,0,0,165.36,8.57Z"/><path class="cls-3" d="M142.21,24a.37.37,0,0,1-.36-.32,1.4,1.4,0,0,0-1.52-1.22.36.36,0,0,1-.4-.32l-.87-7.42a.38.38,0,0,1,.32-.41,1.37,1.37,0,0,0,1.19-1.51.37.37,0,0,1,.33-.4l22-2.59a.38.38,0,0,1,.41.32,1.4,1.4,0,0,0,1.52,1.2h0a.38.38,0,0,1,.4.33l.87,7.39a.37.37,0,0,1-.33.41,1.38,1.38,0,0,0-1.2,1.54.4.4,0,0,1-.08.28.39.39,0,0,1-.25.14L142.26,24Zm-1.59-2.27a2.12,2.12,0,0,1,1.88,1.5l21.41-2.51a2.11,2.11,0,0,1,1.5-1.92L164.62,12a2.14,2.14,0,0,1-1.91-1.49L141.31,13a2.11,2.11,0,0,1-1.48,1.88Z"/><path class="cls-8" d="M152.41,19.85l-.16-1.38-1.5.18-.1-.86,1.5-.17,0-.33-.14-.2-1.38.17-.11-.87.88-.1-1.67-2.18L151,14l1.54,2.1,1-2.4,1.3-.15L153.75,16l.86-.1.1.86-1.37.17-.11.22,0,.33,1.5-.18.1.86-1.5.17.16,1.38Z"/><path class="cls-9" d="M152.41,19.85l-.16-1.38-1.5.18-.1-.86,1.5-.17,0-.33-.14-.2-1.38.17-.11-.87.88-.1-1.67-2.18L151,14l1.54,2.1,1-2.4,1.3-.15L153.75,16l.86-.1.1.86-1.37.17-.11.22,0,.33,1.5-.18.1.86-1.5.17.16,1.38Z"/><path class="cls-10" d="M152.41,19.85l-.16-1.38-1.5.18-.1-.86,1.5-.17,0-.33-.14-.2-1.38.17-.11-.87.88-.1-1.67-2.18L151,14l1.54,2.1,1-2.4,1.3-.15L153.75,16l.86-.1.1.86-1.37.17-.11.22,0,.33,1.5-.18.1.86-1.5.17.16,1.38Z"/><path class="cls-7" d="M158,16.59a.37.37,0,0,1,0-.73l3.86-.45a.36.36,0,0,1,.41.32.38.38,0,0,1-.32.41l-3.87.45Z"/><path class="cls-7" d="M143.62,18.28a.37.37,0,0,1-.37-.33.38.38,0,0,1,.33-.41l3.86-.45a.38.38,0,0,1,.41.32.37.37,0,0,1-.32.41l-3.87.45Z"/><path class="cls-2" d="M120,81l7,7a.37.37,0,0,1,0,.53l-7.12,7.12"/><line class="cls-2" x1="103.87" y1="88.22" x2="124.76" y2="88.22"/></g></g></svg>