<svg xmlns="http://www.w3.org/2000/svg" viewBox="0 0 65.68 78.05"><defs><style>.cls-1{fill:#333;stroke:#333;}.cls-1,.cls-3{stroke-miterlimit:10;}.cls-2,.cls-3{fill:#f08861;}.cls-3{stroke:#f08861;}</style></defs><g id="レイヤー_2" data-name="レイヤー 2"><g id="レイヤー_1-2" data-name="レイヤー 1"><path class="cls-1" d="M61.18,77.55H4.5a4,4,0,0,1-4-4V49.43A1,1,0,0,1,1,48.56a1,1,0,0,1,1,0l5.81,3.54,5.09-5.35a1,1,0,0,1,1.36-.08l6.91,5.71,5.44-4.8a1,1,0,0,1,1.34,0l5,4.65,6.39-5a1,1,0,0,1,1.22,0L46.9,52l5.6-4.46a1,1,0,0,1,1.2,0l5.93,4.19,3.94-3.07a1,1,0,0,1,1.05-.11,1,1,0,0,1,.56.9V73.55A4,4,0,0,1,61.18,77.55ZM2.5,51.21V73.55a2,2,0,0,0,2,2H61.18a2,2,0,0,0,2-2V51.48l-2.9,2.27a1,1,0,0,1-1.19,0l-5.93-4.18-5.63,4.47a1,1,0,0,1-1.22,0L40,49.31l-6.45,5a1,1,0,0,1-1.29-.06l-5-4.61-5.39,4.77a1,1,0,0,1-1.3,0l-6.86-5.65-5,5.25a1,1,0,0,1-1.25.17Z"/><path class="cls-2" d="M24.75,1.5V21.65a3,3,0,0,1-3.1,3H1.5Z"/><path class="cls-1" d="M21.65,25.65H1.5A1,1,0,0,1,.58,25a1,1,0,0,1,.21-1.09L24,.79a1,1,0,0,1,1.71.71V21.65A4,4,0,0,1,21.65,25.65Zm-17.73-2H21.65a2,2,0,0,0,2.1-2V3.91Z"/><path class="cls-1" d="M53.55,33.68H12.89a1,1,0,0,1,0-2H53.55a1,1,0,0,1,0,2Z"/><path class="cls-3" d="M11.81,69.72a1,1,0,0,1-1-.66c-.86-2.41.68-5.79,2.27-8,1.13-1.55,2.12-2.33,2.95-2.28,1.55.06,1.75,2.14,2.06,5.29.06.68.15,1.57.25,2.26A37.87,37.87,0,0,0,21,61.45a1,1,0,0,1,.89-.6,1,1,0,0,1,.92.55l2.56,5.09c4.38-5.22,4.63-5.1,5.37-4.76a1.1,1.1,0,0,1,.6.91,10.7,10.7,0,0,0,6.27,4.82c1,.22,2-.44,3.24-1.2a8.35,8.35,0,0,1,4-1.63H45c3,0,7.13,2.38,7.31,2.49a1,1,0,0,1,.37,1.36,1,1,0,0,1-1.37.37c-1.11-.64-4.43-2.28-6.43-2.22a6.6,6.6,0,0,0-3,1.33c-1.38.86-3,1.85-4.73,1.46a12.91,12.91,0,0,1-7.22-5.14c-1,1-2.6,2.92-4,4.66a1,1,0,0,1-.88.35,1,1,0,0,1-.78-.54l-2.31-4.6c-2.25,4.64-3.26,4.84-3.61,4.91a1.22,1.22,0,0,1-1.12-.32c-.64-.61-.8-1.94-1-4.43a31.4,31.4,0,0,0-.43-3.18c-1.26,1.17-3.75,5.09-3,7.26a1,1,0,0,1-.61,1.27A1,1,0,0,1,11.81,69.72Zm19.48-6.87h0Z"/><path class="cls-1" d="M47.19,46.09a1,1,0,0,1-.67-.26L40,39.9l-6.26,4.85a1,1,0,0,1-1.26,0l-5.81-4.93L21.9,44.26a1,1,0,0,1-1.26.09l-6.31-4.5L8.48,44.51a1,1,0,0,1-1.18.05L1,40.37a1,1,0,0,1-.45-.83V24.69a1,1,0,0,1,2,0V39l5.3,3.49,5.88-4.68a1,1,0,0,1,1.2,0l6.25,4.46,4.76-4.51a1,1,0,0,1,1.34,0l5.87,5,6.28-4.87a1,1,0,0,1,1.28.05l6.5,5.86,5.54-5.54A1,1,0,0,1,53.87,38l6,3.11,3.36-2.6V4.5a2,2,0,0,0-2-2H24.94a1,1,0,0,1,0-2H61.18a4,4,0,0,1,4,4V39a1,1,0,0,1-.39.8l-4.25,3.28a1,1,0,0,1-1.08.1L53.59,40.1,47.9,45.8A1,1,0,0,1,47.19,46.09Zm17-7.1h0Z"/></g></g></svg>