<svg xmlns="http://www.w3.org/2000/svg" viewBox="0 0 97.44 75.08"><defs><style>.cls-1,.cls-4{fill:#f08861;}.cls-1,.cls-3{stroke:#333;stroke-miterlimit:10;}.cls-1{stroke-width:3px;}.cls-2{fill:#fff;}.cls-3{fill:#333;}</style></defs><g id="レイヤー_2" data-name="レイヤー 2"><g id="レイヤー_1-2" data-name="レイヤー 1"><path class="cls-1" d="M35.67,12.35a17.81,17.81,0,0,1-5.82,21.27c-1.1.8-.52,7.89-1.05,8.11s-5.13-5.15-6.43-4.92a17.79,17.79,0,1,1,13.3-24.46Z"/><path class="cls-2" d="M22.27,32.28l-2-4.83L15,29.64l-1.25-3L19,24.46l-.47-1.14-.73-.58-4.85,2-1.26-3,3.06-1.27L6.46,14.25l4.59-1.9,7.76,6L20,8.62l4.56-1.89L23.16,17l3-1.26,1.26,3-4.83,2-.13.94L23,22.83l5.27-2.19,1.25,3-5.28,2.19,2,4.83Z"/><path class="cls-3" d="M7.07,68.18H7a1,1,0,0,1-.93-1.07c0-.46.88-11.5,4.86-15,3-2.65,14-3.8,20.2-4.25a5.68,5.68,0,0,0,3.26-1.3c.8-1.26,6.52-9.93,12.49-10.51,5.71-.54,25.12-.4,30.36.39s15.21,6.16,17.26,9.39c1.45,2.28,1.21,6.44.76,9.52a2.7,2.7,0,0,0,.47,2l.06.1a9.06,9.06,0,0,1,1.12,4.47c0,.41-.19,1.65-3.22,4.8a3.66,3.66,0,0,1-2.62,1.11H88.5a1,1,0,0,1-1-1,1,1,0,0,1,1-1h2.57a1.65,1.65,0,0,0,1.18-.5c1.89-2,2.62-3.19,2.67-3.64a7.09,7.09,0,0,0-.87-3.25,4.73,4.73,0,0,1-.77-3.33c.56-3.77.38-6.82-.47-8.16-1.72-2.7-11.21-7.78-15.87-8.49s-23.76-1-29.87-.36c-5.32.51-11,9.61-11.06,9.7l-.2.24a7.76,7.76,0,0,1-4.54,1.87c-10,.72-17.16,2.13-19,3.75-2.79,2.45-4,10.67-4.17,13.63A1,1,0,0,1,7.07,68.18Z"/><path class="cls-3" d="M77.66,49.35c-44.17,0-43.88-.08-44.06-.12A1,1,0,0,1,32.88,48,1,1,0,0,1,34,47.27c1.2.06,24,.08,43.7.08,2.75,0,5.2-2.41,5.22-2.43a1,1,0,1,1,1.41,1.41C84.17,46.45,81.23,49.35,77.66,49.35Z"/><path class="cls-3" d="M62.65,67.33H34.29a1,1,0,0,1,0-2H62.65a1,1,0,0,1,0,2Z"/><circle class="cls-4" cx="21.16" cy="66.16" r="7.42"/><path class="cls-3" d="M21.16,74.58a8.42,8.42,0,1,1,8.41-8.42A8.43,8.43,0,0,1,21.16,74.58Zm0-14.84a6.42,6.42,0,1,0,6.41,6.42A6.43,6.43,0,0,0,21.16,59.74Z"/><circle class="cls-4" cx="75.65" cy="66.16" r="7.42"/><path class="cls-3" d="M75.65,74.58a8.42,8.42,0,1,1,8.42-8.42A8.43,8.43,0,0,1,75.65,74.58Zm0-14.84a6.42,6.42,0,1,0,6.42,6.42A6.43,6.43,0,0,0,75.65,59.74Z"/><path class="cls-3" d="M91.64,45.08a1,1,0,0,1-1-.75c-.58-2.17,2.15-5.49,4-6.58-3.28.3-12,1.48-15.5,1.25a1,1,0,0,1,.14-2c3.9.26,13.31-.9,15.36-1.13a1.81,1.81,0,0,1,1.72.8c.37.58.46,1.59,0,1.9s-4,4.36-3.8,5.25A1,1,0,0,1,91.9,45Z"/></g></g></svg>