<svg xmlns="http://www.w3.org/2000/svg" viewBox="0 0 229.44 70.81"><defs><style>.cls-1,.cls-4,.cls-5{fill:none;}.cls-1,.cls-2,.cls-5{stroke:#333;}.cls-1,.cls-5{stroke-linecap:round;}.cls-1,.cls-2,.cls-4,.cls-5{stroke-miterlimit:10;}.cls-1{stroke-width:3px;}.cls-2{fill:#333;}.cls-3{fill:#f08861;}.cls-4{stroke:#f08861;}.cls-4,.cls-5{stroke-width:2px;}</style></defs><g id="レイヤー_2" data-name="レイヤー 2"><g id="レイヤー_1-2" data-name="レイヤー 1"><path class="cls-1" d="M117.05,38.58l7,7a.37.37,0,0,1,0,.53l-7.12,7.12"/><path class="cls-2" d="M1.5,63.36H1.43A1,1,0,0,1,.5,62.29c0-.47.88-11.51,4.86-15,3-2.65,14-3.8,20.2-4.25a5.82,5.82,0,0,0,3.26-1.3c.8-1.26,6.52-9.94,12.49-10.51,5.71-.55,25.12-.41,30.36.38S86.88,37.8,88.93,41c1.45,2.28,1.22,6.43.76,9.52a2.7,2.7,0,0,0,.47,2l.06.1a9,9,0,0,1,1.12,4.47c0,.4-.19,1.65-3.22,4.79A3.66,3.66,0,0,1,85.5,63h0l-2.54,0a1,1,0,0,1-1-1,1,1,0,0,1,1-1h0l2.55,0h0a1.62,1.62,0,0,0,1.18-.51c1.89-2,2.62-3.18,2.67-3.63a7.09,7.09,0,0,0-.87-3.25,4.73,4.73,0,0,1-.76-3.33c.55-3.78.37-6.83-.48-8.16C85.52,39.39,76,34.31,71.37,33.61s-23.76-1-29.87-.37c-5.32.51-11,9.62-11.06,9.71l-.2.23a7.78,7.78,0,0,1-4.54,1.88c-10,.72-17.16,2.12-19,3.75-2.8,2.44-4,10.66-4.18,13.63A1,1,0,0,1,1.5,63.36Z"/><path class="cls-2" d="M72.09,44.54c-44.17,0-43.88-.08-44.06-.12a1,1,0,0,1,.36-2c1.2.07,24,.09,43.7.09,2.75,0,5.2-2.41,5.22-2.44a1,1,0,1,1,1.41,1.42C78.6,41.64,75.66,44.54,72.09,44.54Z"/><path class="cls-2" d="M57.08,62.52H28.72a1,1,0,0,1,0-2H57.08a1,1,0,0,1,0,2Z"/><circle class="cls-3" cx="15.59" cy="61.35" r="7.42"/><path class="cls-2" d="M15.59,69.76A8.42,8.42,0,1,1,24,61.35,8.42,8.42,0,0,1,15.59,69.76Zm0-14.83A6.42,6.42,0,1,0,22,61.35,6.43,6.43,0,0,0,15.59,54.93Z"/><circle class="cls-3" cx="70.08" cy="61.35" r="7.42"/><path class="cls-2" d="M70.08,69.76a8.42,8.42,0,1,1,8.42-8.41A8.42,8.42,0,0,1,70.08,69.76Zm0-14.83a6.42,6.42,0,1,0,6.42,6.42A6.43,6.43,0,0,0,70.08,54.93Z"/><path class="cls-2" d="M86.07,40.26a1,1,0,0,1-1-.74c-.58-2.17,2.15-5.49,4-6.59-3.28.31-12,1.49-15.5,1.26a1,1,0,0,1-.93-1.07,1,1,0,0,1,1.07-.93c3.9.26,13.31-.91,15.36-1.14a1.82,1.82,0,0,1,1.72.81c.37.57.46,1.59,0,1.9s-4,4.36-3.8,5.25a1,1,0,0,1-.71,1.22A1.15,1.15,0,0,1,86.07,40.26Z"/><line class="cls-1" x1="100.93" y1="45.85" x2="121.83" y2="45.85"/><path class="cls-1" d="M141.53,61.58l-2.8,0a1,1,0,0,1-1-1l.47-11.28a4.52,4.52,0,0,1,3-4.07L152.78,41a6.7,6.7,0,0,0,2.32-1.42l12.42-11.54a4.45,4.45,0,0,1,3-1.2h53.22a2.88,2.88,0,0,1,2.87,2.87V50.51a2.12,2.12,0,0,0,.14.75l1,2.57a2.41,2.41,0,0,1,.16.88V61a.86.86,0,0,1-.85.86l-6.64,0"/><line class="cls-1" x1="168.02" y1="61.4" x2="194.21" y2="61.4"/><path class="cls-1" d="M161.4,40.4s40.11-.18,49.24-.18,9.81-12.74,9.81-12.74"/><path class="cls-1" d="M182.92,27.31s-1.53,12.87-11.17,13"/><circle class="cls-3" cx="154.81" cy="61.47" r="7.42"/><path class="cls-2" d="M154.81,69.89a8.42,8.42,0,1,1,8.42-8.42A8.43,8.43,0,0,1,154.81,69.89Zm0-14.84a6.42,6.42,0,1,0,6.42,6.42A6.43,6.43,0,0,0,154.81,55.05Z"/><circle class="cls-3" cx="207.4" cy="61.89" r="7.42"/><path class="cls-2" d="M207.4,70.31a8.42,8.42,0,1,1,8.42-8.42A8.43,8.43,0,0,1,207.4,70.31Zm0-14.83a6.42,6.42,0,1,0,6.42,6.41A6.42,6.42,0,0,0,207.4,55.48Z"/><path class="cls-4" d="M155.23,17.5V1h3.07l7.38,11.15V1h3.08V17.5h-2.92L158.3,6V17.5Z"/><path class="cls-4" d="M176.61,17.5V1h11.25V3.83h-8.18V7.67h7.47V10.5h-7.47v4.17h8.44V17.5Z"/><path class="cls-4" d="M197.59,17.5,194,1h3.16l2.07,11L202,1h2.74l2.78,11,2.07-11h3.18l-3.58,16.5h-2.8l-3-11.76-3,11.76Z"/><path class="cls-3" d="M155.23,17.5V1h3.07l7.38,11.15V1h3.08V17.5h-2.92L158.3,6V17.5Z"/><path class="cls-3" d="M176.61,17.5V1h11.25V3.83h-8.18V7.67h7.47V10.5h-7.47v4.17h8.44V17.5Z"/><path class="cls-3" d="M197.59,17.5,194,1h3.16l2.07,11L202,1h2.74l2.78,11,2.07-11h3.18l-3.58,16.5h-2.8l-3-11.76-3,11.76Z"/><line class="cls-5" x1="137.75" y1="1.22" x2="146.11" y2="17.94"/><line class="cls-5" x1="227.91" y1="1.22" x2="219.56" y2="17.94"/></g></g></svg>