<svg xmlns="http://www.w3.org/2000/svg" viewBox="0 0 85.91 62.4"><defs><style>.cls-1{fill:#333;stroke:#333;stroke-miterlimit:10;}.cls-2{fill:#f08861;}</style></defs><g id="レイヤー_2" data-name="レイヤー 2"><g id="レイヤー_1-2" data-name="レイヤー 1"><path class="cls-1" d="M46.82,61.9q-.48,0-.93,0c-8.5-.46-22.33-8.09-27.54-11-.85-.47-1.49-.82-1.84-1-.17-.08-17-9.76-16-13.48C1,34.84,2.26,33,5.9,33.15c1.69.07,16.12,6.42,20.5,8.37l-.81,1.82C16.87,39.47,7,35.28,5.79,35.14c-1.92-.08-2.91.44-3.29,1.74C2.84,38,11,44.9,17.4,48.12c.37.19,1,.55,1.92,1C24.42,52,38,59.43,46,59.88c9.32.51,32.5-8.13,32.73-8.22l.71,1.87C78.5,53.88,57,61.9,46.82,61.9Z"/><path class="cls-1" d="M45.42,52.37c-2.14,0-4,0-5.19-.16-5.14-.43-12.12-5.23-14.16-7.15a3.51,3.51,0,0,1-.92-3.8,4.3,4.3,0,0,1,3.75-2.8,42.61,42.61,0,0,1,5.81.44A75.79,75.79,0,0,0,48,39.63c3.13-.25,6.08-1.91,9.21-3.68s6.59-3.73,10.2-3.9c6.8-.33,17.44,3.71,17.89,3.88l-.72,1.87c-.1,0-10.69-4.07-17.07-3.75-3.14.15-6.14,1.84-9.32,3.64s-6.46,3.65-10,3.93a76.59,76.59,0,0,1-13.64-.73,41,41,0,0,0-5.43-.43,2.29,2.29,0,0,0-2,1.46,1.51,1.51,0,0,0,.4,1.68c1.83,1.73,8.38,6.23,13,6.62,4.74.4,20-.09,23.74-.93l.44,2C61.56,51.91,52,52.37,45.42,52.37Z"/><path class="cls-1" d="M12.48,23.31h-.05a.7.7,0,0,1-.65-.75c0-.33.61-8.09,3.41-10.54C17.32,10.16,25,9.35,29.4,9a4.1,4.1,0,0,0,2.29-.92c.57-.89,4.58-7,8.78-7.39,4-.38,17.67-.28,21.35.27S72.52,5.34,74,7.61c1.12,1.77.8,5.16.43,7.36l.47.77a6.43,6.43,0,0,1,.79,3.14c0,.32-.15,1.36-3.05,4.16H69.74a.71.71,0,0,1,0-1.41h0l1.79,0h0a1.17,1.17,0,0,0,.84-.36,7,7,0,0,0,1.87-2.56,4.91,4.91,0,0,0-.61-2.28,3.3,3.3,0,0,1-.54-2.34c.39-2.66.27-4.8-.33-5.74-1.21-1.9-7.88-5.47-11.16-6a157.85,157.85,0,0,0-21-.26c-3.74.36-7.74,6.76-7.78,6.83l-.14.16a5.47,5.47,0,0,1-3.19,1.32c-7.07.51-12.07,1.5-13.38,2.64-2,1.72-2.79,7.5-2.94,9.58A.7.7,0,0,1,12.48,23.31Z"/><path class="cls-1" d="M62.11,10.08c-31,0-30.85-.06-31-.09a.7.7,0,0,1-.51-.85.68.68,0,0,1,.76-.53c.84,0,16.85.06,30.72.06A6.21,6.21,0,0,0,65.79,7a.7.7,0,0,1,1,1A7.49,7.49,0,0,1,62.11,10.08Z"/><path class="cls-1" d="M51.56,22.72H31.62a.71.71,0,1,1,0-1.41H51.56a.71.71,0,1,1,0,1.41Z"/><circle class="cls-2" cx="22.39" cy="21.89" r="5.22"/><path class="cls-1" d="M26.71,26.22c-6.3,4.85-13.5-2.35-8.65-8.66,6.31-4.84,13.5,2.35,8.65,8.66Zm-1-7.63c-4.81-3.69-10.3,1.79-6.6,6.6C23.9,28.89,29.38,23.4,25.69,18.59Z"/><circle class="cls-2" cx="60.7" cy="21.89" r="5.22"/><path class="cls-1" d="M65,26.22c-6.31,4.85-13.5-2.35-8.66-8.65h0C62.68,12.72,69.88,19.91,65,26.22Zm-1-7.63c-4.81-3.69-10.29,1.79-6.6,6.6C62.21,28.89,67.7,23.4,64,18.59Z"/><path class="cls-1" d="M72,7.07a.7.7,0,0,1-.68-.53C70.86,5,72.78,2.69,74.05,1.92c-2.3.21-8.44,1-10.89.88a.71.71,0,1,1,.09-1.41C66,1.57,72.62.75,74.06.59a1.27,1.27,0,0,1,1.2.57c.27.4.33,1.12,0,1.33s-2.84,3.07-2.67,3.69a.71.71,0,0,1-.5.86A.57.57,0,0,1,72,7.07Z"/></g></g></svg>