<svg xmlns="http://www.w3.org/2000/svg" viewBox="0 0 93.21 70.81"><defs><style>.cls-1,.cls-4,.cls-5{fill:none;}.cls-1,.cls-3,.cls-5{stroke:#333;}.cls-1,.cls-5{stroke-linecap:round;}.cls-1,.cls-3,.cls-4,.cls-5{stroke-miterlimit:10;}.cls-1{stroke-width:3px;}.cls-2{fill:#f08861;}.cls-3{fill:#333;}.cls-4{stroke:#f08861;}.cls-4,.cls-5{stroke-width:2px;}</style></defs><g id="レイヤー_2" data-name="レイヤー 2"><g id="レイヤー_1-2" data-name="レイヤー 1"><path class="cls-1" d="M5.3,61.58l-2.8,0a1,1,0,0,1-1-1L2,49.29a4.52,4.52,0,0,1,3-4.07L16.55,41a6.7,6.7,0,0,0,2.32-1.42L31.29,28.08a4.46,4.46,0,0,1,3-1.2H87.55a2.87,2.87,0,0,1,2.87,2.87V50.51a2.12,2.12,0,0,0,.14.75l1,2.57a2.41,2.41,0,0,1,.16.88V61a.86.86,0,0,1-.85.86l-6.64,0"/><line class="cls-1" x1="31.79" y1="61.4" x2="57.98" y2="61.4"/><path class="cls-1" d="M25.17,40.4s40.12-.18,49.24-.18,9.81-12.74,9.81-12.74"/><path class="cls-1" d="M46.69,27.31s-1.53,12.87-11.17,13"/><circle class="cls-2" cx="18.58" cy="61.47" r="7.42"/><path class="cls-3" d="M18.58,69.89A8.42,8.42,0,1,1,27,61.47,8.43,8.43,0,0,1,18.58,69.89Zm0-14.84A6.42,6.42,0,1,0,25,61.47,6.43,6.43,0,0,0,18.58,55.05Z"/><circle class="cls-2" cx="71.17" cy="61.89" r="7.42"/><path class="cls-3" d="M71.17,70.31a8.42,8.42,0,1,1,8.42-8.42A8.43,8.43,0,0,1,71.17,70.31Zm0-14.83a6.42,6.42,0,1,0,6.42,6.41A6.42,6.42,0,0,0,71.17,55.48Z"/><path class="cls-4" d="M19,17.5V1h3.07l7.38,11.15V1h3.08V17.5H29.61L22.07,6V17.5Z"/><path class="cls-4" d="M40.38,17.5V1H51.63V3.83H43.45V7.67h7.47V10.5H43.45v4.17h8.44V17.5Z"/><path class="cls-4" d="M61.36,17.5,57.78,1h3.16L63,12,65.79,1h2.74l2.78,11L73.38,1h3.19L73,17.5h-2.8l-3-11.76-3,11.76Z"/><path class="cls-2" d="M19,17.5V1h3.07l7.38,11.15V1h3.08V17.5H29.61L22.07,6V17.5Z"/><path class="cls-2" d="M40.38,17.5V1H51.63V3.83H43.45V7.67h7.47V10.5H43.45v4.17h8.44V17.5Z"/><path class="cls-2" d="M61.36,17.5,57.78,1h3.16L63,12,65.79,1h2.74l2.78,11L73.38,1h3.19L73,17.5h-2.8l-3-11.76-3,11.76Z"/><line class="cls-5" x1="1.53" y1="1.22" x2="9.88" y2="17.94"/><line class="cls-5" x1="91.69" y1="1.22" x2="83.33" y2="17.94"/></g></g></svg>