<svg xmlns="http://www.w3.org/2000/svg" viewBox="0 0 78.4 84.38"><defs><style>.cls-1{fill:#333;stroke:#333;stroke-miterlimit:10;}.cls-2{fill:#f08861;}</style></defs><g id="レイヤー_2" data-name="レイヤー 2"><g id="レイヤー_1-2" data-name="レイヤー 1"><path class="cls-1" d="M76.9,83.88H1.5a1,1,0,0,1,0-2H76.9a1,1,0,0,1,0,2Z"/><path class="cls-1" d="M71.9,83.88a1,1,0,0,1-1-1V4.5a2,2,0,0,0-2-2H9.5a2,2,0,0,0-2,2V82.88a1,1,0,0,1-2,0V4.5a4,4,0,0,1,4-4H68.9a4,4,0,0,1,4,4V82.88A1,1,0,0,1,71.9,83.88Z"/><path class="cls-2" d="M30,81.93V68a3,3,0,0,1,3-3H45.39a3,3,0,0,1,3,3V81.93"/><path class="cls-1" d="M48.39,82.93a1,1,0,0,1-1-1V68a2,2,0,0,0-2-2H33a2,2,0,0,0-2,2V81.93a1,1,0,0,1-2,0V68a4,4,0,0,1,4-4H45.39a4,4,0,0,1,4,4V81.93A1,1,0,0,1,48.39,82.93Z"/><path class="cls-1" d="M25.1,23.39H13.8a1,1,0,0,1-1-1V10.25a1,1,0,0,1,1-1H25.1a1,1,0,0,1,1,1V22.39A1,1,0,0,1,25.1,23.39Zm-10.3-2h9.3V11.25H14.8Z"/><path class="cls-1" d="M64.34,23.39H53.05a1,1,0,0,1-1-1V10.25a1,1,0,0,1,1-1H64.34a1,1,0,0,1,1,1V22.39A1,1,0,0,1,64.34,23.39Zm-10.29-2h9.29V11.25H54.05Z"/><path class="cls-1" d="M25.1,40.62H13.8a1,1,0,0,1-1-1V27.48a1,1,0,0,1,1-1H25.1a1,1,0,0,1,1,1V39.62A1,1,0,0,1,25.1,40.62Zm-10.3-2h9.3V28.48H14.8Z"/><path class="cls-1" d="M64.34,40.62H53.05a1,1,0,0,1-1-1V27.48a1,1,0,0,1,1-1H64.34a1,1,0,0,1,1,1V39.62A1,1,0,0,1,64.34,40.62Zm-10.29-2h9.29V28.48H54.05Z"/><path class="cls-1" d="M25.1,58.12H13.8a1,1,0,0,1-1-1V45a1,1,0,0,1,1-1H25.1a1,1,0,0,1,1,1V57.12A1,1,0,0,1,25.1,58.12Zm-10.3-2h9.3V46H14.8Z"/><path class="cls-1" d="M64.34,58.12H53.05a1,1,0,0,1-1-1V45a1,1,0,0,1,1-1H64.34a1,1,0,0,1,1,1V57.12A1,1,0,0,1,64.34,58.12Zm-10.29-2h9.29V46H54.05Z"/><path class="cls-1" d="M45.14,23.39H33.85a1,1,0,0,1-1-1V10.25a1,1,0,0,1,1-1H45.14a1,1,0,0,1,1,1V22.39A1,1,0,0,1,45.14,23.39Zm-10.29-2h9.29V11.25H34.85Z"/><path class="cls-1" d="M45.14,40.62H33.85a1,1,0,0,1-1-1V27.48a1,1,0,0,1,1-1H45.14a1,1,0,0,1,1,1V39.62A1,1,0,0,1,45.14,40.62Zm-10.29-2h9.29V28.48H34.85Z"/><path class="cls-1" d="M45.14,58.12H33.85a1,1,0,0,1-1-1V45a1,1,0,0,1,1-1H45.14a1,1,0,0,1,1,1V57.12A1,1,0,0,1,45.14,58.12Zm-10.29-2h9.29V46H34.85Z"/></g></g></svg>