<svg xmlns="http://www.w3.org/2000/svg" viewBox="0 0 226.71 45.43"><defs><style>.cls-1{fill:#333;}.cls-1,.cls-3{stroke:#333;stroke-miterlimit:10;}.cls-2{fill:#f08861;}.cls-3{fill:none;stroke-linecap:round;stroke-width:3px;}</style></defs><g id="レイヤー_2" data-name="レイヤー 2"><g id="レイヤー_1-2" data-name="レイヤー 1"><path class="cls-1" d="M1.5,38.53H1.43A1,1,0,0,1,.5,37.46c0-.47.88-11.51,4.86-15,3-2.64,14-3.79,20.2-4.24a5.82,5.82,0,0,0,3.26-1.3c.8-1.27,6.52-9.94,12.49-10.51C47,5.87,66.43,6,71.67,6.8S86.88,13,88.93,16.19c1.6,2.53,1.15,7.35.61,10.47l.68,1.11a9,9,0,0,1,1.12,4.46c0,.46-.22,1.94-4.34,5.92H85.47l-2.54,0a1,1,0,0,1,0-2h0l2.55,0h0a1.66,1.66,0,0,0,1.18-.51c1.89-2,2.62-3.18,2.67-3.64a7.08,7.08,0,0,0-.87-3.24,4.73,4.73,0,0,1-.76-3.33c.55-3.78.37-6.83-.48-8.16C85.52,14.56,76,9.48,71.37,8.78s-23.76-1-29.87-.37c-5.32.51-11,9.61-11.06,9.71l-.2.23a7.76,7.76,0,0,1-4.54,1.87c-10,.73-17.16,2.13-19,3.76-2.8,2.44-4,10.66-4.18,13.62A1,1,0,0,1,1.5,38.53Z"/><path class="cls-1" d="M72.09,19.71c-44.17,0-43.88-.08-44.06-.13a1,1,0,0,1,.36-2c1.2.06,24,.09,43.7.09,2.75,0,5.2-2.42,5.22-2.44a1,1,0,0,1,1.41,0,1,1,0,0,1,0,1.41C78.6,16.81,75.66,19.71,72.09,19.71Z"/><path class="cls-1" d="M57.08,37.68H28.72a1,1,0,0,1,0-2H57.08a1,1,0,0,1,0,2Z"/><circle class="cls-2" cx="15.59" cy="36.51" r="7.42"/><path class="cls-1" d="M21.74,42.67c-9,6.89-19.2-3.34-12.31-12.31,9-6.9,19.21,3.33,12.31,12.31ZM20.28,31.82c-6.84-5.26-14.64,2.55-9.38,9.38C17.73,46.46,25.54,38.66,20.28,31.82Z"/><circle class="cls-2" cx="70.08" cy="36.51" r="7.42"/><path class="cls-1" d="M76.24,42.67c-9,6.89-19.21-3.34-12.32-12.31h0C72.9,23.46,83.13,33.7,76.24,42.67ZM74.77,31.82c-6.83-5.26-14.64,2.55-9.38,9.39C72.23,46.46,80,38.66,74.77,31.82Z"/><path class="cls-1" d="M86.07,15.43a1,1,0,0,1-1-.75c-.58-2.17,2.15-5.49,4-6.58-3.28.31-12,1.48-15.5,1.25a1,1,0,1,1,.14-2c3.9.25,13.31-.91,15.36-1.14a1.81,1.81,0,0,1,1.72.8c.37.58.46,1.6,0,1.9s-4,4.37-3.8,5.25a1,1,0,0,1-.71,1.22A.78.78,0,0,1,86.07,15.43Z"/><path class="cls-3" d="M138.79,36.2l-2.8,0a1,1,0,0,1-1-1l.47-11.28a4.55,4.55,0,0,1,3-4.08L150,15.66a6.8,6.8,0,0,0,2.33-1.42L164.78,2.7a4.49,4.49,0,0,1,3.05-1.2H221a2.88,2.88,0,0,1,2.88,2.87V25.13a2,2,0,0,0,.14.75l1,2.57a2.42,2.42,0,0,1,.17.88v6.31a.87.87,0,0,1-.86.86l-6.63,0"/><line class="cls-3" x1="165.29" y1="36.02" x2="191.48" y2="36.02"/><path class="cls-3" d="M158.67,15s40.11-.17,49.23-.17S217.72,2.1,217.72,2.1"/><path class="cls-3" d="M180.19,1.93S178.66,14.8,169,15"/><circle class="cls-2" cx="152.08" cy="36.09" r="7.42"/><path class="cls-1" d="M152.08,44.51a8.42,8.42,0,1,1,8.42-8.42A8.43,8.43,0,0,1,152.08,44.51Zm0-14.84a6.42,6.42,0,1,0,6.42,6.42A6.43,6.43,0,0,0,152.08,29.67Z"/><circle class="cls-2" cx="204.67" cy="36.51" r="7.42"/><path class="cls-1" d="M204.66,44.93a8.42,8.42,0,1,1,8.42-8.42A8.42,8.42,0,0,1,204.66,44.93Zm0-14.84a6.42,6.42,0,1,0,6.42,6.42A6.43,6.43,0,0,0,204.66,30.09Z"/><path class="cls-3" d="M116.6,18.09l7,7a.39.39,0,0,1,0,.53l-7.12,7.12"/><line class="cls-3" x1="100.48" y1="25.37" x2="121.37" y2="25.37"/></g></g></svg>