<svg xmlns="http://www.w3.org/2000/svg" viewBox="0 0 67.13 67.19"><defs><style>.cls-1{fill:#f08861;}.cls-2{fill:none;stroke:#333;stroke-miterlimit:10;stroke-width:3px;}</style></defs><g id="レイヤー_2" data-name="レイヤー 2"><g id="レイヤー_1-2" data-name="レイヤー 1"><path class="cls-1" d="M13.21,17.86,23.54,28.22,28,23.93,17.58,13.48,16.31,7.82,7,2.17,4.45,4.72,1.89,7.27l5.66,9.31Z"/><path class="cls-1" d="M48.2,38.13,63.49,53.37a7.22,7.22,0,1,1-10.21,10.2L38,48.33Z"/><path class="cls-2" d="M13.21,17.86,23.54,28.22,28,23.93,17.58,13.48,16.31,7.82,7,2.17,4.45,4.72,1.89,7.27l5.66,9.31Z"/><path class="cls-2" d="M48.2,38.13,63.49,53.37a7.22,7.22,0,1,1-10.21,10.2L38,48.33Z"/><path class="cls-2" d="M60.2,26.67c5.27-4.78,6.15-10.21,5-14.79a1.08,1.08,0,0,0-.44-.89l-1.06-.87A.85.85,0,0,0,63,9.89a.86.86,0,0,0-.62.35l-6.09,7.92a.86.86,0,0,1-.73.36l-2.22.16a.83.83,0,0,1-.52-.19l-4.27-3.62a.89.89,0,0,1-.32-.56l-.26-2a.85.85,0,0,1,.15-.62l5.71-7.75a.87.87,0,0,0-.11-1.15L52.32,1.7c-.27-.26-.57-.22-1-.14C47.39,2.34,40.66,6.15,39,11.43a18.64,18.64,0,0,0-1,7.91c0,2.62-.86,5.14-1.92,6.19L6.33,54.07l-.17.16A6.22,6.22,0,1,0,15,63a3.61,3.61,0,0,0,.33-.35l28.66-31C47.47,28.55,54.45,31.89,60.2,26.67Z"/></g></g></svg>