<svg xmlns="http://www.w3.org/2000/svg" viewBox="0 0 97.48 58.82"><defs><style>.cls-1{fill:#333;}.cls-1,.cls-3,.cls-5{stroke:#333;}.cls-1,.cls-5,.cls-6{stroke-miterlimit:10;}.cls-2{fill:#fff;}.cls-3{fill:none;stroke-linecap:round;stroke-linejoin:round;stroke-width:2px;}.cls-4{fill:#53b9dd;}.cls-5,.cls-6{fill:#f08861;}.cls-6{stroke:#f08861;}</style></defs><g id="レイヤー_2" data-name="レイヤー 2"><g id="レイヤー_1-2" data-name="レイヤー 1"><path class="cls-1" d="M14.07,53.83a1,1,0,0,1-.12-2l73.46-8.5a1.73,1.73,0,0,0,1.18-.66A1.75,1.75,0,0,0,89,41.39L85.15,8.45a1,1,0,1,1,2-.23l3.81,32.94a3.73,3.73,0,0,1-.78,2.77,3.8,3.8,0,0,1-2.52,1.4L14.18,53.82Z"/><path class="cls-1" d="M20.07,58.32a1,1,0,0,1-.11-2l73.46-8.5A1.76,1.76,0,0,0,95,45.88L91.15,12.94a1,1,0,1,1,2-.23L97,45.65a3.7,3.7,0,0,1-.79,2.77,3.74,3.74,0,0,1-2.51,1.4l-73.46,8.5Z"/><rect class="cls-2" x="3.13" y="5.61" width="79.47" height="38.68" rx="3" transform="translate(-2.58 5.09) rotate(-6.6)"/><path class="cls-1" d="M8.25,49.41a4,4,0,0,1-4-3.54L.53,13.4a3.9,3.9,0,0,1,.84-2.94A3.94,3.94,0,0,1,4,9L77,.53a3.92,3.92,0,0,1,3,.84A4,4,0,0,1,81.46,4l3.75,32.47a4,4,0,0,1-3.51,4.43h0l-73,8.44A3.71,3.71,0,0,1,8.25,49.41ZM77.49,2.5h-.24L4.27,11a2,2,0,0,0-1.34.74,2,2,0,0,0-.42,1.47L6.27,45.64a2,2,0,0,0,2.22,1.75l73-8.44a2,2,0,0,0,1.75-2.21L79.47,4.27a2,2,0,0,0-2-1.77ZM81.58,40h0Z"/><path class="cls-1" d="M14.58,44.18a1,1,0,0,1-1-.88A3.77,3.77,0,0,0,9.48,40a1,1,0,0,1-1.1-.88L6.05,19a1,1,0,0,1,.87-1.1,3.76,3.76,0,0,0,3.25-4.11,1,1,0,0,1,.88-1.09L70.94,5.74a1,1,0,0,1,1.11.87,3.8,3.8,0,0,0,4.14,3.25h.06a1,1,0,0,1,1.1.88l2.32,20.09a1,1,0,0,1-.87,1.11,3.76,3.76,0,0,0-3.29,4.16,1,1,0,0,1-.21.76,1,1,0,0,1-.66.39L14.7,44.18ZM10.27,38a5.8,5.8,0,0,1,5.1,4.08L73.5,35.36a5.77,5.77,0,0,1,4.08-5.21L75.47,11.87a5.8,5.8,0,0,1-5.19-4L12.17,14.55a5.73,5.73,0,0,1-4,5.09Z"/><path class="cls-3" d="M42.29,33.08l-.43-3.73-4.08.47-.27-2.32L41.59,27l-.1-.88-.39-.54L37.34,26l-.27-2.34,2.37-.28-4.52-5.94,3.55-.41,4.18,5.7,2.78-6.5L49,15.86l-3,6.81,2.34-.27.27,2.35-3.73.43-.28.62.1.88,4.08-.47L49,28.53,44.9,29l.43,3.73Z"/><path class="cls-4" d="M42.29,33.08l-.43-3.73-4.08.47-.27-2.32L41.59,27l-.1-.88-.39-.54L37.34,26l-.27-2.34,2.37-.28-4.52-5.94,3.55-.41,4.18,5.7,2.78-6.5L49,15.86l-3,6.81,2.34-.27.27,2.35-3.73.43-.28.62.1.88,4.08-.47L49,28.53,44.9,29l.43,3.73Z"/><path class="cls-5" d="M42.29,33.08l-.43-3.73-4.08.47-.27-2.32L41.59,27l-.1-.88-.39-.54L37.34,26l-.27-2.34,2.37-.28-4.52-5.94,3.55-.41,4.18,5.7,2.78-6.5L49,15.86l-3,6.81,2.34-.27.27,2.35-3.73.43-.28.62.1.88,4.08-.47L49,28.53,44.9,29l.43,3.73Z"/><path class="cls-6" d="M57.47,24.26a1,1,0,0,1-1-.88,1,1,0,0,1,.88-1.11l10.5-1.21a1,1,0,1,1,.23,2l-10.5,1.22Z"/><path class="cls-6" d="M18.42,28.78a1,1,0,0,1-.12-2l10.5-1.21a1,1,0,1,1,.23,2l-10.5,1.22Z"/></g></g></svg>