<svg xmlns="http://www.w3.org/2000/svg" viewBox="0 0 78.06 82.15"><defs><style>.cls-1,.cls-3{fill:#333;}.cls-1,.cls-2,.cls-6{stroke:#333;}.cls-1,.cls-4{stroke-miterlimit:10;}.cls-2,.cls-4,.cls-7{fill:#f08861;}.cls-2,.cls-6{stroke-linecap:round;stroke-linejoin:round;stroke-width:3px;}.cls-4{stroke:#f08861;}.cls-5{fill:#fff;}.cls-6{fill:none;}</style></defs><g id="レイヤー_2" data-name="レイヤー 2"><g id="レイヤー_1-2" data-name="レイヤー 1"><path class="cls-1" d="M61.18,81.65H4.5a4,4,0,0,1-4-4v-53a1,1,0,0,1,2,0v53a2,2,0,0,0,2,2H61.18a2,2,0,0,0,2-2v-20a1,1,0,0,1,2,0v20A4,4,0,0,1,61.18,81.65Z"/><path class="cls-1" d="M64.18,22.26a1,1,0,0,1-1-1V4.5a2,2,0,0,0-2-2H24.94a1,1,0,0,1,0-2H61.18a4,4,0,0,1,4,4V21.26A1,1,0,0,1,64.18,22.26Z"/><path class="cls-2" d="M24.75,1.5V21.65a3,3,0,0,1-3.1,3H1.5Z"/><path class="cls-3" d="M21.65,25.65H1.5A1,1,0,0,1,.58,25a1,1,0,0,1,.21-1.09L24,.79a1,1,0,0,1,1.71.71V21.65A4,4,0,0,1,21.65,25.65Zm-17.73-2H21.65a2,2,0,0,0,2.1-2V3.91Z"/><path class="cls-1" d="M53.55,34.68H12.89a1,1,0,0,1,0-2H53.55a1,1,0,0,1,0,2Z"/><path class="cls-1" d="M53.55,45.42H12.89a1,1,0,0,1,0-2H53.55a1,1,0,0,1,0,2Z"/><path class="cls-1" d="M53.55,56.17H12.89a1,1,0,0,1,0-2H53.55a1,1,0,0,1,0,2Z"/><path class="cls-4" d="M11.81,73.83a1,1,0,0,1-1-.66c-.86-2.42.68-5.79,2.26-8,1.14-1.55,2.13-2.33,3-2.28,1.55.06,1.75,2.13,2.06,5.28.06.69.15,1.58.25,2.26A37.87,37.87,0,0,0,21,65.55a1,1,0,0,1,.89-.59,1,1,0,0,1,.92.55l2.56,5.09c4.38-5.22,4.64-5.1,5.37-4.77a1.13,1.13,0,0,1,.6.91,10.67,10.67,0,0,0,6.27,4.83,6.8,6.8,0,0,0,5.64-.92,1,1,0,0,1,1.29,1.53,8.76,8.76,0,0,1-7.35,1.34,12.85,12.85,0,0,1-7.22-5.13c-1,1-2.62,3-4,4.66a1,1,0,0,1-1.66-.19l-2.31-4.6c-2.25,4.64-3.26,4.84-3.61,4.91a1.27,1.27,0,0,1-1.12-.32c-.64-.61-.8-1.94-1-4.43a31.61,31.61,0,0,0-.43-3.19c-1.26,1.18-3.75,5.1-3,7.26a1,1,0,0,1-.61,1.28A1,1,0,0,1,11.81,73.83ZM31.29,67Z"/><rect class="cls-5" x="57.31" y="23.98" width="9.32" height="38.9" transform="translate(34.14 -26.94) rotate(33.4)"/><path class="cls-1" d="M55.15,63.23a1,1,0,0,1-.55-.17l-7.78-5.13a1,1,0,0,1-.28-1.38L68,24.07a1,1,0,0,1,.63-.43,1,1,0,0,1,.76.15l7.77,5.13a1,1,0,0,1,.29,1.38L56,62.78a1,1,0,0,1-.63.43Zm-6.39-6.42,6.1,4L75.18,30l-6.11-4Z"/><polygon class="cls-6" points="44.35 71 47.39 57.22 55.1 62.3 44.35 71"/><polygon class="cls-7" points="44.35 71 47.39 57.22 55.1 62.3 44.35 71"/><path class="cls-3" d="M44.35,72a1,1,0,0,1-.52-.14,1,1,0,0,1-.45-1.07l3-13.78a1,1,0,0,1,1.53-.62l7.71,5.08a1,1,0,0,1,.08,1.61L45,71.78A1,1,0,0,1,44.35,72Zm3.7-13.14-2.11,9.57,7.47-6Z"/></g></g></svg>