<svg xmlns="http://www.w3.org/2000/svg" viewBox="0 0 142.5 41.83"><defs><style>.cls-1{fill:none;stroke-width:4px;}.cls-1,.cls-4,.cls-5{stroke:#333;stroke-miterlimit:10;}.cls-2{fill:#f08861;}.cls-3,.cls-4{fill:#fff;}.cls-4{stroke-width:3px;}.cls-5{fill:#333;}</style></defs><g id="レイヤー_2" data-name="レイヤー 2"><g id="レイヤー_1-2" data-name="レイヤー 1"><path class="cls-1" d="M131.43,25,139,32.55a3.57,3.57,0,1,1-5.05,5.05l-7.56-7.54Z"/><path class="cls-2" d="M131.43,25,139,32.55a3.57,3.57,0,1,1-5.05,5.05l-7.56-7.54Z"/><path class="cls-1" d="M124.14,24.23l4-4.35c2-1.79,6,.11,9.24-2.86,3-2.71,3.49-5.8,2.82-8.4a.64.64,0,0,0-.24-.51l-.61-.49a.45.45,0,0,0-.38-.13.49.49,0,0,0-.36.2l-3.46,4.5a.5.5,0,0,1-.42.21l-1.25.09a.55.55,0,0,1-.3-.11l-2.43-2.06a.49.49,0,0,1-.18-.32l-.15-1.14a.49.49,0,0,1,.09-.35l3.24-4.41a.49.49,0,0,0-.06-.65l-.79-.62c-.15-.14-.33-.12-.56-.07-2.24.44-6.07,2.61-7,5.6a10.58,10.58,0,0,0-.55,4.5,5.47,5.47,0,0,1-1.09,3.52L106.79,32.6l-.09.09a3.56,3.56,0,0,0,0,5,3.6,3.6,0,0,0,5,0l.19-.2,12.26-13.26"/><path class="cls-3" d="M124.14,24.23l4-4.35c2-1.79,6,.11,9.24-2.86,3-2.71,3.49-5.8,2.82-8.4a.64.64,0,0,0-.24-.51l-.61-.49a.45.45,0,0,0-.38-.13.49.49,0,0,0-.36.2l-3.46,4.5a.5.5,0,0,1-.42.21l-1.25.09a.55.55,0,0,1-.3-.11l-2.43-2.06a.49.49,0,0,1-.18-.32l-.15-1.14a.49.49,0,0,1,.09-.35l3.24-4.41a.49.49,0,0,0-.06-.65l-.79-.62c-.15-.14-.33-.12-.56-.07-2.24.44-6.07,2.61-7,5.6a10.58,10.58,0,0,0-.55,4.5,5.47,5.47,0,0,1-1.09,3.52L106.79,32.6l-.09.09a3.56,3.56,0,0,0,0,5,3.6,3.6,0,0,0,5,0l.19-.2,12.26-13.26"/><path class="cls-1" d="M109.49,11.44l5.88,5.89,2.54-2.43L112,9l-.72-3.21L106,2.53,104.52,4l-1.46,1.45,3.22,5.29Z"/><path class="cls-2" d="M109.49,11.44l5.88,5.89,2.54-2.43L112,9l-.72-3.21L106,2.53,104.52,4l-1.46,1.45,3.22,5.29Z"/><polygon class="cls-4" points="81.3 14.41 30.19 14.41 34.92 6.65 41.7 3.76 71.84 4.25 81.72 7.85 81.3 14.41"/><polygon class="cls-2" points="87.51 32.91 1.25 33.19 5.63 18.93 28.22 15.69 75.37 14.41 82.15 8.91 88.78 13.43 89.91 28.39 87.51 32.91"/><path class="cls-5" d="M1.5,34.93H1.43A1,1,0,0,1,.5,33.85c0-.46.88-11.5,4.86-15,3-2.65,14-3.8,20.2-4.25a5.68,5.68,0,0,0,3.26-1.3c.8-1.26,6.52-9.93,12.49-10.51,5.71-.55,25.12-.4,30.36.39s15.21,6.16,17.26,9.39c1.45,2.28,1.22,6.44.76,9.52a2.7,2.7,0,0,0,.47,1.95l.06.1a9.06,9.06,0,0,1,1.12,4.47c0,.41-.19,1.65-3.22,4.8a3.65,3.65,0,0,1-2.62,1.11H82.93a1,1,0,0,1,0-2H85.5a1.65,1.65,0,0,0,1.18-.5c1.89-2,2.62-3.19,2.67-3.64a7.09,7.09,0,0,0-.87-3.25,4.73,4.73,0,0,1-.76-3.33c.55-3.77.37-6.82-.48-8.16C85.52,11,76,5.88,71.37,5.17s-23.76-1-29.87-.37c-5.32.52-11,9.62-11.06,9.71l-.2.24a7.76,7.76,0,0,1-4.54,1.87c-10,.72-17.16,2.13-19,3.75C3.88,22.82,2.71,31,2.5,34A1,1,0,0,1,1.5,34.93Z"/><path class="cls-5" d="M72.09,16.1C27.92,16.1,28.21,16,28,16a1,1,0,0,1-.72-1.21A1,1,0,0,1,28.39,14c1.2.06,24,.08,43.7.08,2.75,0,5.2-2.41,5.22-2.43a1,1,0,0,1,1.41,0,1,1,0,0,1,0,1.41C78.6,13.2,75.66,16.1,72.09,16.1Z"/><path class="cls-5" d="M57.08,34.08H28.72a1,1,0,0,1,0-2H57.08a1,1,0,0,1,0,2Z"/><circle class="cls-3" cx="15.59" cy="32.91" r="7.42"/><path class="cls-5" d="M15.59,41.33A8.42,8.42,0,1,1,24,32.91,8.43,8.43,0,0,1,15.59,41.33Zm0-14.84A6.42,6.42,0,1,0,22,32.91,6.43,6.43,0,0,0,15.59,26.49Z"/><circle class="cls-3" cx="70.08" cy="32.91" r="7.42"/><path class="cls-5" d="M70.08,41.33a8.42,8.42,0,1,1,8.42-8.42A8.43,8.43,0,0,1,70.08,41.33Zm0-14.84a6.42,6.42,0,1,0,6.42,6.42A6.43,6.43,0,0,0,70.08,26.49Z"/><path class="cls-5" d="M86.07,11.82a1,1,0,0,1-1-.74c-.58-2.17,2.15-5.49,4-6.58-3.28.3-12,1.48-15.5,1.25a1,1,0,0,1,.14-2C77.61,4,87,2.85,89.07,2.62a1.81,1.81,0,0,1,1.72.8c.37.58.46,1.59,0,1.9s-4,4.36-3.8,5.25a1,1,0,0,1-.71,1.22A1.15,1.15,0,0,1,86.07,11.82Z"/></g></g></svg>