<svg xmlns="http://www.w3.org/2000/svg" viewBox="0 0 91.87 39.84"><defs><style>.cls-1{fill:#333;}.cls-1,.cls-3{stroke:#333;stroke-miterlimit:10;}.cls-2{fill:#f08861;}.cls-3{fill:none;stroke-width:2px;}</style></defs><g id="レイヤー_2" data-name="レイヤー 2"><g id="レイヤー_1-2" data-name="レイヤー 1"><path class="cls-1" d="M1.5,32.94H1.43A1,1,0,0,1,.5,31.87c0-.47.88-11.51,4.86-15,3-2.64,14-3.79,20.2-4.24a5.82,5.82,0,0,0,3.26-1.3c.8-1.26,6.52-9.94,12.49-10.51C47,.28,66.43.42,71.67,1.21s15.21,6.17,17.26,9.4c1.6,2.52,1.15,7.34.61,10.47l.68,1.1a9,9,0,0,1,1.12,4.46c0,.46-.22,1.94-4.34,5.92H85.47l-2.54,0a1,1,0,0,1-1-1,1,1,0,0,1,1-1h0l2.55,0h0a1.62,1.62,0,0,0,1.18-.51c1.89-2,2.62-3.18,2.67-3.63a7.09,7.09,0,0,0-.87-3.25,4.73,4.73,0,0,1-.76-3.33c.55-3.78.37-6.83-.48-8.16C85.52,9,76,3.89,71.37,3.19s-23.76-1-29.87-.37c-5.32.51-11,9.62-11.06,9.71l-.2.23a7.7,7.7,0,0,1-4.54,1.87c-10,.73-17.16,2.13-19,3.76C3.88,20.83,2.71,29.05,2.5,32A1,1,0,0,1,1.5,32.94Z"/><path class="cls-1" d="M72.09,14.12C27.92,14.12,28.21,14,28,14a1,1,0,0,1,.36-2c1.2.07,24,.09,43.7.09,2.75,0,5.2-2.41,5.22-2.44a1,1,0,0,1,1.41,1.42C78.6,11.22,75.66,14.12,72.09,14.12Z"/><path class="cls-1" d="M57.08,32.1H28.72a1,1,0,0,1,0-2H57.08a1,1,0,0,1,0,2Z"/><circle class="cls-2" cx="15.59" cy="30.92" r="7.42"/><path class="cls-1" d="M21.74,37.08c-9,6.9-19.2-3.34-12.31-12.31,9-6.89,19.21,3.34,12.31,12.31ZM20.28,26.23C13.44,21,5.64,28.78,10.9,35.62,17.73,40.88,25.54,33.07,20.28,26.23Z"/><circle class="cls-2" cx="70.08" cy="30.92" r="7.42"/><path class="cls-1" d="M76.24,37.08C67.27,44,57,33.74,63.92,24.77h0C72.9,17.87,83.13,28.11,76.24,37.08ZM74.77,26.23c-6.83-5.26-14.64,2.55-9.38,9.39C72.23,40.87,80,33.07,74.77,26.23Z"/><path class="cls-1" d="M86.07,9.84a1,1,0,0,1-1-.74c-.58-2.17,2.15-5.49,4-6.59-3.28.31-12,1.49-15.5,1.25a1,1,0,1,1,.14-2C77.61,2,87,.86,89.07.63a1.82,1.82,0,0,1,1.72.81c.37.57.46,1.59,0,1.9s-4,4.36-3.8,5.24a1,1,0,0,1-.71,1.23A1.15,1.15,0,0,1,86.07,9.84Z"/><polygon class="cls-3" points="33.48 24.22 30.66 21.4 33.48 18.59 32.2 17.31 29.39 20.13 26.57 17.31 25.3 18.59 28.11 21.4 25.3 24.22 26.57 25.49 29.39 22.67 32.2 25.49 33.48 24.22"/><polygon class="cls-2" points="33.48 24.22 30.66 21.4 33.48 18.59 32.2 17.31 29.39 20.13 26.57 17.31 25.3 18.59 28.11 21.4 25.3 24.22 26.57 25.49 29.39 22.67 32.2 25.49 33.48 24.22"/><polygon class="cls-3" points="59.74 26.32 58.4 24.98 59.74 23.64 59.13 23.04 57.79 24.37 56.45 23.04 55.85 23.64 57.19 24.98 55.85 26.32 56.45 26.92 57.79 25.58 59.13 26.92 59.74 26.32"/><polygon class="cls-2" points="59.74 26.32 58.4 24.98 59.74 23.64 59.13 23.04 57.79 24.37 56.45 23.04 55.85 23.64 57.19 24.98 55.85 26.32 56.45 26.92 57.79 25.58 59.13 26.92 59.74 26.32"/><polygon class="cls-3" points="86.41 19 84.63 17.21 86.41 15.43 85.61 14.62 83.82 16.41 82.04 14.62 81.23 15.43 83.02 17.21 81.23 19 82.04 19.8 83.82 18.02 85.61 19.8 86.41 19"/><polygon class="cls-2" points="86.41 19 84.63 17.21 86.41 15.43 85.61 14.62 83.82 16.41 82.04 14.62 81.23 15.43 83.02 17.21 81.23 19 82.04 19.8 83.82 18.02 85.61 19.8 86.41 19"/></g></g></svg>