<svg xmlns="http://www.w3.org/2000/svg" viewBox="0 0 91.87 57.3"><defs><style>.cls-1{fill:#333;}.cls-1,.cls-3{stroke:#333;stroke-miterlimit:10;}.cls-2{fill:#f08861;}.cls-3{fill:none;stroke-linecap:round;stroke-width:3px;}</style></defs><g id="レイヤー_2" data-name="レイヤー 2"><g id="レイヤー_1-2" data-name="レイヤー 1"><path class="cls-1" d="M1.5,50.4H1.43A1,1,0,0,1,.5,49.32c0-.46.88-11.51,4.86-15,3-2.65,14-3.8,20.2-4.25a5.68,5.68,0,0,0,3.26-1.3c.8-1.26,6.52-9.93,12.49-10.51,5.71-.55,25.12-.4,30.36.39s15.21,6.16,17.26,9.39c1.45,2.28,1.22,6.44.76,9.52a2.7,2.7,0,0,0,.47,2l.06.1a9.06,9.06,0,0,1,1.12,4.47c0,.41-.19,1.65-3.22,4.8A3.65,3.65,0,0,1,85.5,50H82.93a1,1,0,0,1,0-2H85.5a1.65,1.65,0,0,0,1.18-.5c1.89-2,2.62-3.19,2.67-3.64a7.09,7.09,0,0,0-.87-3.25,4.73,4.73,0,0,1-.76-3.33c.55-3.77.37-6.82-.48-8.16C85.52,26.42,76,21.35,71.37,20.64s-23.76-.95-29.87-.37c-5.32.51-11,9.62-11.06,9.71l-.2.23a7.71,7.71,0,0,1-4.54,1.88c-10,.72-17.16,2.13-19,3.75-2.8,2.45-4,10.67-4.18,13.63A1,1,0,0,1,1.5,50.4Z"/><path class="cls-1" d="M72.09,31.57c-44.17,0-43.88-.08-44.06-.12a1,1,0,0,1-.72-1.21,1,1,0,0,1,1.08-.75c1.2.06,24,.08,43.7.08,2.75,0,5.2-2.41,5.22-2.43a1,1,0,0,1,1.41,0,1,1,0,0,1,0,1.41C78.6,28.67,75.66,31.57,72.09,31.57Z"/><path class="cls-1" d="M57.08,49.55H28.72a1,1,0,0,1,0-2H57.08a1,1,0,0,1,0,2Z"/><circle class="cls-2" cx="15.59" cy="48.38" r="7.42"/><path class="cls-1" d="M15.59,56.8A8.42,8.42,0,1,1,24,48.38,8.43,8.43,0,0,1,15.59,56.8Zm0-14.84A6.42,6.42,0,1,0,22,48.38,6.43,6.43,0,0,0,15.59,42Z"/><circle class="cls-2" cx="70.08" cy="48.38" r="7.42"/><path class="cls-1" d="M70.08,56.8a8.42,8.42,0,1,1,8.42-8.42A8.43,8.43,0,0,1,70.08,56.8Zm0-14.84a6.42,6.42,0,1,0,6.42,6.42A6.43,6.43,0,0,0,70.08,42Z"/><path class="cls-1" d="M86.07,27.29a1,1,0,0,1-1-.74c-.58-2.17,2.15-5.49,4-6.58-3.28.3-12,1.48-15.5,1.25a1,1,0,0,1-.93-1.07,1,1,0,0,1,1.07-.93c3.9.26,13.31-.91,15.36-1.14a1.84,1.84,0,0,1,1.72.81c.37.58.46,1.59,0,1.9s-4,4.36-3.8,5.25a1,1,0,0,1-.71,1.22A1.15,1.15,0,0,1,86.07,27.29Z"/><path class="cls-3" d="M27,1.5l6.31,6.31a.34.34,0,0,1,0,.49l-6.46,6.47"/><path class="cls-3" d="M20.88,21.74H15.23A6.8,6.8,0,0,1,8.45,15h0a6.8,6.8,0,0,1,6.78-6.78H31.42"/></g></g></svg>