<svg xmlns="http://www.w3.org/2000/svg" viewBox="0 0 203.19 100.21"><defs><style>.cls-1{fill:#333;}.cls-1,.cls-3,.cls-4{stroke:#333;}.cls-1,.cls-3{stroke-miterlimit:10;}.cls-2{fill:#f08861;}.cls-3,.cls-4{fill:none;stroke-linecap:round;stroke-width:3px;}.cls-4{stroke-linejoin:round;}</style></defs><g id="レイヤー_2" data-name="レイヤー 2"><g id="レイヤー_1-2" data-name="レイヤー 1"><path class="cls-1" d="M112.83,93.31h-.08a1,1,0,0,1-.92-1.07c0-.46.87-11.5,4.86-15,3-2.65,13.95-3.8,20.19-4.25a5.68,5.68,0,0,0,3.27-1.3c.8-1.26,6.51-9.93,12.49-10.51,5.7-.55,25.12-.4,30.36.39s15.21,6.16,17.26,9.39c1.6,2.52,1.14,7.35.61,10.47l.68,1.1A9.29,9.29,0,0,1,202.67,87c-.06.45-.23,1.93-4.34,5.91h-4.08a1,1,0,0,1-1-1,1,1,0,0,1,1-1h2.56a1.66,1.66,0,0,0,1.19-.5c1.89-2,2.62-3.19,2.67-3.64a7.21,7.21,0,0,0-.87-3.25A4.68,4.68,0,0,1,199,80.2c.55-3.77.38-6.82-.47-8.16-1.72-2.71-11.21-7.78-15.87-8.49s-23.76-.95-29.87-.37c-5.32.52-11,9.62-11.07,9.71l-.2.24A7.76,7.76,0,0,1,137,75c-10,.72-17.17,2.13-19,3.75-2.79,2.45-4,10.67-4.18,13.63A1,1,0,0,1,112.83,93.31Z"/><path class="cls-1" d="M183.41,74.48c-44.17,0-43.88-.08-44-.12a1,1,0,0,1-.73-1.21,1,1,0,0,1,1.09-.75c1.2.06,24,.08,43.69.08,2.76,0,5.2-2.41,5.23-2.43a1,1,0,1,1,1.41,1.41C189.93,71.58,187,74.48,183.41,74.48Z"/><path class="cls-1" d="M168.41,92.46H140a1,1,0,0,1,0-2h28.37a1,1,0,0,1,0,2Z"/><circle class="cls-2" cx="126.91" cy="91.29" r="7.42"/><path class="cls-1" d="M133.07,97.44c-9,6.9-19.21-3.34-12.31-12.31,9-6.89,19.2,3.34,12.31,12.31Zm-1.46-10.85c-6.84-5.25-14.65,2.55-9.39,9.39C129.06,101.24,136.86,93.43,131.61,86.59Z"/><circle class="cls-2" cx="181.41" cy="91.29" r="7.42"/><path class="cls-1" d="M187.56,97.44c-9,6.9-19.2-3.33-12.31-12.31h0C184.22,78.24,194.46,88.47,187.56,97.44ZM186.1,86.6c-6.84-5.26-14.64,2.54-9.39,9.38C183.56,101.24,191.36,93.43,186.1,86.6Z"/><path class="cls-1" d="M197.4,70.2a1,1,0,0,1-1-.74c-.57-2.17,2.16-5.49,4-6.58-3.28.3-12,1.48-15.5,1.25a1,1,0,0,1,.13-2c3.91.26,13.32-.91,15.37-1.14a1.81,1.81,0,0,1,1.71.81c.38.58.47,1.59.06,1.9s-4,4.36-3.8,5.25a1,1,0,0,1-.71,1.22Z"/><circle class="cls-2" cx="18.35" cy="91.29" r="7.42"/><path class="cls-1" d="M24.51,97.44c-9,6.9-19.21-3.34-12.32-12.31,9-6.89,19.21,3.34,12.32,12.31ZM23,86.59C16.2,81.34,8.4,89.14,13.66,96,20.5,101.24,28.3,93.43,23,86.59Z"/><circle class="cls-2" cx="72.18" cy="91.29" r="7.42"/><path class="cls-1" d="M78.34,97.44c-9,6.9-19.21-3.34-12.31-12.31,9-6.89,19.2,3.34,12.31,12.31ZM76.88,86.59C70,81.34,62.23,89.14,67.49,96,74.33,101.24,82.14,93.43,76.88,86.59Z"/><path class="cls-3" d="M71.26,73.49l-4.07,3.17a3.71,3.71,0,0,1-2.31.79h-48C14,77.45,6.39,80.7,4.7,82.54c-1,1-2.18,3.76-3.05,5.89a2.08,2.08,0,0,0,1.94,2.86h2"/><path class="cls-3" d="M84.35,90.87l2.81-.27A3.35,3.35,0,0,0,89.74,89L90.3,88c.58-1-.86-5.76-2-8.85a4.1,4.1,0,0,0-3.43-2.68l-6.81-.71"/><line class="cls-3" x1="31.41" y1="91.15" x2="59.64" y2="91.15"/><path class="cls-3" d="M31,77.2,43.62,65a5.66,5.66,0,0,1,3.61-1.31L69,63.85a5.28,5.28,0,0,1,4.72,2.93L77.83,75"/><line class="cls-3" x1="87.31" y1="76.75" x2="90.49" y2="75.48"/><path class="cls-3" d="M57.47,37.18a1,1,0,0,1-.92-1l.12-7.9a1.07,1.07,0,0,1,.86-1L59,27A1.2,1.2,0,0,0,60,26l.65-6.7a2.25,2.25,0,0,1,2-2l21.59-2.63a4,4,0,0,0,2.44-1.26L96.34,2.74A3.62,3.62,0,0,1,99,1.57l44.4-.07a2.52,2.52,0,0,1,2.51,2.29l2.22,24.88,1.45.29a1,1,0,0,1,.8,1l-.1,3.58a2.13,2.13,0,0,1-1.25,1.88l-2.87,1.27"/><path class="cls-3" d="M82.28,14.88l33.33-.14a2,2,0,0,0,2-2L117.72,7"/><circle class="cls-2" cx="134.28" cy="38.28" r="7.42"/><circle class="cls-3" cx="134.28" cy="38.28" r="7.49"/><circle class="cls-2" cx="69.72" cy="38.28" r="7.42"/><circle class="cls-3" cx="69.72" cy="38.28" r="7.49"/><path class="cls-4" d="M139.59,15.69l-14.67.19a1.05,1.05,0,0,1-1.06-1l-.16-7a1,1,0,0,1,1-1.08h14.83a1,1,0,0,1,1.05,1v6.81A1,1,0,0,1,139.59,15.69Z"/><line class="cls-3" x1="151.18" y1="11.47" x2="152.4" y2="25.5"/><path class="cls-3" d="M120.62,37.19l5.66-9.63a3.42,3.42,0,0,1,2.95-1.69h10.64A3.76,3.76,0,0,1,142.6,27l1,1"/><path class="cls-3" d="M89.52,37.41l26-.34"/><path class="cls-3" d="M63.75,27.76s.78-.49,1.29-.88a2.56,2.56,0,0,1,1.58-.54H74.1a4.29,4.29,0,0,1,3.45,1.75l6.62,9"/></g></g></svg>