<svg xmlns="http://www.w3.org/2000/svg" viewBox="0 0 91.87 91.46"><defs><style>.cls-1{fill:#333;stroke:#333;stroke-miterlimit:10;}.cls-2{fill:#f08861;}</style></defs><g id="レイヤー_2" data-name="レイヤー 2"><g id="レイヤー_1-2" data-name="レイヤー 1"><path class="cls-1" d="M1.5,59.84H1.43A1,1,0,0,1,.5,58.77c0-.47.88-11.51,4.86-15,3-2.65,14-3.8,20.2-4.25a5.68,5.68,0,0,0,3.26-1.3c.8-1.26,6.52-9.93,12.49-10.51,5.71-.54,25.12-.4,30.36.39s15.21,6.16,17.26,9.39c1.45,2.28,1.22,6.44.76,9.52A2.7,2.7,0,0,0,90.16,49l.06.11a9,9,0,0,1,1.12,4.46c0,.41-.19,1.65-3.22,4.8a3.65,3.65,0,0,1-2.62,1.11H82.93a1,1,0,0,1,0-2H85.5a1.65,1.65,0,0,0,1.18-.5c1.89-2,2.62-3.19,2.67-3.64a7,7,0,0,0-.87-3.24,4.76,4.76,0,0,1-.76-3.34c.55-3.77.37-6.82-.48-8.16-1.72-2.7-11.21-7.78-15.87-8.48s-23.76-1-29.87-.37c-5.32.51-11,9.61-11.06,9.7l-.2.24a7.76,7.76,0,0,1-4.54,1.87c-10,.72-17.16,2.13-19,3.76C3.88,47.73,2.71,56,2.5,58.91A1,1,0,0,1,1.5,59.84Z"/><path class="cls-1" d="M72.09,41c-44.17,0-43.88-.08-44.06-.12a1,1,0,0,1-.72-1.21,1,1,0,0,1,1.08-.75c1.2.06,24,.08,43.7.08,2.75,0,5.2-2.41,5.22-2.43a1,1,0,0,1,1.41,0,1,1,0,0,1,0,1.41C78.6,38.12,75.66,41,72.09,41Z"/><path class="cls-1" d="M57.08,59H28.72a1,1,0,0,1,0-2H57.08a1,1,0,0,1,0,2Z"/><circle class="cls-2" cx="15.59" cy="57.82" r="7.42"/><path class="cls-1" d="M15.59,66.24A8.42,8.42,0,1,1,24,57.82,8.43,8.43,0,0,1,15.59,66.24Zm0-14.84A6.42,6.42,0,1,0,22,57.82,6.43,6.43,0,0,0,15.59,51.4Z"/><circle class="cls-2" cx="70.08" cy="57.82" r="7.42"/><path class="cls-1" d="M70.08,66.24a8.42,8.42,0,1,1,8.42-8.42A8.43,8.43,0,0,1,70.08,66.24Zm0-14.84a6.42,6.42,0,1,0,6.42,6.42A6.43,6.43,0,0,0,70.08,51.4Z"/><path class="cls-1" d="M86.07,36.74a1,1,0,0,1-1-.75c-.58-2.17,2.15-5.49,4-6.58-3.28.3-12,1.48-15.5,1.25a1,1,0,0,1,.14-2c3.9.26,13.31-.9,15.36-1.13a1.81,1.81,0,0,1,1.72.8c.37.58.46,1.6,0,1.9s-4,4.36-3.8,5.25a1,1,0,0,1-.71,1.22A1.17,1.17,0,0,1,86.07,36.74Z"/><path class="cls-1" d="M55.11,18.87a1.09,1.09,0,0,1-.77-.32l-8.1-8.1a1.09,1.09,0,0,1,0-1.53l8.1-8.1a1.07,1.07,0,0,1,1.53,0,1.07,1.07,0,0,1,0,1.53L48.54,9.68,55.87,17a1.07,1.07,0,0,1,0,1.53A1.09,1.09,0,0,1,55.11,18.87Z"/><path class="cls-1" d="M38.93,91a1,1,0,0,1-.76-.32,1.07,1.07,0,0,1,0-1.53l7.33-7.33-7.33-7.33a1.09,1.09,0,0,1,1.53-1.54L47.8,81a1.09,1.09,0,0,1,0,1.53l-8.1,8.1A1.05,1.05,0,0,1,38.93,91Z"/><path class="cls-1" d="M11.84,37.25a.9.9,0,0,1-.28,0,1.09,1.09,0,0,1-.77-1.33A37.29,37.29,0,0,1,39.62,9.2a1.08,1.08,0,1,1,.4,2.13A35.12,35.12,0,0,0,12.89,36.45,1.09,1.09,0,0,1,11.84,37.25Z"/><path class="cls-1" d="M44.82,82.71h-.06a36.73,36.73,0,0,1-22.38-8.95,1.08,1.08,0,0,1,1.42-1.64,34.59,34.59,0,0,0,21.07,8.42,1.09,1.09,0,0,1,0,2.17Z"/><path class="cls-1" d="M53.72,82.05a1.09,1.09,0,0,1-1.06-.88,1.07,1.07,0,0,1,.85-1.27,35,35,0,0,0,15.92-7.81,1.08,1.08,0,1,1,1.42,1.64A37,37,0,0,1,53.94,82,.83.83,0,0,1,53.72,82.05Z"/><path class="cls-1" d="M73.39,22.67a1.12,1.12,0,0,1-.81-.36A34.66,34.66,0,0,0,48.23,10.75a1.08,1.08,0,1,1,.1-2.16A36.79,36.79,0,0,1,74.2,20.85a1.1,1.1,0,0,1-.08,1.54A1.13,1.13,0,0,1,73.39,22.67Z"/></g></g></svg>