<svg xmlns="http://www.w3.org/2000/svg" viewBox="0 0 80.12 47.17"><defs><style>.cls-1,.cls-2{fill:#333;}.cls-1{stroke:#333;stroke-miterlimit:10;}.cls-3{fill:#f08861;}.cls-4{fill:none;fill-rule:evenodd;}</style></defs><g id="レイヤー_2" data-name="レイヤー 2"><g id="レイヤー_1-2" data-name="レイヤー 1"><path class="cls-1" d="M75.62,46.67H4.5a4,4,0,0,1-4-4V4.5a4,4,0,0,1,4-4H75.62a4,4,0,0,1,4,4V42.67A4,4,0,0,1,75.62,46.67ZM4.5,2.5a2,2,0,0,0-2,2V42.67a2,2,0,0,0,2,2H75.62a2,2,0,0,0,2-2V4.5a2,2,0,0,0-2-2Z"/><rect class="cls-2" x="1.25" y="10.48" width="76.87" height="7.99"/><rect class="cls-3" x="8.04" y="24.75" width="15.6" height="14.27" rx="2"/><path class="cls-2" d="M21.64,40H10a3,3,0,0,1-3-3V26.75a3,3,0,0,1,3-3h11.6a3,3,0,0,1,3,3V37A3,3,0,0,1,21.64,40ZM10,25.75a1,1,0,0,0-1,1V37a1,1,0,0,0,1,1h11.6a1,1,0,0,0,1-1V26.75a1,1,0,0,0-1-1Z"/><path class="cls-2" d="M73.13,6.82,71.36,8.66a.36.36,0,0,1-.63-.25V4.88a.36.36,0,0,1,.62-.26l1.76,1.69A.36.36,0,0,1,73.13,6.82Z"/><path class="cls-4" d="M73.13,6.82,71.36,8.66a.36.36,0,0,1-.63-.25V4.88a.36.36,0,0,1,.62-.26l1.76,1.69A.36.36,0,0,1,73.13,6.82Z"/><path class="cls-2" d="M37.31,37.14a4.63,4.63,0,0,1-2.41-.63,4.48,4.48,0,0,1-1.66-1.81,6.67,6.67,0,0,1,0-5.53,4.48,4.48,0,0,1,1.66-1.81,4.89,4.89,0,0,1,4.69-.08,4.41,4.41,0,0,1,1.62,1.59l-1.65.95a2.53,2.53,0,0,0-.92-1,2.65,2.65,0,0,0-1.33-.33,2.44,2.44,0,0,0-1.45.43,2.79,2.79,0,0,0-1,1.19,4.91,4.91,0,0,0,0,3.59,2.88,2.88,0,0,0,1,1.2,2.51,2.51,0,0,0,1.45.43A2.56,2.56,0,0,0,38.64,35a2.62,2.62,0,0,0,.92-.95l1.65.94a4.38,4.38,0,0,1-1.62,1.58A4.69,4.69,0,0,1,37.31,37.14Z"/><path class="cls-2" d="M41.8,36.9,45.53,27h1.63l3.73,9.92H48.8l-.66-2H44.5l-.67,2Zm3.29-3.67h2.47l-1.22-3.6Z"/><path class="cls-2" d="M52,36.9V27h4.59a4.22,4.22,0,0,1,1.62.29,2.12,2.12,0,0,1,1.06.92,3.36,3.36,0,0,1,.38,1.71,3.05,3.05,0,0,1-.57,2,2.67,2.67,0,0,1-1.58.86l2,4.13H57.32l-1.76-4H53.79v4Zm1.84-5.76h2.49a1.62,1.62,0,0,0,1-.29,1.11,1.11,0,0,0,.37-1,1.09,1.09,0,0,0-.37-.93,1.62,1.62,0,0,0-1-.29H53.79Z"/><path class="cls-2" d="M61,36.9V27H64.3a5.79,5.79,0,0,1,2.54.53,3.83,3.83,0,0,1,1.7,1.61,5.72,5.72,0,0,1,.61,2.82,5.67,5.67,0,0,1-.61,2.8,3.82,3.82,0,0,1-1.7,1.63,5.65,5.65,0,0,1-2.54.53Zm1.84-1.7h1.29a3.1,3.1,0,0,0,2.23-.79,3.29,3.29,0,0,0,.83-2.47,3.29,3.29,0,0,0-.83-2.47,3.15,3.15,0,0,0-2.23-.79H62.87Z"/></g></g></svg>