<svg xmlns="http://www.w3.org/2000/svg" viewBox="0 0 106.86 75.66"><defs><style>.cls-1,.cls-6{fill:none;}.cls-1,.cls-4,.cls-6{stroke:#333;stroke-miterlimit:10;}.cls-1{stroke-width:4px;}.cls-2{fill:#f08861;}.cls-3{fill:#fff;}.cls-4,.cls-5{fill:#333;}.cls-6{stroke-width:3px;}</style></defs><g id="レイヤー_2" data-name="レイヤー 2"><g id="レイヤー_1-2" data-name="レイヤー 1"><path class="cls-1" d="M26.79,23.42l3.95,3.94A1.86,1.86,0,1,1,28.1,30l-4-3.94Z"/><path class="cls-2" d="M26.79,23.42l3.95,3.94A1.86,1.86,0,1,1,28.1,30l-4-3.94Z"/><path class="cls-1" d="M23,23l2.1-2.28c1.05-.93,3.12.06,4.83-1.49a4.27,4.27,0,0,0,1.48-4.39.35.35,0,0,0-.13-.27l-.32-.25a.24.24,0,0,0-.2-.07.25.25,0,0,0-.18.1l-1.81,2.36a.23.23,0,0,1-.22.1l-.66.05a.22.22,0,0,1-.15-.06l-1.27-1.07a.22.22,0,0,1-.09-.17L26.28,15a.25.25,0,0,1,0-.19l1.7-2.3a.26.26,0,0,0,0-.34l-.41-.32c-.08-.08-.17-.07-.29,0a5.32,5.32,0,0,0-3.68,2.93,5.63,5.63,0,0,0-.29,2.35,2.8,2.8,0,0,1-.57,1.83l-8.83,8.48-.05.05A1.85,1.85,0,1,0,16.47,30l.1-.11L23,23"/><path class="cls-3" d="M23,23l2.1-2.28c1.05-.93,3.12.06,4.83-1.49a4.27,4.27,0,0,0,1.48-4.39.35.35,0,0,0-.13-.27l-.32-.25a.24.24,0,0,0-.2-.07.25.25,0,0,0-.18.1l-1.81,2.36a.23.23,0,0,1-.22.1l-.66.05a.22.22,0,0,1-.15-.06l-1.27-1.07a.22.22,0,0,1-.09-.17L26.28,15a.25.25,0,0,1,0-.19l1.7-2.3a.26.26,0,0,0,0-.34l-.41-.32c-.08-.08-.17-.07-.29,0a5.32,5.32,0,0,0-3.68,2.93,5.63,5.63,0,0,0-.29,2.35,2.8,2.8,0,0,1-.57,1.83l-8.83,8.48-.05.05A1.85,1.85,0,1,0,16.47,30l.1-.11L23,23"/><path class="cls-1" d="M15.33,16.32,18.4,19.4l1.32-1.27L16.63,15l-.38-1.68-2.77-1.68-.76.76-.75.76L13.65,16Z"/><path class="cls-2" d="M15.33,16.32,18.4,19.4l1.32-1.27L16.63,15l-.38-1.68-2.77-1.68-.76.76-.75.76L13.65,16Z"/><path class="cls-4" d="M16.5,68.76h-.08a1,1,0,0,1-.92-1.07c0-.47.87-11.51,4.85-15,3-2.64,14-3.79,20.2-4.24a5.79,5.79,0,0,0,3.27-1.31c.8-1.26,6.51-9.93,12.48-10.5,5.71-.55,25.13-.41,30.37.38s15.21,6.16,17.26,9.39c1.6,2.53,1.14,7.35.61,10.47l.68,1.11a9.2,9.2,0,0,1,1.12,4.46c-.06.45-.23,1.94-4.34,5.92h-1.53l-2.55,0a1,1,0,0,1,0-2h0l2.54,0h0a1.67,1.67,0,0,0,1.19-.51c1.89-2,2.62-3.19,2.67-3.64a7.17,7.17,0,0,0-.87-3.24,4.7,4.7,0,0,1-.77-3.34c.55-3.77.38-6.82-.47-8.16C100.52,44.79,91,39.71,86.37,39s-23.77-1-29.87-.37c-5.32.51-11,9.61-11.07,9.71l-.2.23a7.76,7.76,0,0,1-4.53,1.87c-10.05.72-17.17,2.13-19,3.76-2.79,2.44-4,10.66-4.18,13.62A1,1,0,0,1,16.5,68.76Z"/><path class="cls-4" d="M87.08,49.94c-44.17,0-43.88-.09-44-.13a1,1,0,0,1-.73-1.21,1,1,0,0,1,1.09-.75c1.2.06,24,.09,43.69.09,2.76,0,5.2-2.42,5.23-2.44a1,1,0,0,1,1.41,1.41C93.6,47,90.66,49.94,87.08,49.94Z"/><path class="cls-4" d="M72.08,67.91H43.71a1,1,0,0,1,0-2H72.08a1,1,0,1,1,0,2Z"/><circle class="cls-2" cx="30.58" cy="66.74" r="7.42"/><path class="cls-4" d="M36.74,72.89c-9,6.9-19.21-3.33-12.31-12.31,9-6.89,19.2,3.34,12.31,12.31ZM35.27,62.05c-6.84-5.26-14.64,2.54-9.38,9.38C32.73,76.69,40.53,68.89,35.27,62.05Z"/><circle class="cls-2" cx="85.08" cy="66.74" r="7.42"/><path class="cls-4" d="M91.23,72.9c-9,6.89-19.2-3.34-12.31-12.31h0C87.89,53.69,98.13,63.92,91.23,72.9ZM89.77,62.05c-6.84-5.26-14.64,2.54-9.39,9.38C87.22,76.69,95,68.89,89.77,62.05Z"/><path class="cls-4" d="M101.07,45.66a1,1,0,0,1-1-.75c-.57-2.17,2.15-5.49,4-6.58-3.27.31-12,1.48-15.49,1.25a1,1,0,0,1,.13-2c3.91.26,13.32-.9,15.37-1.13a1.78,1.78,0,0,1,1.71.8c.38.58.47,1.6,0,1.9s-4,4.36-3.79,5.25a1,1,0,0,1-.71,1.22A.82.82,0,0,1,101.07,45.66Z"/><rect class="cls-5" x="21.22" y="0.51" width="3" height="40.27" transform="translate(-7.95 22.11) rotate(-45)"/><circle class="cls-6" cx="21.26" cy="21.26" r="19.76"/></g></g></svg>