<svg xmlns="http://www.w3.org/2000/svg" viewBox="0 0 448.54 192.39"><defs><style>.cls-1{fill:#f08861;}.cls-2{fill:#333;}.cls-2,.cls-3{stroke:#333;stroke-miterlimit:10;}.cls-3,.cls-4{fill:#fff;}.cls-3{stroke-width:11px;}</style></defs><g id="レイヤー_2" data-name="レイヤー 2"><g id="レイヤー_1-2" data-name="レイヤー 1"><polygon class="cls-1" points="320.51 151.47 9.27 151.47 18.59 95 43.24 76.55 130.58 63.75 194.58 7.66 320.51 7.06 320.51 151.47"/><path class="cls-2" d="M5.43,160.29H5.07A4.94,4.94,0,0,1,.51,155C.68,152.7,4.83,98.32,24.44,81.2c14.9-13,68.72-18.69,99.48-20.91A28.43,28.43,0,0,0,140,53.89C143.94,47.67,172.09,5,201.5,2.13,229.61-.58,325.23.12,351,4c26.46,4,74.92,30.37,85,46.27,7.89,12.42,5.64,36.17,3,51.56l3.34,5.44c.68,1.27,6.58,12.62,5.51,22-.25,2.23-1.09,9.53-21.36,29.13H419l-12.54-.08a4.93,4.93,0,0,1,0-9.85h0l12.54.08h.06a8.14,8.14,0,0,0,5.82-2.49c9.31-9.67,12.91-15.69,13.17-17.91.59-5.22-2.79-13.09-4.29-16a23.16,23.16,0,0,1-3.78-16.41c2.71-18.59,1.85-33.62-2.33-40.19-8.46-13.34-55.21-38.34-78.16-41.81C326,10.2,232.53,9,202.44,11.93,176.25,14.45,148.23,59.29,148,59.75l-1,1.14a38.2,38.2,0,0,1-22.35,9.23c-49.5,3.57-84.53,10.48-93.7,18.5-13.77,12-19.52,52.51-20.58,67.1A4.93,4.93,0,0,1,5.43,160.29Z"/><path class="cls-2" d="M279.18,156.12H139.48a4.93,4.93,0,1,1,0-9.85h139.7a4.93,4.93,0,0,1,0,9.85Z"/><circle class="cls-3" cx="74.81" cy="150.35" r="36.54"/><circle class="cls-3" cx="343.21" cy="150.35" r="36.54"/><path class="cls-2" d="M422,46.51a4.94,4.94,0,0,1-4.76-3.67c-2.83-10.68,10.6-27,19.52-32.42-16.14,1.51-59.18,7.31-76.32,6.16a4.93,4.93,0,0,1,.66-9.83C380.3,8,426.65,2.28,436.75,1.15a8.86,8.86,0,0,1,8.43,4c1.86,2.84,2.29,7.85.27,9.36S425.58,36,426.73,40.32a4.92,4.92,0,0,1-3.49,6A5.61,5.61,0,0,1,422,46.51Z"/><path class="cls-4" d="M183,80.57q0-.5.06-1.44c0-.63,0-1.34,0-2.12s0-1.6,0-2.44,0-1.65,0-2.41,0-1.42-.06-2-.06-1-.09-1.23c.32,0,.73.06,1.24.09l1.53.06,1.22,0q-.08.61-.09,1.11c0,.33,0,.7,0,1.13V72.9c0,.52,0,1.15,0,1.88s0,1.48,0,2.25,0,1.47,0,2.1a12.05,12.05,0,0,0,.06,1.41l-1.9,0C184.14,80.52,183.51,80.53,183,80.57ZM187,89.12c-.18-.28-.42-.62-.72-1s-.64-.77-1-1.17-.68-.74-1-1a17.88,17.88,0,0,0,2.87-1.17,6.63,6.63,0,0,0,1.94-1.51,6.21,6.21,0,0,0,1.16-2.16,13.43,13.43,0,0,0,.57-3.1c.1-1.21.15-2.67.15-4.37,0-1.21,0-2.24,0-3.09s-.08-1.47-.12-1.86h.42l.47,0,1.82.08c.64,0,1.14,0,1.48,0,0,.24-.06.61-.08,1.11s0,1.08-.06,1.72,0,1.31,0,2q0,2.69-.18,4.74a17.89,17.89,0,0,1-.65,3.63,9.72,9.72,0,0,1-1.34,2.83,9.86,9.86,0,0,1-2.28,2.28A21.15,21.15,0,0,1,187,89.12Z"/><path class="cls-4" d="M207.39,80.54c0-.28,0-.65,0-1.11s0-.91,0-1.36,0-.83,0-1.11l1.44.06,2.71,0,3.47,0h7.31c1.11,0,2,0,2.84,0s1.32-.05,1.6-.08c0,.25,0,.61,0,1.07s0,.93,0,1.38,0,.82,0,1.09l-1.67-.06q-1.14,0-2.67-.06t-3.27,0h-3.52c-1.18,0-2.3,0-3.38,0s-2,0-2.86.06S207.86,80.5,207.39,80.54Z"/><path class="cls-4" d="M238,88.2a15,15,0,0,0-1.26-1.41,13.7,13.7,0,0,0-1.49-1.32,23.71,23.71,0,0,0,3.87-2.25,29.65,29.65,0,0,0,3.48-2.89,26.43,26.43,0,0,0,2.81-3.19,16.75,16.75,0,0,0,1.88-3.22l-1.47,0-2.21,0c-.81,0-1.64,0-2.47.07l-2.3.11c-.7,0-1.25.08-1.64.13q0-.48-.06-1.17c0-.47,0-.94,0-1.42s0-.89-.05-1.23c.47,0,1.08,0,1.84.07s1.58,0,2.48,0,1.83,0,2.77,0,1.85,0,2.71,0,1.64-.06,2.31-.1,1.2-.08,1.56-.13l.49.5.63.59c.21.18.37.33.48.44a4.88,4.88,0,0,0-.63,1.09c-.19.42-.37.82-.55,1.18a23.87,23.87,0,0,1-1.29,2.58,27.31,27.31,0,0,1-1.61,2.46c.51.33,1.08.74,1.74,1.24s1.31,1,2,1.55,1.31,1.08,1.9,1.6a17.65,17.65,0,0,1,1.42,1.36c-.23.18-.55.44-.95.8s-.79.72-1.16,1.08a11.39,11.39,0,0,0-.81.83q-.48-.54-1.26-1.32c-.53-.52-1.1-1.05-1.72-1.6s-1.23-1.07-1.82-1.57-1.1-.9-1.54-1.23a33.35,33.35,0,0,1-3.75,3.46A31.11,31.11,0,0,1,238,88.2Z"/><path class="cls-4" d="M267,89.29V82.52c-.44.57-.89,1.1-1.34,1.59a16.13,16.13,0,0,1-1.3,1.31,8.21,8.21,0,0,0-1.08-1.15,6.56,6.56,0,0,0-1.23-.92,16,16,0,0,0,1.62-1.52,22.57,22.57,0,0,0,1.58-1.89,16.27,16.27,0,0,0,1.3-2h-3.42V75H267V67.91h3.13V75h3.25V78h-3.08c.31.35.69.73,1.14,1.16s.9.82,1.34,1.2.83.68,1.15.9a1.8,1.8,0,0,0-.19.2l-.21.22c.75-.09,1.64-.22,2.67-.38s2.06-.33,3.1-.52V73.31c-.3.28-.62.59-.95.93a6.59,6.59,0,0,0-.77.86c-.27-.32-.59-.66-.95-1s-.76-.73-1.16-1.09a9,9,0,0,0-1.17-.92l2.15-2.17A13.6,13.6,0,0,1,277.92,71c.51.47,1,.93,1.41,1.37V67.86h3.25V80.14c.49-.09.93-.19,1.31-.28l1-.24.19,3.14L284,83q-.61.16-1.38.3v6h-3.25V84l-3.25.59c-1.05.19-1.92.33-2.59.42l-.57-2.59-.5.66a6.62,6.62,0,0,0-.37.59,17.57,17.57,0,0,1-1.89-1.82v7.48ZM264.2,74.7c-.07-.37-.18-.82-.34-1.36s-.35-1.08-.55-1.63a8.85,8.85,0,0,0-.57-1.3l2.64-1a8.16,8.16,0,0,1,.56,1.27c.21.55.4,1.11.58,1.68s.31,1,.39,1.38a11.2,11.2,0,0,0-1.45.4A7.16,7.16,0,0,0,264.2,74.7Zm8.65,0a12.6,12.6,0,0,0-1.26-.61,5.88,5.88,0,0,0-1.31-.42c.16-.32.34-.73.55-1.25s.41-1.06.59-1.62a13.94,13.94,0,0,0,.39-1.42l2.71.77c-.06.29-.16.64-.29,1.06s-.29.87-.45,1.33-.33.87-.49,1.26S273,74.52,272.85,74.74ZM277,80.26c-.4-.46-.92-1-1.54-1.55a12.27,12.27,0,0,0-1.8-1.4l2-2.24c.36.24.76.53,1.19.88s.85.69,1.26,1.06.76.69,1,1a10.24,10.24,0,0,0-1.11,1.06C277.66,79.51,277.31,79.91,277,80.26Z"/><path class="cls-1" d="M352.5,89.78a8.17,8.17,0,0,0-.43-1,10.59,10.59,0,0,0-.6-1.1,5,5,0,0,0-.64-.86,22.27,22.27,0,0,0,3.93-1.26,30.83,30.83,0,0,0,3.85-2,18.9,18.9,0,0,1-.85-2.54l-3.91.37-.28-2.85,3.6-.35c0-.13,0-.26-.05-.39a1.78,1.78,0,0,0-.07-.39l-2.21.24L354.56,75l2.21-.22L356.7,74l-2.29.18-.21-2.59h-4c0,.3,0,.62-.08,1s-.1.67-.18,1h4a25.48,25.48,0,0,1-.84,5.82A20.37,20.37,0,0,1,350.78,85a16.72,16.72,0,0,1-4.14,4.57,9.44,9.44,0,0,0-1.1-1.09,11.48,11.48,0,0,0-1.38-1.05A12.72,12.72,0,0,0,346.84,85a17.27,17.27,0,0,0,2.08-3.14,12,12,0,0,0-1.72-.91c-.11.18-.23.37-.36.56s-.27.37-.42.54a9.71,9.71,0,0,0-1.2-1,13.48,13.48,0,0,0-1.37-.83,9.67,9.67,0,0,0,1.52-2.41,17.08,17.08,0,0,0,1.08-3.09,18.31,18.31,0,0,0,.49-3.08h-2.12V68.71h9.57v2.62l2.19-.17c0-.53,0-1.08,0-1.64s0-1.13,0-1.71h3.32c0,1.07,0,2.09,0,3.07l2.1-.17a11.68,11.68,0,0,0-.83-.92,11.48,11.48,0,0,0-.87-.77l2.33-1.65a16.1,16.1,0,0,1,1.3,1.15c.49.47.88.88,1.18,1.23a7.32,7.32,0,0,0-1.13.8l1.93-.17.21,2.88-6.13.49c0,.13,0,.25,0,.38s0,.25,0,.38l5-.5.26,2.64-5,.47c0,.13,0,.26,0,.39s0,.27.05.39l5.68-.56.31,2.85-3,.31,1.94,1.67c-.32.39-.67.78-1.06,1.18a15.63,15.63,0,0,1-1.28,1.13l.51.52.53.47a8.52,8.52,0,0,0,.33-1,6.25,6.25,0,0,0,.19-.89,9.71,9.71,0,0,0,1.38.64,11.78,11.78,0,0,0,1.52.51,13,13,0,0,1-.53,2.09,11.21,11.21,0,0,1-.74,1.68,1.85,1.85,0,0,1-1.47,1.1,2.66,2.66,0,0,1-1.74-.48,11.37,11.37,0,0,1-1.46-1.22,12,12,0,0,1-1.27-1.47,33.2,33.2,0,0,1-3.75,1.94A25.47,25.47,0,0,1,352.5,89.78Zm-2.38-11a13.47,13.47,0,0,0,.41-2.19H349.2a5.54,5.54,0,0,1-.27.78c-.1.26-.2.53-.31.79l.74.3Zm11.18,2.94c.42-.36.81-.73,1.18-1.1l-1.51.16c0,.16.1.31.15.47S361.23,81.52,361.3,81.67Z"/><path class="cls-1" d="M375.35,89.33V77.93c-.21.29-.42.58-.64.84A5.16,5.16,0,0,0,374,78c-.31-.29-.63-.56-1-.82a10.3,10.3,0,0,0-.85-.6,16.69,16.69,0,0,0,1.33-2c.43-.74.84-1.51,1.22-2.32s.73-1.61,1-2.39.53-1.51.71-2.17l3.23.75-.06.25c0,.09,0,.18-.09.27h15.11v3.26H390V75h4.05V88.67H379.64V75h4.05V72.25h-4.27V69.49c-.11.37-.24.76-.39,1.16s-.31.81-.48,1.22V89.33Zm7.35-4h1V78.42h-1ZM386.35,75h1V72.25h-1Zm0,10.27h1V78.42h-1Zm3.66,0h1V78.42h-1Z"/></g></g></svg>