<svg xmlns="http://www.w3.org/2000/svg" viewBox="0 0 90.87 38.85"><defs><style>.cls-1{fill:none;}.cls-1,.cls-2{stroke:#000;stroke-linecap:round;stroke-miterlimit:10;stroke-width:2px;}.cls-2{fill:#76d3ff;}</style></defs><g id="レイヤー_2" data-name="レイヤー 2"><g id="レイヤー_1-2" data-name="レイヤー 1"><path class="cls-1" d="M1,31.45s.8-11.06,4.52-14.31c2.91-2.54,14.65-3.64,19.61-4a6.89,6.89,0,0,0,4-1.63S35,1.89,40.91,1.33,66,1,71,1.7s14.69,6,16.57,9c1.36,2.14,1,6.56.62,8.84a3.72,3.72,0,0,0,.63,2.67,8.31,8.31,0,0,1,1,3.87c-.13,1.14-1.88,3.11-2.95,4.22a2.61,2.61,0,0,1-1.92.81H82.44"/><path class="cls-1" d="M27.16,12.53c.38.09,41.23.09,44.43.09s5.93-2.73,5.93-2.73"/><line class="cls-1" x1="26.13" y1="30.6" x2="60.2" y2="30.6"/><circle class="cls-2" cx="15.23" cy="30.43" r="7.42"/><circle class="cls-2" cx="71.42" cy="30.43" r="7.42"/><path class="cls-1" d="M73.14,2.27c3.91.26,12.82-.49,15.07-.74A.81.81,0,0,1,89,2.74s-5.36,2.59-4.75,4.89"/></g></g></svg>