<svg xmlns="http://www.w3.org/2000/svg" viewBox="0 0 308.59 84.93"><defs><style>.cls-1{fill:#fff;}.cls-2{fill:#d66941;}</style></defs><g id="レイヤー_2" data-name="レイヤー 2"><g id="レイヤー_1-2" data-name="レイヤー 1"><path class="cls-1" d="M.47,58.75C3.06,45,15.19,35.44,29.78,35.44a27.29,27.29,0,0,1,15.13,4.5L42.46,52.48a16.35,16.35,0,0,0-10.77-3.95c-4.5,0-10.36,3.14-11.72,10.63-1.5,8.32,3.4,12.68,9.27,12.68a13.86,13.86,0,0,0,8.45-3l4,8.32c-3.82,4.09-9.13,7.77-19.08,7.77C6.06,84.93-2.12,72,.47,58.75Z"/><path class="cls-1" d="M50.77,70.21l12-68.57L82.81,0,70.54,69.66C70,73.07,71,74.57,73,74.57a5.89,5.89,0,0,0,2.86-.82v7.63c-2.59,1.5-6.68,3-13.36,3C54.86,84.38,49.13,79.89,50.77,70.21Z"/><path class="cls-1" d="M117.57,73.89c0-6.14,3.81-12,3.81-18.54a4.32,4.32,0,0,0-4.63-4.5c-3.27,0-6.41,2.32-7.91,10.77l-4,21.81H85.26l5.86-33c.68-3.54-.41-4.91-2.45-4.91a8,8,0,0,0-2.87.82V38.58a28.91,28.91,0,0,1,13.36-2.86c6.55,0,10.5,3.13,12,9.13a19.84,19.84,0,0,1,16-9.41c9.27,0,14.59,5.59,14.59,13.91,0,5.86-4.37,18.54-4.37,22.36a2.69,2.69,0,0,0,2.73,2.86,7.27,7.27,0,0,0,3-.82v7.77a30.76,30.76,0,0,1-13.63,2.86C122.88,84.38,117.57,81.66,117.57,73.89Z"/><path class="cls-1" d="M151,59.44c2.45-13.91,13.77-24,26.72-24,3,0,9.27.82,12.68,4.5l3.13-3h14.45l-5.86,32.72c-.54,3.41.41,4.91,2.45,4.91a5.93,5.93,0,0,0,2.87-.82v7.63c-2.46,1.5-6.68,3-13.36,3-5.86,0-9.95-2.31-11.32-6.95-3.13,5.32-10.36,7.23-15.13,7.23C154.91,84.66,148.51,73.07,151,59.44Zm33.26,1.36,1.64-9.68a7.78,7.78,0,0,0-6.14-2.59c-3.95,0-7.63,3.41-9.13,11.45s.68,11.59,4.91,11.59C179.32,71.57,183.13,67.07,184.22,60.8Z"/><path class="cls-1" d="M216.94,69.39c0-9.68,5.45-14.86,5.45-20.72,0-1.91-1.09-2.87-2.59-2.87s-1.91.55-2.86.82V38.85c2.59-1.63,7.63-2.86,13.35-2.86,7.5,0,11.87,4.5,11.87,10.5,0,7.63-6,12.4-6,21.26,0,2.73,1.77,4.5,4.9,4.5,5.18,0,10.09-8.86,10.09-21.67a33.3,33.3,0,0,0-3.41-13.64h18c2.45,3,4.36,9.14,4.36,14.73,0,13.76-11.31,33.26-35.17,33.26C225.25,84.93,216.94,80,216.94,69.39Z"/><path class="cls-1" d="M278.82,73.89c0-7.64,5.18-18,5.18-25.5a2.58,2.58,0,0,0-2.59-2.86c-1.5,0-2,.55-3,.82V38.58c2.59-1.64,7.09-2.86,13.5-2.86,8.18,0,12.27,4.5,12.27,10.49,0,7.64-5.32,18-5.32,25.5a2.69,2.69,0,0,0,2.73,2.86,7.21,7.21,0,0,0,2.86-.82v7.77c-2.45,1.64-7.09,2.86-13.36,2.86C282.91,84.38,278.82,79.89,278.82,73.89Z"/><path class="cls-2" d="M289.59,16.22A10.58,10.58,0,0,1,300,6.82a8.31,8.31,0,0,1,8.59,9.4A10.72,10.72,0,0,1,298,25.49,8.18,8.18,0,0,1,289.59,16.22Z"/></g></g></svg>