<svg xmlns="http://www.w3.org/2000/svg" viewBox="0 0 53.51 53.51"><g id="レイヤー_2" data-name="レイヤー 2"><g id="レイヤー_1-2" data-name="レイヤー 1"><path d="M26.76,0A26.76,26.76,0,1,0,53.51,26.76,26.76,26.76,0,0,0,26.76,0Zm-10,16.36A4.14,4.14,0,1,1,12.6,20.5,4.14,4.14,0,0,1,16.73,16.36ZM39.27,40.84a2,2,0,0,1-1.12.34,2,2,0,0,1-1.66-.88,11.61,11.61,0,0,0-19.22-.07A2,2,0,1,1,14,38a15.62,15.62,0,0,1,25.84.1A2,2,0,0,1,39.27,40.84ZM36.45,24.63a4.14,4.14,0,1,1,4.14-4.13A4.14,4.14,0,0,1,36.45,24.63Z"/></g></g></svg>