<svg xmlns="http://www.w3.org/2000/svg" viewBox="0 0 342.01 110.97"><defs><style>.cls-1{fill:#333;}</style></defs><g id="レイヤー_2" data-name="レイヤー 2"><g id="レイヤー_1-2" data-name="レイヤー 1"><path class="cls-1" d="M0,79.07,3.82,67.34c4.77,3,10.49,6,18,6,3.27,0,4.77-1.36,4.91-2.86.27-2-2-2.59-5.59-3.14-14.31-2.45-17.86-8.72-17-16.22s7.63-15.68,22.63-15.68a38.39,38.39,0,0,1,18.13,4.77l-4,11a31.28,31.28,0,0,0-15.14-4.09c-2.59,0-4,.95-4.09,2.18-.13,1.5,1.5,2.45,4,2.86C41,54.8,45.12,61.34,44.44,67.34c-1.09,10.5-8.86,17.59-23.72,17.59A37.73,37.73,0,0,1,0,79.07Z"/><path class="cls-1" d="M54.66,73.89c0-7.64,5.18-18,5.18-25.5a2.58,2.58,0,0,0-2.59-2.86c-1.5,0-2,.55-3,.82V38.58c2.59-1.64,7.09-2.86,13.5-2.86C75.93,35.72,80,40.21,80,46.21c0,7.64-5.32,18-5.32,25.5a2.69,2.69,0,0,0,2.73,2.86,7.21,7.21,0,0,0,2.86-.82v7.77c-2.45,1.64-7.09,2.86-13.36,2.86C58.75,84.38,54.66,79.88,54.66,73.89ZM65.43,16.22a10.58,10.58,0,0,1,10.36-9.4,8.31,8.31,0,0,1,8.59,9.4,10.72,10.72,0,0,1-10.5,9.27A8.18,8.18,0,0,1,65.43,16.22Z"/><path class="cls-1" d="M117.37,67.48c-.55-3.27-1.91-4.64-3.28-4.64s-2.59.82-3,3L108,83.43H88.33L102.64,1.64l20-1.64-9.81,56.3,17.72-19.36h21L132.77,57.39a16.53,16.53,0,0,1,2.86,5.45c2.05,6.28,1.64,10.91,6,10.91A6.63,6.63,0,0,0,145.86,72l.68,8.31c-2.86,2.59-8.86,4.09-14,4.09C121.46,84.38,119.27,78.79,117.37,67.48Z"/><path class="cls-1" d="M154.71,73.89c0-7.64,5.18-18,5.18-25.5a2.58,2.58,0,0,0-2.59-2.86c-1.5,0-2,.55-3,.82V38.58c2.59-1.64,7.09-2.86,13.5-2.86,8.18,0,12.27,4.49,12.27,10.49,0,7.64-5.32,18-5.32,25.5a2.69,2.69,0,0,0,2.73,2.86,7.21,7.21,0,0,0,2.86-.82v7.77c-2.45,1.64-7.09,2.86-13.36,2.86C158.8,84.38,154.71,79.88,154.71,73.89Zm10.77-57.67a10.58,10.58,0,0,1,10.36-9.4,8.31,8.31,0,0,1,8.59,9.4,10.7,10.7,0,0,1-10.49,9.27A8.18,8.18,0,0,1,165.48,16.22Z"/><path class="cls-1" d="M189.88,70.21l12-68.57,20-1.64L209.65,69.66c-.55,3.41.41,4.91,2.45,4.91a5.89,5.89,0,0,0,2.86-.82v7.63c-2.59,1.5-6.68,3-13.36,3C194,84.38,188.25,79.88,189.88,70.21Z"/><path class="cls-1" d="M223.41,58.48c2.46-14.18,15.82-23.31,29.72-23.31,16.77,0,26.86,12.54,24.4,26.72S261.58,85.2,247.82,85.2C231.05,85.2,221,72.66,223.41,58.48ZM258,60.53c1.64-9.14-1.91-12-6-12-3.54,0-7.63,2-9.27,11.32s1.91,12,6,12C252.18,71.84,256.4,69.8,258,60.53Z"/><path class="cls-1" d="M283.12,105.1l2.18-13.9c6.13,4.36,10.5,5.72,16.36,5.72,6.4,0,10.63-2.45,12.13-10.9l1.09-6.14c-3.41,3.41-9.27,4.78-13.22,4.78C289,84.66,282.57,73.07,285,59.44c2.45-13.91,13.77-24,26.72-24,3,0,9.27.82,12.67,4.5l3.14-3H342l-8.18,46.35C329.74,106.47,315.56,111,303.57,111A43,43,0,0,1,283.12,105.1Zm35-44,1.78-10a7.81,7.81,0,0,0-6.14-2.59c-4,0-7.63,3.41-9.13,11.45s.68,11.59,4.9,11.59C313.38,71.57,317.06,67.34,318.15,61.07Z"/></g></g></svg>