<svg xmlns="http://www.w3.org/2000/svg" viewBox="0 0 123.53 165.33"><defs><style>.cls-1{fill:#fff;}.cls-1,.cls-2,.cls-3,.cls-4{stroke:#000;stroke-miterlimit:10;}.cls-1,.cls-3{stroke-width:2px;}.cls-2,.cls-3,.cls-4{fill:none;}.cls-2,.cls-4{stroke-linecap:round;}.cls-4{stroke-width:0.5px;}</style></defs><g id="レイヤー_2" data-name="レイヤー 2"><g id="レイヤー_1-2" data-name="レイヤー 1"><path class="cls-1" d="M122.67,164.82c-4.24-7.06-11.79-39.28-11.79-39.28s-3.37-13.43-2.9-23,5.49-26.84,5.92-35.3-2.27-37-2.65-39.34c6.68-3.58,10-15.43,7-19.2s-15.92.38-18.84,1.69c-6.12-.09-14-9.36-26-9.36C55,1,41,8.62,39.72,9.09c-1.51-2-11-5.67-16.77.07s5.54,17.06,9.78,19.23C32.3,29.86,15.48,82.44,10,105.63c-.43,1.83-8.71,30.36-9,31.78"/><path class="cls-2" d="M36.2,15c-.82.21-4.83-1.26-5.69.55s2.57,6.2,2.57,6.2"/><path class="cls-2" d="M104.25,14.76c.57-.13,5.56-2.76,7.07-.47s-3.52,6.15-3.52,6.15"/><path d="M94.5,39.09c-1.55,0-3.82-.51-3.82-2.44s2.92-3,3.81-3,3,1.58,2.64,2.79S96.05,39.09,94.5,39.09Z"/><path d="M60.2,32.32c-1.59,0-3.43,1.61-3.43,2.69,0,2.59.9,3.39,4.13,3.39,1.83,0,3.38-1.11,3.59-2.41S61.79,32.32,60.2,32.32Z"/><path d="M80.79,60.21c3.3,0,6.46-4.3,6.46-9.35a6.37,6.37,0,0,0-6.59-5.19c-6.27,0-8.47,4.3-8.47,5.34C72.19,57.78,77.5,60.21,80.79,60.21Z"/><path class="cls-3" d="M86.85,65.68A11.56,11.56,0,0,1,80.45,68c-4.09.31-7.87-2.81-7.87-2.81"/><path class="cls-4" d="M93.41,81.34s.47,1.39-1,4.54"/><path class="cls-4" d="M101.58,74.72a8.7,8.7,0,0,1-.58,6.13"/><path class="cls-4" d="M109.29,67.79s.62,2.44-.5,4"/><path class="cls-4" d="M65.19,80.44a11.14,11.14,0,0,0,2.08,6.91"/><path class="cls-4" d="M73,85.46A16,16,0,0,0,74,89.69"/><path class="cls-4" d="M87.5,84.58A7.37,7.37,0,0,1,87,88.21"/><path class="cls-4" d="M57.41,76.07s0,4.57,1.66,5.91"/><path class="cls-4" d="M44.08,69.07A7.64,7.64,0,0,0,45,74.33"/><path class="cls-4" d="M32.76,57.82s-.3,3.75,1.29,4.77"/><path class="cls-4" d="M49.74,75.28a4,4,0,0,0,.55,2.39"/><path class="cls-4" d="M80.63,88.21s.08,1.09.08,2.17"/><path class="cls-4" d="M104.79,72.84s.39.54-.08,2.17"/><path class="cls-4" d="M97.17,80.26s.39.55-.08,2.17"/><path class="cls-4" d="M38.73,65.51a3.57,3.57,0,0,0,.69,2.17"/><path class="cls-3" d="M92.05,44.91c2.12,6.94,1.88,5.19,1.88,14.5S85.19,75.74,78.41,75.74,65.16,67.67,65.16,58.36s.43-8.18,1.7-13.26"/></g></g></svg>